<svg width="188" height="56" viewBox="0 0 188 56" fill="none" xmlns="http://www.w3.org/2000/svg">
<path d="M181.311 56H6.58557C2.95508 56 0 53.0208 0 49.3738V6.6164C0 2.968 2.95508 0 6.58557 0H181.311C184.94 0 188 2.968 188 6.6164V49.3738C188 53.0208 184.94 56 181.311 56Z" fill="#A6A6A6"/>
<path d="M186.137 48.8941C186.137 51.7887 183.764 54.1334 180.83 54.1334H7.1728C4.23997 54.1334 1.85938 51.7887 1.85938 48.8941V7.11279C1.85938 4.21957 4.23997 1.8667 7.1728 1.8667H180.829C183.764 1.8667 186.135 4.21957 186.135 7.11279L186.137 48.8941Z" fill="black"/>
<path d="M41.125 27.6973C41.0854 23.1851 44.7273 20.9899 44.8938 20.8877C42.8313 17.8035 39.6344 17.3821 38.511 17.3485C35.826 17.0587 33.2216 18.9963 31.8538 18.9963C30.4588 18.9963 28.3525 17.3765 26.0825 17.4241C23.1614 17.4703 20.4286 19.2049 18.9298 21.8985C15.8367 27.3907 18.1436 35.4617 21.107 39.9011C22.5894 42.0753 24.3216 44.5029 26.5889 44.4175C28.8071 44.3237 29.6357 42.9671 32.3125 42.9671C34.9647 42.9671 35.7427 44.4175 38.0551 44.3629C40.4357 44.3237 41.9345 42.1789 43.365 39.9851C45.0781 37.4931 45.7661 35.0389 45.7934 34.9129C45.7374 34.8933 41.17 33.1055 41.125 27.6973Z" fill="white"/>
<path d="M36.7576 14.4282C37.9506 12.898 38.7669 10.8162 38.5403 8.70361C36.8135 8.78201 34.6541 9.92861 33.4105 11.4252C32.3103 12.744 31.3275 14.9056 31.5814 16.9384C33.5211 17.0868 35.5127 15.9346 36.7576 14.4282Z" fill="white"/>
<path d="M73.2266 44.1055H70.1266L68.4286 38.6329H62.5262L60.9087 44.1055H57.8906L63.7384 25.4742H67.3502L73.2266 44.1055ZM67.9167 36.3369L66.381 31.4718C66.2186 30.9748 65.9142 29.8044 65.4651 27.962H65.4105C65.2317 28.7544 64.9437 29.9248 64.5478 31.4718L63.0395 36.3369H67.9167Z" fill="white"/>
<path d="M88.2645 37.2232C88.2645 39.508 87.6626 41.314 86.4586 42.6398C85.3802 43.82 84.0412 44.4094 82.4427 44.4094C80.7173 44.4094 79.4779 43.7738 78.723 42.5026H78.6684V49.5796H75.7582V35.0938C75.7582 33.6574 75.7214 32.1832 75.6504 30.6712H78.2098L78.3722 32.8006H78.4268C79.3974 31.1962 80.8702 30.3954 82.8468 30.3954C84.392 30.3954 85.6819 31.0212 86.7139 32.2742C87.7485 33.5286 88.2645 35.1778 88.2645 37.2232ZM85.2997 37.3324C85.2997 36.0248 85.0131 34.9468 84.437 34.0984C83.8077 33.2136 82.9628 32.7712 81.9035 32.7712C81.1855 32.7712 80.5331 33.0176 79.9502 33.5034C79.366 33.9934 78.9838 34.6332 78.8049 35.4256C78.7149 35.7952 78.6698 36.0976 78.6698 36.3356V38.5756C78.6698 39.5528 78.9619 40.3774 79.5462 41.0508C80.1304 41.7242 80.8893 42.0602 81.823 42.0602C82.9191 42.0602 83.7722 41.6262 84.3824 40.761C84.9939 39.8944 85.2997 38.752 85.2997 37.3324Z" fill="white"/>
<path d="M103.332 37.2232C103.332 39.508 102.73 41.314 101.524 42.6398C100.447 43.82 99.1081 44.4094 97.5097 44.4094C95.7843 44.4094 94.5449 43.7738 93.7914 42.5026H93.7368V49.5796H90.8266V35.0938C90.8266 33.6574 90.7897 32.1832 90.7188 30.6712H93.2782L93.4406 32.8006H93.4952C94.4644 31.1962 95.9372 30.3954 97.9151 30.3954C99.459 30.3954 100.749 31.0212 101.784 32.2742C102.814 33.5286 103.332 35.1778 103.332 37.2232ZM100.367 37.3324C100.367 36.0248 100.079 34.9468 99.5026 34.0984C98.8734 33.2136 98.0311 32.7712 96.9705 32.7712C96.2512 32.7712 95.6001 33.0176 95.0158 33.5034C94.4316 33.9934 94.0508 34.6332 93.8719 35.4256C93.7832 35.7952 93.7368 36.0976 93.7368 36.3356V38.5756C93.7368 39.5528 94.0289 40.3774 94.6104 41.0508C95.1946 41.7228 95.9536 42.0602 96.89 42.0602C97.9861 42.0602 98.8392 41.6262 99.4494 40.761C100.061 39.8944 100.367 38.752 100.367 37.3324Z" fill="white"/>
<path d="M120.176 38.8808C120.176 40.4656 119.639 41.755 118.562 42.7504C117.379 43.8382 115.731 44.3814 113.614 44.3814C111.659 44.3814 110.092 43.995 108.906 43.2208L109.581 40.733C110.858 41.5254 112.26 41.923 113.788 41.923C114.884 41.923 115.737 41.6682 116.35 41.1614C116.96 40.6546 117.264 39.9742 117.264 39.1258C117.264 38.3698 117.013 37.7328 116.509 37.2162C116.008 36.6996 115.172 36.2194 114.003 35.7756C110.823 34.559 109.234 32.7768 109.234 30.4332C109.234 28.9016 109.791 27.6458 110.906 26.6686C112.017 25.69 113.5 25.2014 115.353 25.2014C117.006 25.2014 118.379 25.4968 119.476 26.0862L118.748 28.5194C117.724 27.9482 116.567 27.6626 115.271 27.6626C114.248 27.6626 113.448 27.9216 112.874 28.4368C112.39 28.8974 112.147 29.4588 112.147 30.1238C112.147 30.8602 112.424 31.4692 112.981 31.948C113.465 32.3904 114.346 32.8692 115.623 33.3858C117.186 34.0312 118.334 34.7858 119.073 35.651C119.809 36.5134 120.176 37.5928 120.176 38.8808Z" fill="white"/>
<path d="M129.795 32.9114H126.588V39.434C126.588 41.093 127.153 41.9218 128.286 41.9218C128.806 41.9218 129.237 41.8756 129.578 41.7832L129.659 44.0498C129.086 44.2696 128.331 44.3802 127.396 44.3802C126.246 44.3802 125.348 44.0204 124.7 43.3022C124.054 42.5826 123.729 41.3758 123.729 39.6804V32.9086H121.818V30.6686H123.729V28.2088L126.588 27.324V30.6686H129.795V32.9114Z" fill="white"/>
<path d="M144.269 37.278C144.269 39.343 143.693 41.0384 142.544 42.3642C141.339 43.7292 139.739 44.4096 137.744 44.4096C135.823 44.4096 134.292 43.7558 133.151 42.4482C132.01 41.1406 131.439 39.49 131.439 37.5006C131.439 35.4188 132.026 33.7136 133.204 32.3878C134.38 31.0606 135.966 30.397 137.96 30.397C139.882 30.397 141.429 31.0508 142.596 32.3598C143.712 33.6296 144.269 35.269 144.269 37.278ZM141.25 37.3746C141.25 36.1356 140.992 35.073 140.469 34.1868C139.859 33.1144 138.987 32.5796 137.856 32.5796C136.687 32.5796 135.798 33.1158 135.188 34.1868C134.665 35.0744 134.407 36.1538 134.407 37.4306C134.407 38.6696 134.665 39.7322 135.188 40.617C135.817 41.6894 136.696 42.2242 137.83 42.2242C138.942 42.2242 139.814 41.6782 140.443 40.589C140.98 39.686 141.25 38.6122 141.25 37.3746Z" fill="white"/>
<path d="M153.731 33.2962C153.443 33.2416 153.135 33.2136 152.813 33.2136C151.79 33.2136 150.998 33.6098 150.441 34.4036C149.956 35.1036 149.713 35.9884 149.713 37.0566V44.1056H146.805L146.832 34.902C146.832 33.3536 146.795 31.9438 146.723 30.6726H149.257L149.364 33.243H149.445C149.752 32.3596 150.236 31.6484 150.9 31.115C151.548 30.6348 152.248 30.3954 153.003 30.3954C153.272 30.3954 153.515 30.415 153.731 30.45V33.2962Z" fill="white"/>
<path d="M166.746 36.7528C166.746 37.2876 166.712 37.7384 166.64 38.1066H157.909C157.943 39.4338 158.365 40.4488 159.176 41.1488C159.912 41.7746 160.863 42.0882 162.032 42.0882C163.324 42.0882 164.504 41.8768 165.564 41.4526L166.02 43.5246C164.781 44.079 163.317 44.3548 161.629 44.3548C159.598 44.3548 158.003 43.7416 156.843 42.5166C155.686 41.2916 155.105 39.6466 155.105 37.583C155.105 35.5572 155.645 33.8702 156.724 32.5248C157.855 31.0884 159.382 30.3702 161.304 30.3702C163.192 30.3702 164.621 31.0884 165.592 32.5248C166.36 33.6658 166.746 35.077 166.746 36.7528ZM163.971 35.9786C163.99 35.0938 163.801 34.3294 163.406 33.684C162.902 32.8538 162.128 32.4394 161.087 32.4394C160.136 32.4394 159.362 32.844 158.771 33.656C158.286 34.3014 157.998 35.0756 157.909 35.9772H163.971V35.9786Z" fill="white"/>
<path d="M66.9567 14.0127C66.9567 15.6605 66.4748 16.9009 65.5125 17.7339C64.6212 18.5025 63.3544 18.8875 61.7137 18.8875C60.9001 18.8875 60.204 18.8511 59.6211 18.7783V9.77487C60.3814 9.64887 61.2004 9.58447 62.0849 9.58447C63.6479 9.58447 64.8259 9.93307 65.6203 10.6303C66.5103 11.4185 66.9567 12.5455 66.9567 14.0127ZM65.4484 14.0533C65.4484 12.9851 65.1726 12.1661 64.6212 11.5949C64.0697 11.0251 63.2643 10.7395 62.2037 10.7395C61.7533 10.7395 61.3697 10.7703 61.0516 10.8347V17.6793C61.2277 17.7073 61.5499 17.7199 62.0181 17.7199C63.1128 17.7199 63.9578 17.4077 64.5529 16.7833C65.1481 16.1589 65.4484 15.2489 65.4484 14.0533Z" fill="white"/>
<path d="M74.9546 15.452C74.9546 16.467 74.672 17.2986 74.1069 17.951C73.5145 18.6216 72.7296 18.9562 71.7496 18.9562C70.805 18.9562 70.0528 18.6356 69.4918 17.9916C68.9322 17.349 68.6523 16.5384 68.6523 15.5612C68.6523 14.5392 68.9404 13.7006 69.5191 13.0496C70.0979 12.3986 70.8759 12.0724 71.856 12.0724C72.8006 12.0724 73.5596 12.393 74.1342 13.0356C74.6802 13.66 74.9546 14.4664 74.9546 15.452ZM73.4708 15.4996C73.4708 14.8906 73.3425 14.3684 73.0873 13.933C72.787 13.4066 72.3597 13.1434 71.8042 13.1434C71.2295 13.1434 70.7927 13.4066 70.4924 13.933C70.2358 14.3684 70.1088 14.899 70.1088 15.5262C70.1088 16.1352 70.2371 16.6574 70.4924 17.0928C70.8022 17.6192 71.2336 17.8824 71.7905 17.8824C72.3365 17.8824 72.7651 17.615 73.0736 17.0788C73.3384 16.635 73.4708 16.1086 73.4708 15.4996Z" fill="white"/>
<path d="M85.6785 12.2067L83.6651 18.8063H82.3547L81.5207 15.9405C81.3091 15.2251 81.1371 14.5139 81.0033 13.8083H80.9774C80.8532 14.5335 80.6812 15.2433 80.4601 15.9405L79.5742 18.8063H78.2487L76.3555 12.2067H77.8256L78.5531 15.3441C78.7292 16.0861 78.8739 16.7931 78.99 17.4623H79.0159C79.1224 16.9107 79.2984 16.2079 79.5469 15.3581L80.4601 12.2081H81.6258L82.5008 15.2909C82.7123 16.0427 82.8843 16.7665 83.0167 17.4637H83.0563C83.1533 16.7847 83.2993 16.0609 83.4931 15.2909L84.2739 12.2081L85.6785 12.2067Z" fill="white"/>
<path d="M93.0953 18.8063H91.6648V15.0263C91.6648 13.8615 91.2334 13.2791 90.368 13.2791C89.9435 13.2791 89.6009 13.4387 89.3347 13.7593C89.0713 14.0799 88.9375 14.4579 88.9375 14.8905V18.8049H87.5069V14.0925C87.5069 13.5129 87.4892 12.8843 87.4551 12.2039H88.7123L88.7791 13.2357H88.8187C88.9853 12.9151 89.2337 12.6505 89.5599 12.4391C89.9476 12.1927 90.3817 12.0681 90.8567 12.0681C91.4573 12.0681 91.9569 12.2669 92.3541 12.6659C92.8482 13.1545 93.0953 13.8839 93.0953 14.8527V18.8063Z" fill="white"/>
<path d="M97.0405 18.8064H95.6113V9.17859H97.0405V18.8064Z" fill="white"/>
<path d="M105.462 15.452C105.462 16.467 105.18 17.2986 104.615 17.951C104.022 18.6216 103.236 18.9562 102.257 18.9562C101.311 18.9562 100.559 18.6356 99.9996 17.9916C99.44 17.349 99.1602 16.5384 99.1602 15.5612C99.1602 14.5392 99.4482 13.7006 100.027 13.0496C100.606 12.3986 101.384 12.0724 102.362 12.0724C103.308 12.0724 104.066 12.393 104.642 13.0356C105.188 13.66 105.462 14.4664 105.462 15.452ZM103.977 15.4996C103.977 14.8906 103.849 14.3684 103.594 13.933C103.295 13.4066 102.866 13.1434 102.312 13.1434C101.736 13.1434 101.299 13.4066 101 13.933C100.744 14.3684 100.617 14.899 100.617 15.5262C100.617 16.1352 100.745 16.6574 101 17.0928C101.31 17.6192 101.741 17.8824 102.298 17.8824C102.844 17.8824 103.272 17.615 103.58 17.0788C103.846 16.635 103.977 16.1086 103.977 15.4996Z" fill="white"/>
<path d="M112.384 18.8064H111.1L110.993 18.0462H110.954C110.514 18.6524 109.888 18.9562 109.074 18.9562C108.467 18.9562 107.975 18.756 107.605 18.3584C107.269 17.9972 107.102 17.5478 107.102 17.0144C107.102 16.208 107.429 15.5934 108.088 15.1678C108.746 14.7422 109.672 14.5336 110.864 14.5434V14.4202C110.864 13.5508 110.419 13.1168 109.527 13.1168C108.892 13.1168 108.333 13.2806 107.85 13.6054L107.559 12.6422C108.157 12.2628 108.895 12.0724 109.766 12.0724C111.448 12.0724 112.291 12.9824 112.291 14.8024V17.2328C112.291 17.8922 112.323 18.4172 112.384 18.8064ZM110.899 16.5384V15.5206C109.321 15.4926 108.532 15.9364 108.532 16.8506C108.532 17.195 108.622 17.4526 108.806 17.6248C108.991 17.797 109.226 17.8824 109.505 17.8824C109.819 17.8824 110.113 17.7802 110.38 17.5772C110.649 17.3728 110.814 17.1138 110.876 16.796C110.891 16.7246 110.899 16.6378 110.899 16.5384Z" fill="white"/>
<path d="M120.514 18.8064H119.244L119.177 17.7466H119.138C118.732 18.553 118.042 18.9562 117.071 18.9562C116.296 18.9562 115.65 18.644 115.138 18.0196C114.626 17.3952 114.371 16.5846 114.371 15.5892C114.371 14.521 114.648 13.6558 115.205 12.995C115.744 12.379 116.405 12.071 117.191 12.071C118.055 12.071 118.66 12.3692 119.004 12.967H119.031V9.17859H120.463V17.0284C120.463 17.671 120.48 18.2632 120.514 18.8064ZM119.031 16.0232V14.9228C119.031 14.7324 119.018 14.5784 118.992 14.4608C118.911 14.108 118.738 13.8112 118.474 13.5718C118.208 13.3324 117.887 13.212 117.517 13.212C116.984 13.212 116.566 13.429 116.259 13.8644C115.955 14.2998 115.8 14.8556 115.8 15.5346C115.8 16.187 115.946 16.7162 116.24 17.1236C116.55 17.5576 116.967 17.7746 117.49 17.7746C117.96 17.7746 118.335 17.594 118.62 17.2314C118.896 16.8968 119.031 16.4936 119.031 16.0232Z" fill="white"/>
<path d="M132.75 15.452C132.75 16.467 132.467 17.2986 131.902 17.951C131.309 18.6216 130.526 18.9562 129.544 18.9562C128.601 18.9562 127.849 18.6356 127.287 17.9916C126.727 17.349 126.447 16.5384 126.447 15.5612C126.447 14.5392 126.735 13.7006 127.314 13.0496C127.893 12.3986 128.671 12.0724 129.652 12.0724C130.596 12.0724 131.356 12.393 131.929 13.0356C132.475 13.66 132.75 14.4664 132.75 15.452ZM131.267 15.4996C131.267 14.8906 131.139 14.3684 130.884 13.933C130.582 13.4066 130.156 13.1434 129.599 13.1434C129.026 13.1434 128.589 13.4066 128.287 13.933C128.031 14.3684 127.904 14.899 127.904 15.5262C127.904 16.1352 128.032 16.6574 128.287 17.0928C128.597 17.6192 129.029 17.8824 129.585 17.8824C130.131 17.8824 130.561 17.615 130.87 17.0788C131.133 16.635 131.267 16.1086 131.267 15.4996Z" fill="white"/>
<path d="M140.44 18.8063H139.01V15.0263C139.01 13.8615 138.579 13.2791 137.712 13.2791C137.288 13.2791 136.945 13.4387 136.68 13.7593C136.416 14.0799 136.283 14.4579 136.283 14.8905V18.8049H134.851V14.0925C134.851 13.5129 134.835 12.8843 134.801 12.2039H136.057L136.123 13.2357H136.163C136.331 12.9151 136.579 12.6505 136.904 12.4391C137.293 12.1927 137.726 12.0681 138.202 12.0681C138.802 12.0681 139.301 12.2669 139.698 12.6659C140.194 13.1545 140.44 13.8839 140.44 14.8527V18.8063Z" fill="white"/>
<path d="M150.067 13.3058H148.492V16.5118C148.492 17.3266 148.772 17.734 149.326 17.734C149.583 17.734 149.796 17.7116 149.964 17.6654L150 18.7784C149.718 18.8876 149.347 18.9422 148.889 18.9422C148.324 18.9422 147.885 18.7658 147.567 18.413C147.247 18.0602 147.089 17.4666 147.089 16.6336V13.3058H146.148V12.2068H147.089V10.9972L148.491 10.5632V12.2054H150.066L150.067 13.3058Z" fill="white"/>
<path d="M157.639 18.8064H156.207V15.0544C156.207 13.8714 155.776 13.2792 154.912 13.2792C154.248 13.2792 153.795 13.6222 153.547 14.3082C153.505 14.4524 153.48 14.6288 153.48 14.836V18.805H152.051V9.17859H153.48V13.156H153.507C153.958 12.4322 154.603 12.071 155.44 12.071C156.033 12.071 156.523 12.2698 156.912 12.6688C157.396 13.1658 157.639 13.905 157.639 14.8822V18.8064Z" fill="white"/>
<path d="M165.453 15.1945C165.453 15.4577 165.434 15.6789 165.4 15.8595H161.11C161.129 16.5119 161.334 17.0089 161.731 17.3533C162.094 17.6613 162.562 17.8153 163.135 17.8153C163.77 17.8153 164.349 17.7117 164.87 17.5031L165.094 18.5223C164.484 18.7939 163.766 18.9297 162.935 18.9297C161.938 18.9297 161.153 18.6287 160.586 18.0267C160.015 17.4247 159.732 16.6169 159.732 15.6033C159.732 14.6079 159.996 13.7791 160.527 13.1183C161.081 12.4127 161.83 12.0599 162.776 12.0599C163.702 12.0599 164.405 12.4127 164.88 13.1183C165.263 13.6783 165.453 14.3713 165.453 15.1945ZM164.088 14.8151C164.099 14.3797 164.005 14.0045 163.811 13.6881C163.563 13.2807 163.185 13.0763 162.673 13.0763C162.206 13.0763 161.825 13.2751 161.534 13.6741C161.297 13.9919 161.156 14.3713 161.11 14.8151H164.088Z" fill="white"/>
</svg>
