<svg width="115" height="115" viewBox="0 0 115 115" fill="none" xmlns="http://www.w3.org/2000/svg">
<path d="M83.3817 104.489H80.0771V107.677H83.3817V104.489Z" fill="white" stroke="white" stroke-miterlimit="10"/>
<path d="M60.8706 50.8418H56.4028V54.1347H60.8706V50.8418Z" fill="white" stroke="white" stroke-miterlimit="10"/>
<path d="M46.6477 57.9149H42.1799V61.2078H46.6477V57.9149Z" fill="white" stroke="white" stroke-miterlimit="10"/>
<path d="M75.0013 57.9149H70.5334V61.2078H75.0013V57.9149Z" fill="white" stroke="white" stroke-miterlimit="10"/>
<path d="M19.1666 28.1079C21.8908 28.1079 24.5538 27.303 26.8188 25.7949C29.0839 24.2868 30.8493 22.1433 31.8917 19.6354C32.9342 17.1276 33.207 14.368 32.6755 11.7057C32.1441 9.04336 30.8323 6.59786 28.906 4.67844C26.9797 2.75901 24.5255 1.45186 21.8537 0.922291C19.1819 0.392722 16.4125 0.664516 13.8957 1.7033C11.3789 2.74209 9.22779 4.50121 7.71433 6.75822C6.20087 9.01523 5.39307 11.6688 5.39307 14.3832C5.40005 18.0211 6.85344 21.508 9.43497 24.0803C12.0165 26.6527 15.5158 28.1009 19.1666 28.1079ZM19.1666 3.95144C21.2372 3.95144 23.2613 4.56325 24.9829 5.70951C26.7045 6.85577 28.0463 8.485 28.8387 10.3912C29.6311 12.2973 29.8384 14.3948 29.4344 16.4184C29.0305 18.4419 28.0334 20.3007 26.5693 21.7596C25.1052 23.2185 23.2398 24.2121 21.209 24.6146C19.1782 25.0171 17.0733 24.8105 15.1603 24.021C13.2474 23.2314 11.6123 21.8943 10.462 20.1788C9.31166 18.4633 8.69766 16.4464 8.69766 14.3832C8.70116 11.6176 9.80526 8.96628 11.7678 7.01069C13.7304 5.05511 16.3912 3.95493 19.1666 3.95144Z" fill="white" stroke="white" stroke-miterlimit="10"/>
<path d="M14.8708 11.5909H11.5662V17.1624H14.8708V11.5909Z" fill="white" stroke="white" stroke-miterlimit="10"/>
<path d="M61.6373 12.7368H35.9143V16.0297H61.6373V12.7368Z" fill="white" stroke="white" stroke-miterlimit="10"/>
<path d="M49.7936 19.3225H35.9143V22.6154H49.7936V19.3225Z" fill="white" stroke="white" stroke-miterlimit="10"/>
<path d="M49.7936 6.15106H35.9143V9.44393H49.7936V6.15106Z" fill="white" stroke="white" stroke-miterlimit="10"/>
<path d="M95.8862 46.1001C98.6131 46.1131 101.283 45.3193 103.556 43.8192C105.83 42.319 107.606 40.1801 108.658 37.6734C109.711 35.1668 109.993 32.4051 109.469 29.7385C108.945 27.0719 107.639 24.6202 105.715 22.6942C103.791 20.7682 101.337 19.4544 98.6638 18.9195C95.9902 18.3846 93.2174 18.6525 90.6967 19.6893C88.1761 20.7262 86.021 22.4852 84.5046 24.7436C82.9882 27.002 82.1787 29.6582 82.1787 32.3754C82.1821 36.003 83.6253 39.482 86.1933 42.0532C88.7614 44.6245 92.2458 46.0792 95.8862 46.1001ZM95.8862 21.9568C97.9573 21.9568 99.9819 22.569 101.704 23.7158C103.426 24.8627 104.768 26.4927 105.559 28.3996C106.351 30.3065 106.558 32.4047 106.153 34.4286C105.748 36.4525 104.75 38.3113 103.284 39.7697C101.819 41.2281 99.9521 42.2205 97.9205 42.6216C95.8888 43.0226 93.7834 42.8141 91.8707 42.0226C89.958 41.231 88.3239 39.8919 87.1751 38.1746C86.0264 36.4574 85.4146 34.4392 85.4172 32.3754C85.4242 29.6121 86.5299 26.9642 88.492 25.0114C90.4542 23.0587 93.113 21.9603 95.8862 21.9568Z" fill="white" stroke="white" stroke-miterlimit="10"/>
<path d="M103.474 29.5831H100.169V35.1546H103.474V29.5831Z" fill="white" stroke="white" stroke-miterlimit="10"/>
<path d="M79.1253 30.729H53.4023V34.0219H79.1253V30.729Z" fill="white" stroke="white" stroke-miterlimit="10"/>
<path d="M79.1386 24.1433H65.2593V27.4361H79.1386V24.1433Z" fill="white" stroke="white" stroke-miterlimit="10"/>
<path d="M79.1386 37.3148H65.2593V40.6076H79.1386V37.3148Z" fill="white" stroke="white" stroke-miterlimit="10"/>
<path d="M97.5253 111.049C99.1155 110.727 100.622 110.081 101.95 109.152C103.278 108.222 104.399 107.03 105.242 105.649C106.086 104.267 106.634 102.727 106.852 101.125C107.07 99.5226 106.954 97.8927 106.51 96.3375C106.066 94.7822 105.304 93.3351 104.273 92.0869C103.241 90.8388 101.962 89.8165 100.515 89.0842C99.0682 88.352 97.4852 87.9255 95.8653 87.8316C94.2453 87.7377 92.6233 87.9784 91.1011 88.5385V62.8147H83.5005C83.1013 60.0997 81.7364 57.618 79.6547 55.8217C77.573 54.0254 74.9129 53.034 72.1592 53.0283C71.228 53.0343 70.3008 53.1493 69.3965 53.3707C68.7103 50.9798 67.2612 48.8766 65.2686 47.3793C63.276 45.8821 60.8482 45.0722 58.3526 45.0722C55.8569 45.0722 53.4291 45.8821 51.4365 47.3793C49.4439 48.8766 47.9949 50.9798 47.3086 53.3707C46.3545 53.1233 45.3732 52.995 44.3873 52.9888C41.6313 52.9914 38.968 53.9813 36.8836 55.7778C34.7991 57.5744 33.4323 60.0579 33.0327 62.7752H25.0092V88.4859C23.7703 88.0448 22.465 87.8177 21.1494 87.8141C18.2251 87.7982 15.3995 88.8668 13.2223 90.8122C11.0451 92.7575 9.672 95.4403 9.37025 98.3387C9.06849 101.237 9.85964 104.144 11.5897 106.493C13.3198 108.842 15.8652 110.466 18.7304 111.049H0.660889V114.341H114.339V111.049H97.5253ZM95.1195 91.107C96.4277 91.0723 97.7263 91.3395 98.9137 91.8879C100.101 92.4362 101.145 93.2507 101.964 94.2678C102.783 95.2849 103.355 96.477 103.635 97.7508C103.915 99.0247 103.896 100.346 103.578 101.611C103.261 102.876 102.654 104.051 101.805 105.044C100.957 106.036 99.8892 106.82 98.6862 107.333C97.4831 107.847 96.1772 108.076 94.8706 108.003C93.5639 107.93 92.2919 107.557 91.154 106.913V92.1343C92.3718 91.4743 93.7333 91.1215 95.1195 91.107ZM83.3948 83.8627H87.7965V95.2692H83.3948V83.8627ZM80.0902 95.2692H28.3138V83.8627H80.0902V95.2692ZM80.1827 62.8147H64.1753C64.552 60.9766 65.5544 59.3245 67.0128 58.1381C68.4713 56.9516 70.2962 56.3036 72.179 56.3036C74.0618 56.3036 75.8867 56.9516 77.3451 58.1381C78.8036 59.3245 79.806 60.9766 80.1827 62.8147ZM58.3856 48.4051C60.2243 48.4024 62.0096 49.0209 63.4501 50.1596C64.8906 51.2983 65.9011 52.89 66.3166 54.6747C64.8505 55.5439 63.5973 56.7279 62.6484 58.1406C61.6994 59.5533 61.0786 61.1591 60.831 62.841H55.7419C55.503 61.1948 54.906 59.6204 53.9927 58.228C53.0794 56.8357 51.8719 55.6589 50.4546 54.7801C50.8471 52.9747 51.848 51.3576 53.2909 50.1978C54.7339 49.038 56.5317 48.4053 58.3856 48.4051ZM44.4138 56.308C46.2932 56.313 48.114 56.9606 49.572 58.1424C51.0299 59.3243 52.0367 60.9689 52.4241 62.8015H36.4034C36.7863 60.9667 37.7918 59.3192 39.2507 58.1365C40.7097 56.9539 42.533 56.3081 44.4138 56.308ZM87.7965 66.0944V80.583H83.3948V72.8513H80.0902V80.5698H28.3138V66.0812L87.7965 66.0944ZM12.6632 99.5499C12.6702 97.3105 13.5669 95.1651 15.1573 93.5829C16.7476 92.0007 18.9021 91.1104 21.1494 91.107C22.4939 91.1085 23.8181 91.4338 25.0092 92.0553V107.058C23.8186 107.681 22.4941 108.006 21.1494 108.006C18.8998 108.002 16.7433 107.11 15.1526 105.525C13.5619 103.94 12.6667 101.792 12.6632 99.5499ZM23.4362 111.049C23.9702 110.947 24.4959 110.806 25.0092 110.627V111.049H23.4362ZM28.3138 111.049V98.562H80.0902V101.091H83.3948V98.562H87.7965V111.049H28.3138ZM91.1011 110.574C91.6665 110.772 92.2452 110.931 92.8327 111.049H91.1011V110.574Z" fill="white" stroke="white" stroke-miterlimit="10"/>
<path d="M22.8678 94.5052H18.9155V97.7981H22.8678V94.5052Z" fill="white" stroke="white" stroke-miterlimit="10"/>
<path d="M97.3534 94.5052H93.4011V97.7981H97.3534V94.5052Z" fill="white" stroke="white" stroke-miterlimit="10"/>
</svg>
