<svg width="36" height="35" viewBox="0 0 36 35" fill="none" xmlns="http://www.w3.org/2000/svg">
<g filter="url(#filter0_d)">
<path d="M10.4243 8.57574C10.1899 8.34142 9.81005 8.34142 9.57574 8.57574C9.34142 8.81005 9.34142 9.18995 9.57574 9.42426L10.4243 8.57574ZM26.5757 26.4243C26.8101 26.6586 27.1899 26.6586 27.4243 26.4243C27.6586 26.1899 27.6586 25.8101 27.4243 25.5757L26.5757 26.4243ZM9.57574 9.42426L26.5757 26.4243L27.4243 25.5757L10.4243 8.57574L9.57574 9.42426Z" fill="white"/>
</g>
<g filter="url(#filter1_d)">
<path d="M9 26C15.6389 19.3611 19.3611 15.6389 26 9" stroke="white" stroke-width="1.2" stroke-linecap="round"/>
</g>
<defs>
<filter id="filter0_d" x="1.3999" y="0.399902" width="34.2" height="34.2" filterUnits="userSpaceOnUse" color-interpolation-filters="sRGB">
<feFlood flood-opacity="0" result="BackgroundImageFix"/>
<feColorMatrix in="SourceAlpha" type="matrix" values="0 0 0 0 0 0 0 0 0 0 0 0 0 0 0 0 0 0 127 0"/>
<feOffset/>
<feGaussianBlur stdDeviation="4"/>
<feColorMatrix type="matrix" values="0 0 0 0 1 0 0 0 0 1 0 0 0 0 1 0 0 0 1 0"/>
<feBlend mode="normal" in2="BackgroundImageFix" result="effect1_dropShadow"/>
<feBlend mode="normal" in="SourceGraphic" in2="effect1_dropShadow" result="shape"/>
</filter>
<filter id="filter1_d" x="0.399902" y="0.399902" width="34.2" height="34.2" filterUnits="userSpaceOnUse" color-interpolation-filters="sRGB">
<feFlood flood-opacity="0" result="BackgroundImageFix"/>
<feColorMatrix in="SourceAlpha" type="matrix" values="0 0 0 0 0 0 0 0 0 0 0 0 0 0 0 0 0 0 127 0"/>
<feOffset/>
<feGaussianBlur stdDeviation="4"/>
<feColorMatrix type="matrix" values="0 0 0 0 1 0 0 0 0 1 0 0 0 0 1 0 0 0 1 0"/>
<feBlend mode="normal" in2="BackgroundImageFix" result="effect1_dropShadow"/>
<feBlend mode="normal" in="SourceGraphic" in2="effect1_dropShadow" result="shape"/>
</filter>
</defs>
</svg>
