<svg width="28" height="28" viewBox="0 0 28 28" fill="none" xmlns="http://www.w3.org/2000/svg">
<path d="M21.3498 6.66168C21.1319 6.44322 20.8359 6.32044 20.5273 6.32044C20.2187 6.32044 19.9228 6.44322 19.7048 6.66168L13.9998 12.355L8.29484 6.65001C8.07687 6.43155 7.78095 6.30878 7.47234 6.30878C7.16374 6.30878 6.86781 6.43155 6.64984 6.65001C6.19484 7.10501 6.19484 7.84001 6.64984 8.29501L12.3548 14L6.64984 19.705C6.19484 20.16 6.19484 20.895 6.64984 21.35C7.10484 21.805 7.83984 21.805 8.29484 21.35L13.9998 15.645L19.7048 21.35C20.1598 21.805 20.8948 21.805 21.3498 21.35C21.8048 20.895 21.8048 20.16 21.3498 19.705L15.6448 14L21.3498 8.29501C21.7932 7.85168 21.7932 7.10501 21.3498 6.66168Z" fill="currentColor"/>
</svg>
