<svg xmlns="http://www.w3.org/2000/svg" viewBox="0 0 76.96 100.16"><defs></defs><path fill="#ffd243" d="M23.86,62.89a14.51,14.51,0,0,1-.76-4,2.37,2.37,0,0,1,0-.88c.56-1.6.8-3.31,1.75-4.73.5-.8.46-.88-.49-1-1.94-.32-3.77-1-5.69-1.46-2.38-.58-3.3-2.12-3.47-4.43a15.62,15.62,0,0,1,2.06-10.2c.36-.57.62-1.18,1-1.75.24-.39.27-.67-.21-.88-.2-.08-.37-.27-.57-.33A3.7,3.7,0,0,1,15.28,31a16.18,16.18,0,0,1-1.74-4.29A5.73,5.73,0,0,1,14,23.34a15.66,15.66,0,0,1,2.15-3.21,8,8,0,0,0,.64-.89c.38-.67.36-.87-.19-1.45a3.15,3.15,0,0,1-.76-2,6.92,6.92,0,0,1,1.26-4.93c.8-1,1.54-2.08,2.31-3.13a1.85,1.85,0,0,1,.66-.58c.52-.22.85-.13,1.09.39a2.86,2.86,0,0,1-.06,3.16c-.59.81-1.1,1.67-1.63,2.5-.12.19-.23.38-.34.58s-.29.72.14,1a.65.65,0,0,0,.9-.12l.07-.12a11.32,11.32,0,0,1,2.35-2,3.92,3.92,0,0,1,1.74-.65,2,2,0,0,1,2.05,1.21,9.52,9.52,0,0,1,.72,2.67,3.41,3.41,0,0,1-2.86,3.84,12.88,12.88,0,0,1-2.39.43,1.25,1.25,0,0,0-1,.49,37.26,37.26,0,0,0-2.15,3.2,9.05,9.05,0,0,0-1,3.16,1.6,1.6,0,0,0,1,2,6.45,6.45,0,0,1,.69.47c1.15.56,1.21.52,2.2-.34a16.54,16.54,0,0,1,6.2-3.63,11.18,11.18,0,0,1,4.49-.44,5.23,5.23,0,0,1,4.58,5.78,3.13,3.13,0,0,1-1.6,2.5A14.54,14.54,0,0,1,29,35.05a22.46,22.46,0,0,1-5.18.15,1,1,0,0,0-1,.48,19.53,19.53,0,0,0-2.49,4,7,7,0,0,0-.31,5.2,1.48,1.48,0,0,0,1,1,19.52,19.52,0,0,0,3.43.92c1.32.15,2.63.24,4,.45a1.32,1.32,0,0,0,1.2-.43l.54-.56a19.52,19.52,0,0,1,9.94-6.13,5.42,5.42,0,0,1,2.74-.14,3.79,3.79,0,0,1,2.61,3.14,12.72,12.72,0,0,1,.22,3.2,3,3,0,0,1-1.38,2.52,20.56,20.56,0,0,1-8.68,3.44c-1.21.15-2.42.27-3.64.35a2,2,0,0,0-1.45.67,14.92,14.92,0,0,0-3,4.89,5.57,5.57,0,0,0,0,3.38A1.76,1.76,0,0,0,28.64,63a22.87,22.87,0,0,0,6.11,1.39c1.78.16,3.19-.19,4-1.94A16.7,16.7,0,0,1,46,57.6a7,7,0,0,1,3.6.11c.57.13.79.8,1.17,1.14a8.1,8.1,0,0,1,1.89,3.35,1.11,1.11,0,0,1-.25,1.21,7.11,7.11,0,0,1-1.93,1.65,26.45,26.45,0,0,1-5.94,2.68c-1.3.41-1.51,1-.75,2.18a7.79,7.79,0,0,0,2.3,1.9,16.33,16.33,0,0,0,8.05,2.88c.62,0,.95.53,1.42.79a32.12,32.12,0,0,0,3.42,1.82c.22.1.54.18.49.52s-.33.36-.59.43c-.8.19-1.63.06-2.43.18-2.29.35-4.47-.29-6.67-.7a7,7,0,0,1-2.66-1.08,1.77,1.77,0,0,0-.69-.33,8.06,8.06,0,0,1-2.68-1.15c-1.07-.71-2.12-1.43-3.11-2.17a7.09,7.09,0,0,1-2.36-3.46c-.29-1-.31-1-1.35-1a58.81,58.81,0,0,1-6.08-.32,11,11,0,0,1-5.31-2,2,2,0,0,1-.54-.69A16.83,16.83,0,0,1,23.86,62.89Zm-7.76-18a4,4,0,0,0,2.59,5h0a66.53,66.53,0,0,0,7.73,1.9,28.39,28.39,0,0,0,7.48.22,17.47,17.47,0,0,0,3-.36A30.7,30.7,0,0,0,43,49.12a3.41,3.41,0,0,0,2-3.76c0-.4,0-.81-.08-1.22a3.13,3.13,0,0,0-.48-1.52c-.35.21-.39.53-.56.77a10.47,10.47,0,0,1-4.91,4,16.51,16.51,0,0,1-6,1c-2.22-.07-4.4-.39-6.61-.53a13.13,13.13,0,0,1-3.06-.36,39.15,39.15,0,0,1-6.71-2.48A.69.69,0,0,0,16.1,44.89Zm8.19,16.25c-.16.2-.06.43,0,.61a19.43,19.43,0,0,0,1.14,3.12,2,2,0,0,0,.4.52,8.36,8.36,0,0,0,4.72,2.27,48.18,48.18,0,0,0,9.68.23,21.09,21.09,0,0,0,8.52-2.56,12.49,12.49,0,0,0,2.4-1.59c.42-.37.87-.79.61-1.41A9.33,9.33,0,0,0,50.67,60c-.26-.37-.5-.48-.88-.1A17.07,17.07,0,0,1,42.69,64a21.21,21.21,0,0,1-6.77.86,22.11,22.11,0,0,1-5.37-.65c-1.23-.31-2.37-.87-3.52-1.21a3.79,3.79,0,0,1-2.23-1.49c-.14-.14-.26-.35-.53-.38ZM14.71,27.47a16.25,16.25,0,0,0,1.7,4.06,1.4,1.4,0,0,0,.55.53,16.31,16.31,0,0,0,6,2.34,17.79,17.79,0,0,0,5.5.08c2.39-.32,4.74-.68,6.79-2.11A1.61,1.61,0,0,0,36,31.15a4.86,4.86,0,0,0-.8-3.37,3,3,0,0,0-1.65-1.32,1.35,1.35,0,0,0,.16,1,2,2,0,0,1-.58,2.76h0a2.69,2.69,0,0,1-.29.16,7.05,7.05,0,0,1-5,1.3,2.45,2.45,0,0,0-.76-.07,13.72,13.72,0,0,1-5.14-.5,22.38,22.38,0,0,1-3.54-1.47,10.54,10.54,0,0,1-3.72-2.2ZM57.52,77.63a.44.44,0,0,0-.28-.3,14.87,14.87,0,0,1-2.56-1.49,3.18,3.18,0,0,0-1.4-.49,19.43,19.43,0,0,1-5.16-1.54,26,26,0,0,1-4.26-2.7A2.91,2.91,0,0,1,42.59,69c-.05-.73-.24-.78-.92-.76s-1.32.16-2,.24-.9.28-.68,1a6,6,0,0,0,1.4,2.48A25.15,25.15,0,0,0,52,77.62a26.42,26.42,0,0,0,5.48.12l.1-.15ZM30.43,47.5a11.57,11.57,0,0,0,3.32.21,2.18,2.18,0,0,0,1.5-.57,13.85,13.85,0,0,1,3.93-2.62A5.24,5.24,0,0,1,41.64,44c1.21.1,1.6-.19,2-1.35a1.45,1.45,0,0,0-.61-2,1.61,1.61,0,0,0-.81-.15A13.16,13.16,0,0,0,37.1,41.8a21.11,21.11,0,0,0-5.47,3.91A4.46,4.46,0,0,0,30.43,47.5ZM42.09,63.7A25.93,25.93,0,0,0,46,62a12.06,12.06,0,0,0,3.17-2.37c.58-.7.43-1.18-.46-1.48a3.76,3.76,0,0,0-2.5-.08,15.87,15.87,0,0,0-6.92,4.68,6.34,6.34,0,0,0-.65.89c-.2.37,0,.63.36.54C40.05,64,41.13,64.21,42.09,63.7ZM19,45c.07-.08.11-.1.12-.14a.65.65,0,0,0,0-.31,8.66,8.66,0,0,1,1.33-6.69c.45-.76,1-1.47,1.48-2.19.38-.52.31-.71-.27-.87s-.9-.3-1.35-.47a1.13,1.13,0,0,0-1.57.32.78.78,0,0,0-.11.2A18.85,18.85,0,0,0,16,41.45a2,2,0,0,0,.49,1.84A7,7,0,0,0,19,45Zm-2.1-31.8a6.6,6.6,0,0,0-.26,1.59c0,1.28.08,2.47,1.55,3,.09,0,.15.16.25.23a5.33,5.33,0,0,0,4.89,1l1.38-.43a2.51,2.51,0,0,0,1.76-3.08h0a2.38,2.38,0,0,0-.39-.76,1,1,0,0,0-.35.27,5.32,5.32,0,0,1-4,1.32,4.74,4.74,0,0,1-4.71-3l-.22-.08ZM27.75,26a16.61,16.61,0,0,0-3,1.4,2.33,2.33,0,0,0-.39.19c-.84.65-1.7,1.26-2.42,1.93-.49.43-.38.76.28.91s1.59.32,2.38.47a1.26,1.26,0,0,0,1.29-.4,10.62,10.62,0,0,1,2.62-2,9.77,9.77,0,0,1,3.31-1.21c.29,0,.63,0,.58-.49a1.29,1.29,0,0,0-1.25-1.17C30,25.76,28.83,25.48,27.75,26ZM26.42,62.15a1.25,1.25,0,0,0,.13-.31,1.31,1.31,0,0,0,0-.44,8.3,8.3,0,0,1,1.58-5.85c.42-.64.86-1.31,1.3-1.92s.32-.77-.4-.78a8.69,8.69,0,0,1-1.76-.18,1.48,1.48,0,0,0-1.7.7,10.84,10.84,0,0,0-1.66,5,1.85,1.85,0,0,0,.27,1.28A8.19,8.19,0,0,0,26.42,62.15ZM16.74,28a13.58,13.58,0,0,1,2.06-5.78L20,20.34c.12-.18.28-.46,0-.58a18.18,18.18,0,0,0-1.91-.85c-.23-.09-.39.13-.53.3-.74,1-1.49,2-2.22,3a7.9,7.9,0,0,0-1.09,2.17,1.38,1.38,0,0,0-.06,1A4.29,4.29,0,0,0,16.76,28Zm9.84,2.74a7.5,7.5,0,0,0,5.51-.66,1.74,1.74,0,0,0,.59-.49c.53-.64.34-1.16-.43-1.38a2,2,0,0,0-1,0,12.88,12.88,0,0,0-4.66,2.55Zm-6-15.62A4.51,4.51,0,0,0,25,14.53a1.49,1.49,0,0,0,.53-.71.71.71,0,0,0-.24-1,.5.5,0,0,0-.2-.08,1.44,1.44,0,0,0-.87-.09A6.91,6.91,0,0,0,20.54,15.09Zm-2.26-1.52A19.73,19.73,0,0,0,20.8,9.88a1.37,1.37,0,0,0-.11-1.37c-.2-.4-.49-.44-.77-.11-.55.64-1.09,1.3-1.6,2A2.57,2.57,0,0,0,18.28,13.57ZM38.1,47.06a7.15,7.15,0,0,0,3.34-1.81c.11-.13.32-.26.2-.46s-.3-.19-.49-.16a10,10,0,0,0-2.84,1,8.24,8.24,0,0,0-2.16,1.51c-.11.12-.18.25-.07.38a.38.38,0,0,0,.3.08c.66-.18,1.22-.37,1.77-.54Z"/><path fill="#ff39af" d="M67.2.39A5,5,0,0,0,65.57.05,10.89,10.89,0,0,0,60.4.81a29,29,0,0,0-5.07,2.48A6.37,6.37,0,0,0,53,6,8.75,8.75,0,0,0,52.1,9.2a1.47,1.47,0,0,1-.87,1.32,5.67,5.67,0,0,0-2.88,4.21,9.15,9.15,0,0,1-.53,2.48A3.62,3.62,0,0,0,48.2,21a22.91,22.91,0,0,0,1.47,1.79c.66.74.65.8-.06,1.4l-.34.28a7.48,7.48,0,0,0-2.61,5.77,8,8,0,0,1-.14,1.54,22.94,22.94,0,0,0-.2,5.3,4.77,4.77,0,0,0,1.37,2.81,24.23,24.23,0,0,0,4.12,3.16,1,1,0,0,1,.55,1.09,4.11,4.11,0,0,0,.42,2.48,16.76,16.76,0,0,0,2.46,3.77,21.5,21.5,0,0,0,3.86,3.13A23.43,23.43,0,0,0,63.53,56a18.76,18.76,0,0,1,2,.68,4.86,4.86,0,0,0,3.55.34,4.94,4.94,0,0,1,.77-.12c2.2,0,4.26-.88,6.43-1.11a1.08,1.08,0,0,0,.42-.13c.29-.18.28-.42,0-.61a2.09,2.09,0,0,0-1.06-.32c-.4,0-.8-.11-1.2-.2a50.44,50.44,0,0,1-6.35-1.92,23.22,23.22,0,0,1-6-3.31,10.66,10.66,0,0,1-2.71-2.93,10.47,10.47,0,0,0,2.15-.28,20.17,20.17,0,0,0,6.13-1.35c1.56-.64,2.68-1.48,2.54-3.7,0-1-.42-2.1-.57-3.15a1.89,1.89,0,0,0-1-1.3,5.57,5.57,0,0,1-.68-.37c-1.3-1.12-2.93-1.33-4.51-1.64a12.54,12.54,0,0,0-5.67.56A7.91,7.91,0,0,0,54.26,37a.69.69,0,0,1-1,.15l0,0h0c-2-1.15-2.41-1.88-2.27-4.22,0-.14,0-.29,0-.44.37-1.82,1-3.44,2.82-4.4a2.3,2.3,0,0,1,2.09,0,7.91,7.91,0,0,1,1.45.81c2,1.55,4.34,1.72,6.7,1.93a2.62,2.62,0,0,0,2.78-1.91,19,19,0,0,0,.91-3.3,1.79,1.79,0,0,0-.56-1.82,8.13,8.13,0,0,0-4.33-2.68c-2.47-.42-4.89-.81-7.34,0a1,1,0,0,1-1-.1,3.33,3.33,0,0,1-1.16-3.73A1.51,1.51,0,0,1,55.14,16a1.62,1.62,0,0,1,.59.25c.76.37,1.5.79,2.24,1.21a11.21,11.21,0,0,0,6.37,1.58,2.29,2.29,0,0,0,1.79-.95,8.25,8.25,0,0,0,1.62-3.65,2.75,2.75,0,0,0-1.3-3.23c-.59-.38-1.17-.76-1.73-1.2a7.5,7.5,0,0,0-5.15-1.68c-.8,0-1.61.13-2.42.15s-.79,0-.72-.74a9.51,9.51,0,0,1,.21-1.3,1.21,1.21,0,0,1,.67-.84,7.87,7.87,0,0,1,3.48-1,7.5,7.5,0,0,1,4.54,1.12c.58.39,1,.18,1.1-.51a11.27,11.27,0,0,1,1.23-3.78C68,1,67.81.67,67.2.39Zm.06,52.75a40.12,40.12,0,0,0,5.48,1.74,5.64,5.64,0,0,1,1.38.42c0,.25-.08.33-.19.35-1.24.21-2.44.54-3.67.76a11,11,0,0,1-5.42-.57,26.49,26.49,0,0,1-4.62-2.29,14,14,0,0,1-1.34-.94,14.83,14.83,0,0,1-4.83-5.07,4.84,4.84,0,0,1-1-2.52c0-.86.23-1.12,1-.63a15.24,15.24,0,0,0,3.82,1.71,1.42,1.42,0,0,1,.66.57A19.71,19.71,0,0,0,67.26,53.14ZM54.71,37.68c0-.57.6-.83,1-1,3.48-1.51,7-2.29,10.7-.6a9.36,9.36,0,0,1,1.62.94,1.39,1.39,0,0,1,.62,1.87l0,0a1.12,1.12,0,0,1-.29.36,2.11,2.11,0,0,1-2.7.69,5.37,5.37,0,0,0-3.35-.41,10.37,10.37,0,0,1-4,.25,3,3,0,0,0-.9-.33,6.54,6.54,0,0,0-1.59-.89C55.4,38.38,54.73,38.25,54.71,37.68Zm10,2.81c-.66.34-1.33.35-3.2,0A4,4,0,0,1,64.71,40.49Zm-8.87-1.26a6.59,6.59,0,0,0,.85.4.15.15,0,0,0,.15.13h0l.32,0,1.39.56a.15.15,0,0,0,.17-.06,14.42,14.42,0,0,0,7.58.79,5.57,5.57,0,0,0,2.23-1.17c.53-.39.68-.34.8.28a5.81,5.81,0,0,1-.06,2.42,1.26,1.26,0,0,1-.58.9,7.7,7.7,0,0,1-2.56,1.24c-1.66.38-3.32.72-4.95.94a5.7,5.7,0,0,1-1.65,0,15.78,15.78,0,0,1-6.24-2.41c-1-.64-2-1.33-2.95-2a15.36,15.36,0,0,1-2.54-2.36,2.73,2.73,0,0,1-.74-1.35,14.42,14.42,0,0,1,.11-5.36,1.15,1.15,0,0,1,.86.65,20.58,20.58,0,0,0,7.82,6.36ZM53.58,27.37a5.5,5.5,0,0,0-3.2,4.81c-.07.7-.08,1.4-.11,2.13l-.23.07a12.8,12.8,0,0,1-2.34-3.55A4.39,4.39,0,0,1,48.17,27a8.53,8.53,0,0,1,2.16-2.51.94.94,0,0,1,1.32,0l0,.07c.7.7,1.38,1.43,2.06,2.16.29.26.14.45-.16.59Zm3.12-5.93a13.24,13.24,0,0,1,4.86.09,4.42,4.42,0,0,0,1,.22c1.79.05,3,1.17,4,2.37a.89.89,0,0,1-.68,1.61,8.9,8.9,0,0,1-1.63-.14c-.86-.16-1.74-.28-2.61-.41a11,11,0,0,1-5.51-2.61C55.48,22.11,55.64,21.73,56.7,21.44ZM56,23.5a9.88,9.88,0,0,0,5.24,2.4c.91.17,1.81.36,2.72.46a5.67,5.67,0,0,0,2.89-.16,5.37,5.37,0,0,1-.41,2.06c-.82,1.64-1.49,1.94-2.92,1.81a11.67,11.67,0,0,1-5.34-1.61c-.47-.3-1-.53-1.47-.78a8.62,8.62,0,0,1-1.94-1.26,53.64,53.64,0,0,1-5.58-5.6,3.46,3.46,0,0,1-.73-3.41c.24-.69.42-1.39.68-2.3a13.35,13.35,0,0,0,3.22,4.47c1.21,1.33,2.31,2.72,3.61,3.93Zm-2.31-8a4.87,4.87,0,0,0-1.29,2.59C50.49,17,50,15.29,49.71,13.47c-.1-.64,1-1.88,1.69-2a.48.48,0,0,1,.61.33h0a8.88,8.88,0,0,0,1.55,2.89c.19.24.34.56,0,.81Zm3.84-6.21a22.9,22.9,0,0,1,3.1-.13,4.48,4.48,0,0,1,3,.88c.89.72,1.87,1.31,2.73,2,.6.47.55.78-.1,1.16a4.6,4.6,0,0,1-1.31.61,2.28,2.28,0,0,1-1.72,0,6.86,6.86,0,0,0-2-.41c-2.21,0-3.35-1.45-4.29-3.16-.36-.63-.16-.89.61-1ZM56.09,5.65c-.7,2.23-.88,4.35.91,6.3a21.72,21.72,0,0,0,2.53,2.26,5.15,5.15,0,0,0,4,.75,8.77,8.77,0,0,0,3.36-1.18,7,7,0,0,1-1.52,4,1.61,1.61,0,0,1-1.19.49A9.72,9.72,0,0,1,58.55,17l-2.74-1.42a5.53,5.53,0,0,1-3.09-5.33A8.65,8.65,0,0,1,54.42,5c.86-1.14,2.18-1.56,3.35-2.26A12.71,12.71,0,0,0,56,5.67ZM66.73,1.79A12.4,12.4,0,0,0,66,4.31c-.09.61-.36.72-1,.58a3.33,3.33,0,0,1-.63-.21,9.26,9.26,0,0,0-6.29-.26.93.93,0,0,1-.33,0,.11.11,0,0,0-.1-.07,1,1,0,0,1,.55-.73A15.83,15.83,0,0,1,62.64,1,9.09,9.09,0,0,1,66.24,1c.57.09.69.34.48.9Z"/><path fill="#3fed3f" d="M33.26,99.37a14.35,14.35,0,0,1-7.09.59A6.27,6.27,0,0,1,22.79,98a6.91,6.91,0,0,1-1.86-3.46c-.3-1-.3-1-1.22-.84-1.47.12-2.94.22-4.42.32a7,7,0,0,1-1.21,0,4.15,4.15,0,0,1-3.77-2.83c-.81-2-1.79-3.82-2.46-5.81a3.43,3.43,0,0,0-2.18-2.57A3.86,3.86,0,0,1,3.51,80.4C3,79.09,2.39,77.83,1.79,76.56A17.42,17.42,0,0,1,.65,64.17,35.1,35.1,0,0,1,2,60.62c.27-.62.61-.63,1-.08A29.19,29.19,0,0,0,5.68,63.6,1,1,0,0,1,6,64.76,21,21,0,0,0,5,73.29a17.5,17.5,0,0,0,.91,4.21,1.68,1.68,0,0,0,.4.77.8.8,0,0,0,.7.27c.24-.08.23-.36.26-.56a11.51,11.51,0,0,1,2-5.09A23.42,23.42,0,0,1,12.88,69a17.81,17.81,0,0,1,2.53-2c1.56-.89,2.32-.84,3.72.24a14.72,14.72,0,0,1,2.18,2.07,4,4,0,0,1,1,3.11,9.17,9.17,0,0,1-3.09,6.65,2.4,2.4,0,0,0-.4.38,11.87,11.87,0,0,1-5.07,3.26c-1.32.56-1.34.61-1.41,2a8.75,8.75,0,0,0,.62,3.15,1,1,0,0,0,.89.76,19.44,19.44,0,0,0,6.5-.28,1.15,1.15,0,0,0,.95-.82,21.67,21.67,0,0,1,3.86-6.29,6.22,6.22,0,0,1,3-2,2.19,2.19,0,0,1,1.89.26,5.94,5.94,0,0,1,2.34,3,19.06,19.06,0,0,1,.7,2.22,2,2,0,0,1-.53,2,11,11,0,0,1-2.9,2.39c-1.13.59-2.15,1.43-3.32,2a1.11,1.11,0,0,0-.6,1,3.07,3.07,0,0,0,2.68,3.35h.2a6.64,6.64,0,0,0,4.69-1.18A1.8,1.8,0,0,1,34.71,94a15,15,0,0,0,5.38-.34,5.11,5.11,0,0,1,.86-.2.57.57,0,0,1,.6.19c.17.27,0,.49-.17.7a1,1,0,0,1-.21.25c-1.87,1.35-3.47,3.1-5.68,4C34.82,98.89,34,99.05,33.26,99.37ZM9.77,88.07a9.57,9.57,0,0,0,1.26,3,4.52,4.52,0,0,0,4.66,2.24c1.66-.13,3.31-.3,5-.5a8.28,8.28,0,0,0,2-.62,44.9,44.9,0,0,0,6.81-3.63,11,11,0,0,0,2.51-2,1.63,1.63,0,0,0,.4-1.75l-.7-2.26a2,2,0,0,0-1-1.28c-.12.27-.22.47-.3.68a10.1,10.1,0,0,1-4.64,5,22.36,22.36,0,0,1-7.64,2.37,33.17,33.17,0,0,1-3.86,0,6.67,6.67,0,0,1-3.55-1.06A1.2,1.2,0,0,0,9.77,88.07ZM3.41,77.73l-.1.19.52,1.69a5,5,0,0,0,2.71,2.82c1.88.91,3.75.49,5.62.11A16.34,16.34,0,0,0,15.93,81a13.15,13.15,0,0,0,3.48-3,8,8,0,0,0,2.34-6,4.34,4.34,0,0,0-2.87-3.74c0,.9,0,1.77,0,2.66a9.12,9.12,0,0,1-4.84,8,7.57,7.57,0,0,1-6,.72,13.61,13.61,0,0,1-4.54-1.92Zm36.41,17c-.31-.31-.53-.18-.73-.16a22.89,22.89,0,0,1-3.2.26c-1.13,0-2.21-.2-3.1.7a.37.37,0,0,1-.21.06,13.49,13.49,0,0,1-4.46.63A4,4,0,0,1,25,93.55c-.15-.48.21-1.2-.35-1.4s-.93.38-1.41.56a3.38,3.38,0,0,0-.42.13c-1.24.59-1.33.75-.91,2.13a4.68,4.68,0,0,0,.17.53,6.26,6.26,0,0,0,5.78,3.94,15.44,15.44,0,0,0,6.37-1.07,19.68,19.68,0,0,0,5.6-3.72ZM16.94,71l.65-.21a.78.78,0,0,0,.68-.87A4.6,4.6,0,0,0,18,68c-.39-.93-.91-1.19-1.82-.76a7.85,7.85,0,0,0-1.6,1,33,33,0,0,0-4.41,4.51,11.67,11.67,0,0,0-2.26,5.46.75.75,0,0,0,.48.9l.17,0a8.49,8.49,0,0,0,1.88.12c1,0,1.26-.21,1.42-1.27a12.11,12.11,0,0,1,1.27-3.79A5.86,5.86,0,0,1,16.94,71ZM5.11,77.67c-.25-1.4-.53-2.63-.67-3.87a25.57,25.57,0,0,1,.64-8.58c.09-.36.23-.73,0-1-.72-.82-1.44-1.64-2.15-2.38-.24-.27-.46-.18-.61.11a8.25,8.25,0,0,0-.37.8,20.71,20.71,0,0,0-1.19,7,11.08,11.08,0,0,0,1.57,5.58A4.54,4.54,0,0,0,5.11,77.67ZM22,87.62a11.07,11.07,0,0,0,5.23-2.52,8.51,8.51,0,0,0,2.49-3.73A1,1,0,0,0,29.4,80l-.09,0a1,1,0,0,0-.73-.08A4.08,4.08,0,0,0,26.23,81,22.63,22.63,0,0,0,23,85.35,8.39,8.39,0,0,0,22,87.62Zm-5-16h0c-.27.11-.54.23-.8.36-2.45,1.4-3.28,3.74-3.62,6.36-.06.45.26.59.77.31A8.12,8.12,0,0,0,17.22,75a10.25,10.25,0,0,0,.92-2.82c.06-.53-.1-.67-.62-.59A3.55,3.55,0,0,0,17.06,71.65ZM12,87.89a37.13,37.13,0,0,1-.4-4.07c0-.34-.3-.38-.57-.35-.66.06-1.32.09-2,.17s-.81.25-.6,1A4.61,4.61,0,0,0,12,87.92Z"/></svg>
