<svg width="105" height="118" viewBox="0 0 105 118" fill="none" xmlns="http://www.w3.org/2000/svg">
<path d="M104.464 54.9822C103.739 46.8981 96.7903 40.529 88.3293 40.529C80.1168 40.529 73.3287 46.5281 72.2729 54.2742H69.7524C69.5485 53.0858 69.198 51.9519 68.7399 50.8724L70.896 44.2561L98.2398 20.4635C99.1126 19.7038 99.2048 18.3814 98.4451 17.5086C97.6854 16.6372 96.363 16.5437 95.4902 17.3033L73.4222 36.5044L84.4234 2.7454C84.7823 1.645 84.1804 0.462213 83.0814 0.104723C81.9782 -0.256955 80.7982 0.3491 80.4408 1.44671L67.2737 41.8542L64.0283 44.6778C61.2327 42.4505 57.6675 41.1127 53.7743 41.1127C45.7545 41.1127 39.1074 46.7529 37.8045 54.2728H35.1234C35.2043 53.6318 35.2546 52.9866 35.2546 52.3359C35.2546 43.6025 27.9805 36.4974 19.0405 36.4974C10.1005 36.4974 2.8278 43.6039 2.8278 52.3373C2.8278 52.988 2.87807 53.6332 2.95906 54.2742H2.09467C0.93841 54.2742 0 55.2126 0 56.3688C0 76.4678 11.3866 94.7627 28.8882 103.664C27.6831 104.638 26.9472 105.991 26.9472 107.507V111.958C26.9472 115 29.909 117.382 33.6892 117.382H71.308C75.0854 117.382 78.0444 115 78.0444 111.958V107.507C78.0444 105.991 77.3099 104.638 76.1048 103.664C93.6106 94.7627 105 76.4678 105 56.3688C105 55.834 104.793 55.3522 104.464 54.9822ZM88.3293 44.7183C94.2222 44.7183 99.1377 48.8462 100.16 54.2742H97.071C96.1088 50.4228 92.5549 47.5545 88.3293 47.5545C84.1078 47.5545 80.5636 50.4242 79.6015 54.2742H76.4986C77.5208 48.8462 82.4363 44.7183 88.3293 44.7183ZM92.6163 54.2742H84.0464C84.8409 52.7744 86.4622 51.7438 88.3293 51.7438C90.1977 51.7438 91.8204 52.7744 92.6163 54.2742ZM53.7757 45.3034C57.1676 45.3034 60.2244 46.658 62.4113 48.8406C62.4155 48.8448 62.4168 48.8504 62.421 48.8546C62.4392 48.8755 62.4601 48.8881 62.4783 48.9076C63.9278 50.3781 64.9877 52.213 65.482 54.2742H62.3358C61.1614 50.716 57.7206 48.141 53.7757 48.141C49.8293 48.141 46.3927 50.7174 45.2169 54.2742H42.0679C43.3121 49.0989 48.0824 45.3034 53.7757 45.3034ZM57.6815 54.2742H49.867C50.7468 53.097 52.1837 52.3303 53.7757 52.3303C55.3662 52.3303 56.8017 53.097 57.6815 54.2742ZM7.01713 52.3373C7.01713 45.9137 12.4116 40.6882 19.0419 40.6882C25.6722 40.6882 31.0667 45.9137 31.0667 52.3373C31.0667 52.9894 31.0108 53.6374 30.9019 54.2742H27.7934C27.9387 53.643 28.0392 52.9992 28.0392 52.3373C28.0392 47.4791 24.0021 43.5243 19.0419 43.5243C14.0817 43.5243 10.0474 47.4777 10.0474 52.3373C10.0474 53.0006 10.1466 53.643 10.2932 54.2742H7.18191C7.07299 53.6374 7.01713 52.9894 7.01713 52.3373ZM14.2367 52.3373C14.2367 49.7888 16.3929 47.7137 19.0419 47.7137C21.6924 47.7137 23.8499 49.7874 23.8499 52.3373C23.8499 53.0146 23.699 53.6709 23.4072 54.2742H14.6766C14.3876 53.6723 14.2367 53.0174 14.2367 52.3373ZM68.9704 102.208C68.0166 102.558 67.451 103.541 67.6284 104.542C67.8057 105.542 68.6743 106.271 69.6909 106.271H71.308C72.8888 106.271 73.8551 107.071 73.8551 107.507V111.958C73.8551 112.394 72.8888 113.193 71.308 113.193H33.6878C32.1042 113.193 31.1351 112.394 31.1351 111.958V107.507C31.1351 107.071 32.1042 106.271 33.6878 106.271H35.3021C36.3187 106.271 37.1873 105.542 37.3646 104.542C37.542 103.541 36.9764 102.558 36.0227 102.208C17.6329 95.4832 5.07188 78.071 4.23262 58.4635H5.5383H13.5246H24.5593H32.5455H39.6702H46.901H60.6503H60.6783H67.8811C67.8909 58.4621 67.9021 58.4621 67.9091 58.4635H74.2126H81.4322H95.2361H95.264H100.769C99.9267 78.071 87.3629 95.4818 68.9704 102.208Z" fill="white"/>
</svg>
