<svg viewBox="0 0 27 21" fill="none" xmlns="http://www.w3.org/2000/svg">
<g>
<path d="M11.5 17C15.0899 17 18 14.0899 18 10.5C18 6.91015 15.0899 4 11.5 4C7.91015 4 5 6.91015 5 10.5C5 14.0899 7.91015 17 11.5 17Z" stroke="white" stroke-width="0.8" stroke-miterlimit="10" stroke-linejoin="round"/>
<path d="M17.5207 12.9568H14.0737H8.94592H5.47925" stroke="white" stroke-width="0.8" stroke-miterlimit="10" stroke-linejoin="round"/>
<path d="M5.48584 8.03931H8.94594H14.0737H17.5141" stroke="white" stroke-width="0.8" stroke-miterlimit="10" stroke-linejoin="round"/>
<path d="M11.5 4C11.5 4 8.55469 6.59212 8.55469 10.5C8.55469 14.4079 11.5 17 11.5 17" stroke="white" stroke-width="0.8" stroke-miterlimit="10" stroke-linejoin="round"/>
<path d="M11.521 4C11.521 4 14.4663 6.59212 14.4663 10.5C14.4663 14.4079 11.521 17 11.521 17" stroke="white" stroke-width="0.8" stroke-miterlimit="10" stroke-linejoin="round"/>
</g>
</svg>
