<svg width="29" height="31" viewBox="0 0 29 31" fill="none" xmlns="http://www.w3.org/2000/svg">
<g filter="url(#filter1_d)">
<path d="M12.6532 21.9993C11.099 21.6401 9 20.43 9 18.4623C9 16.4945 10.3596 14.1768 10.6421 13.9337C10.6623 14.5526 10.9783 15.942 11.1799 16.2069C11.0683 13.864 14.4997 12.7522 13.2182 9C15.3374 9.35397 16.4529 12.5988 16.3524 14.2352C16.6049 12.8313 17.315 12.3611 17.8605 12.2283C17.8605 15.2081 20 15.1909 20 17.7331C19.9595 20.1206 17.7999 22 15.802 22C16.9028 20.9308 16.7695 19.3462 16.2045 18.4284C16.1034 19.1908 15.2572 19.9552 14.7724 19.9658C15.2161 18.5951 14.5024 17.1128 13.8572 16.7369C13.6235 19.1696 11.3187 19.0766 12.6532 21.9993Z" stroke="#FFD243" stroke-miterlimit="10" stroke-linecap="round" stroke-linejoin="round"/>
</g>
<defs>
<filter id="filter1_d" x="0.5" y="0.5" width="28" height="30" filterUnits="userSpaceOnUse" color-interpolation-filters="sRGB">
<feColorMatrix in="SourceAlpha" type="matrix" values="0 0 0 0 0 0 0 0 0 0 0 0 0 0 0 0 0 0 127 0"/>
<feOffset/>
<feGaussianBlur stdDeviation="4"/>
<feColorMatrix type="matrix" values="0 0 0 0 1 0 0 0 0 0.823529 0 0 0 0 0.262745 0 0 0 1 0"/>
<feBlend mode="normal" in="SourceGraphic" in2="effect1_dropShadow" result="shape"/>
</filter>
</defs>
</svg>
