<svg width="188" height="56" viewBox="0 0 188 56" fill="none" xmlns="http://www.w3.org/2000/svg">
<path d="M181.311 56H6.58557C2.95508 56 0 53.0208 0 49.3738V6.6164C0 2.968 2.95508 0 6.58557 0H181.311C184.94 0 188 2.968 188 6.6164V49.3738C188 53.0208 184.94 56 181.311 56Z" fill="#A6A6A6"/>
<path d="M186.137 48.8941C186.137 51.7887 183.764 54.1334 180.83 54.1334H7.1728C4.23997 54.1334 1.85938 51.7887 1.85938 48.8941V7.11279C1.85938 4.21957 4.23997 1.8667 7.1728 1.8667H180.829C183.764 1.8667 186.135 4.21957 186.135 7.11279L186.137 48.8941Z" fill="black"/>
<path d="M99.0411 18.5245C97.7856 18.5245 96.7273 18.0812 95.8903 17.2083C95.0603 16.36 94.5968 15.1904 94.6176 13.9964C94.6176 12.7221 95.0464 11.6433 95.8903 10.7879C96.7238 9.91507 97.7822 9.47168 99.0376 9.47168C100.279 9.47168 101.338 9.91507 102.188 10.7879C103.032 11.6712 103.461 12.75 103.461 13.9964C103.447 15.2742 103.018 16.353 102.188 17.2048C101.355 18.0846 100.297 18.5245 99.0411 18.5245ZM61.6852 18.5245C60.4575 18.5245 59.3922 18.0881 58.5207 17.2258C57.656 16.3669 57.2168 15.2812 57.2168 13.9999C57.2168 12.7186 57.656 11.6328 58.5207 10.7739C59.3749 9.91158 60.4402 9.47517 61.6852 9.47517C62.294 9.47517 62.8854 9.59737 63.4526 9.84525C64.0094 10.0861 64.4625 10.4143 64.7979 10.8158L64.8809 10.9171L63.9437 11.8457L63.8468 11.7305C63.3177 11.0951 62.6087 10.7844 61.6714 10.7844C60.8344 10.7844 60.1047 11.0846 59.5029 11.6782C58.8977 12.2752 58.5898 13.0572 58.5898 14.0034C58.5898 14.9495 58.8977 15.7315 59.5029 16.3285C60.1047 16.9221 60.8344 17.2223 61.6714 17.2223C62.5637 17.2223 63.3142 16.9221 63.8987 16.3285C64.2446 15.9794 64.459 15.4906 64.5351 14.8727H61.5296V13.5669H65.8251L65.8424 13.6856C65.8736 13.9056 65.9047 14.1325 65.9047 14.342C65.9047 15.5465 65.545 16.5206 64.8325 17.2398C64.0232 18.0916 62.9649 18.5245 61.6852 18.5245ZM111.354 18.3395H110.029L105.972 11.7864L106.007 12.9664V18.336H104.682V9.66021H106.193L106.235 9.72654L110.05 15.8991L110.015 14.7226V9.66021H111.354V18.3395ZM89.0874 18.3395H87.7454V10.9659H85.4178V9.66021H91.4115V10.9659H89.0839V18.3395H89.0874ZM84.3249 18.3395H82.9865V9.66021H84.3249V18.3395ZM76.8026 18.3395H75.4641V10.9659H73.1365V9.66021H79.1302V10.9659H76.8026V18.3395ZM72.2892 18.3255H67.1567V9.66021H72.2892V10.9659H68.4986V13.347H71.9191V14.6388H68.4986V17.0198H72.2892V18.3255ZM96.8726 16.3111C97.4709 16.9151 98.1972 17.2188 99.0411 17.2188C99.9092 17.2188 100.618 16.9221 101.21 16.3111C101.798 15.7176 102.095 14.939 102.095 13.9999C102.095 13.0607 101.798 12.2787 101.213 11.6886C100.615 11.0846 99.885 10.7809 99.0445 10.7809C98.1764 10.7809 97.4674 11.0777 96.8795 11.6886C96.2915 12.2822 95.9941 13.0607 95.9941 13.9999C95.9941 14.939 96.2881 15.7211 96.8726 16.3111Z" fill="white"/>
<path fill-rule="evenodd" clip-rule="evenodd" d="M94.4923 30.4577C91.2239 30.4577 88.5747 32.9609 88.5747 36.4138C88.5747 39.8352 91.2412 42.3699 94.4923 42.3699C97.7606 42.3699 100.41 39.8492 100.41 36.4138C100.41 32.9609 97.7606 30.4577 94.4923 30.4577ZM94.4923 40.0098C92.7042 40.0098 91.1651 38.5155 91.1651 36.3998C91.1651 34.2527 92.7077 32.7899 94.4923 32.7899C96.2803 32.7899 97.8194 34.2527 97.8194 36.3998C97.8229 38.5295 96.2803 40.0098 94.4923 40.0098ZM81.5815 30.4577C78.3132 30.4577 75.6639 32.9609 75.6639 36.4138C75.6639 39.8352 78.3305 42.3699 81.5815 42.3699C84.8498 42.3699 87.4991 39.8492 87.4991 36.4138C87.4991 32.9609 84.8464 30.4577 81.5815 30.4577ZM81.5815 40.0098C79.7934 40.0098 78.2544 38.5155 78.2544 36.3998C78.2544 34.2527 79.7969 32.7899 81.5815 32.7899C83.3696 32.7899 84.9086 34.2527 84.9086 36.3998C84.9086 38.5295 83.3696 40.0098 81.5815 40.0098ZM66.2186 32.2766V34.7973H72.2123C72.029 36.2113 71.5655 37.2552 70.8565 37.9709C69.978 38.8577 68.6223 39.8213 66.2324 39.8213C62.5491 39.8213 59.6681 36.8188 59.6681 33.1006C59.6681 29.3824 62.5491 26.3799 66.2324 26.3799C68.2211 26.3799 69.6702 27.1724 70.7458 28.1849L72.5166 26.3973C71.0225 24.9519 69.0339 23.8452 66.2463 23.8452C61.1933 23.8452 56.9531 27.9998 56.9531 33.0866C56.9531 38.1874 61.1899 42.328 66.2463 42.328C68.9751 42.328 71.0225 41.4273 72.6411 39.7305C74.2909 38.0652 74.8131 35.7155 74.8131 33.8198C74.8131 33.2298 74.7681 32.6991 74.6748 32.2487H66.2151C66.2186 32.2452 66.2186 32.2766 66.2186 32.2766ZM129.057 34.2387C128.562 32.9016 127.068 30.4437 124.004 30.4437C120.968 30.4437 118.443 32.8562 118.443 36.3998C118.443 39.7445 120.94 42.3559 124.298 42.3559C126.996 42.3559 128.566 40.6906 129.213 39.7131L127.21 38.3584C126.546 39.3534 125.623 40.0063 124.312 40.0063C122.987 40.0063 122.06 39.3988 121.445 38.2013L129.334 34.9021C129.334 34.9056 129.057 34.2387 129.057 34.2387ZM121.012 36.2288C120.95 33.928 122.783 32.7584 124.094 32.7584C125.128 32.7584 125.989 33.2717 126.283 34.0188L121.012 36.2288ZM114.604 41.9998H117.194V24.5016H114.604V41.9998ZM110.35 31.7809H110.256C109.672 31.0791 108.562 30.4437 107.144 30.4437C104.2 30.4437 101.489 33.0587 101.489 36.4173C101.489 39.7619 104.187 42.3455 107.144 42.3455C108.544 42.3455 109.672 41.7066 110.256 40.9909H110.35V41.8462C110.35 44.119 109.146 45.3445 107.206 45.3445C105.618 45.3445 104.633 44.1924 104.232 43.2288L101.98 44.1784C102.627 45.7495 104.353 47.6941 107.202 47.6941C110.239 47.6941 112.812 45.8891 112.812 41.4866V30.7998H110.364V31.7809C110.367 31.7809 110.35 31.7809 110.35 31.7809ZM107.375 40.0098C105.587 40.0098 104.093 38.5016 104.093 36.4173C104.093 34.3155 105.587 32.7933 107.375 32.7933C109.146 32.7933 110.519 34.333 110.519 36.4173C110.537 38.5016 109.15 40.0098 107.375 40.0098ZM141.186 24.5016H134.992V41.9998H137.582V35.3734H141.19C144.057 35.3734 146.876 33.2751 146.876 29.9445C146.876 26.6138 144.067 24.5016 141.186 24.5016ZM141.262 32.9295H137.579V26.9245H141.262C143.203 26.9245 144.299 28.541 144.299 29.927C144.299 31.2991 143.189 32.9295 141.262 32.9295ZM157.258 30.4263C155.377 30.4263 153.436 31.2677 152.634 33.1006L154.931 34.0642C155.425 33.1006 156.331 32.7724 157.289 32.7724C158.631 32.7724 159.987 33.5824 160.018 35.0278V35.2128C159.555 34.9475 158.538 34.5425 157.32 34.5425C154.841 34.5425 152.326 35.9111 152.326 38.4771C152.326 40.8268 154.36 42.335 156.625 42.335C158.365 42.335 159.323 41.5425 159.921 40.6243H160.015V41.9789H162.512V35.2756C162.512 32.1544 160.215 30.4263 157.258 30.4263ZM156.933 40.0098C156.086 40.0098 154.899 39.5909 154.899 38.5155C154.899 37.1609 156.38 36.6477 157.642 36.6477C158.783 36.6477 159.323 36.8956 160.001 37.2377C159.814 38.8088 158.5 39.9958 156.933 40.0098ZM171.621 30.7998L168.647 38.3899H168.554L165.472 30.7998H162.685L167.309 41.4098L164.673 47.3066H167.371L174.485 30.7998H171.621ZM148.304 41.9998H150.894V24.5016H148.304V41.9998Z" fill="white"/>
<path fill-rule="evenodd" clip-rule="evenodd" d="M14.4689 10.547C14.0677 10.9834 13.8359 11.6503 13.8359 12.5231V43.4802C13.8359 44.353 14.0677 45.0198 14.4827 45.4388L14.5899 45.5331L31.772 28.1884V27.8009L14.5761 10.4528L14.4689 10.547Z" fill="url(#paint0_linear)"/>
<path fill-rule="evenodd" clip-rule="evenodd" d="M37.4906 33.9874L31.7598 28.2024V27.7974L37.4906 22.0123L37.6151 22.0891L44.3939 25.9784C46.3341 27.0817 46.3341 28.9041 44.3939 30.0213L37.6151 33.9106L37.4906 33.9874Z" fill="url(#paint1_linear)"/>
<path fill-rule="evenodd" clip-rule="evenodd" d="M37.6134 33.9107L31.758 28L14.4688 45.4529C15.1017 46.1372 16.1634 46.214 17.3497 45.5471L37.6134 33.9107Z" fill="url(#paint2_linear)"/>
<path fill-rule="evenodd" clip-rule="evenodd" d="M37.6134 22.0893L17.3497 10.4703C16.1634 9.78605 15.0982 9.88032 14.4688 10.5646L31.758 28L37.6134 22.0893Z" fill="url(#paint3_linear)"/>
<path opacity="0.2" fill-rule="evenodd" clip-rule="evenodd" d="M37.4927 33.7853L17.3673 45.3274C16.2433 45.9803 15.2403 45.9349 14.5935 45.3414L14.4863 45.4496L14.5935 45.5439C15.2403 46.1339 16.2433 46.1828 17.3673 45.5299L37.631 33.911L37.4927 33.7853Z" fill="black"/>
<path opacity="0.12" fill-rule="evenodd" clip-rule="evenodd" d="M44.3932 29.819L37.4727 33.785L37.5972 33.9107L44.3759 30.0214C45.3478 29.4628 45.8251 28.7297 45.8251 28C45.7663 28.6703 45.2717 29.3057 44.3932 29.819Z" fill="black"/>
<path opacity="0.25" fill-rule="evenodd" clip-rule="evenodd" d="M17.3498 10.6727L44.3922 26.1809C45.2707 26.6802 45.7653 27.3331 45.8414 27.9999C45.8414 27.2702 45.3641 26.537 44.3922 25.9784L17.3498 10.4702C15.4096 9.34952 13.8359 10.2852 13.8359 12.5231V12.7256C13.8359 10.4842 15.4096 9.56598 17.3498 10.6727Z" fill="white"/>
<defs>
<linearGradient id="paint0_linear" x1="30.231" y1="12.1898" x2="2.67423" y2="19.4636" gradientUnits="userSpaceOnUse">
<stop stop-color="#00A0FF"/>
<stop offset="0.0066" stop-color="#00A1FF"/>
<stop offset="0.2601" stop-color="#00BEFF"/>
<stop offset="0.5122" stop-color="#00D2FF"/>
<stop offset="0.7604" stop-color="#00DFFF"/>
<stop offset="1" stop-color="#00E3FF"/>
</linearGradient>
<linearGradient id="paint1_linear" x1="46.9241" y1="27.9999" x2="13.3659" y2="27.9999" gradientUnits="userSpaceOnUse">
<stop stop-color="#FFE000"/>
<stop offset="0.4087" stop-color="#FFBD00"/>
<stop offset="0.7754" stop-color="#FFA500"/>
<stop offset="1" stop-color="#FF9C00"/>
</linearGradient>
<linearGradient id="paint2_linear" x1="34.428" y1="31.2154" x2="12.0239" y2="68.5699" gradientUnits="userSpaceOnUse">
<stop stop-color="#FF3A44"/>
<stop offset="1" stop-color="#C31162"/>
</linearGradient>
<linearGradient id="paint3_linear" x1="10.1152" y1="0.250224" x2="20.1106" y2="16.9334" gradientUnits="userSpaceOnUse">
<stop stop-color="#32A071"/>
<stop offset="0.0685" stop-color="#2DA771"/>
<stop offset="0.4762" stop-color="#15CF74"/>
<stop offset="0.8009" stop-color="#06E775"/>
<stop offset="1" stop-color="#00F076"/>
</linearGradient>
</defs>
</svg>
