<svg xmlns="http://www.w3.org/2000/svg" xmlns:xlink="http://www.w3.org/1999/xlink" viewBox="0 0 10.67 10.66"><defs><radialGradient id="Degradado_sin_nombre_3" cx="-142.75" cy="146.15" r="1" gradientTransform="matrix(0, -10.57, -9.83, 0, 1439.81, -1497.2)" gradientUnits="userSpaceOnUse"><stop offset="0" stop-color="#fd5"/><stop offset="0.1" stop-color="#fd5"/><stop offset="0.5" stop-color="#ff543e"/><stop offset="1" stop-color="#c837ab"/></radialGradient><radialGradient id="Degradado_sin_nombre_2" cx="-13.1" cy="179.91" r="1" gradientTransform="matrix(0.93, 4.63, 19.1, -3.82, -3425.76, 749.43)" gradientUnits="userSpaceOnUse"><stop offset="0" stop-color="#3771c8"/><stop offset="0.13" stop-color="#3771c8"/><stop offset="1" stop-color="#60f" stop-opacity="0"/></radialGradient></defs><path style="fill:url(#Degradado_sin_nombre_3);" d="M5.34,0h-3a2.56,2.56,0,0,0-1,.27A1.93,1.93,0,0,0,.67.73,2.24,2.24,0,0,0,.05,2,8.77,8.77,0,0,0,0,3.6V5.33c0,2.22,0,2.88,0,3a2.63,2.63,0,0,0,.26,1,2.22,2.22,0,0,0,1.45,1.19,3.37,3.37,0,0,0,.78.1H8.15a3.75,3.75,0,0,0,.8-.11,2.32,2.32,0,0,0,.86-.43,2.3,2.3,0,0,0,.59-.76,2.67,2.67,0,0,0,.26-1c0-.09,0-1.56,0-3s0-2.93,0-3a2.68,2.68,0,0,0-.26-1A2,2,0,0,0,9.94.67,2.24,2.24,0,0,0,8.64.05,8.51,8.51,0,0,0,7.07,0Z"/><path style="fill:url(#Degradado_sin_nombre_2);" d="M5.34,0h-3a2.56,2.56,0,0,0-1,.27A1.93,1.93,0,0,0,.67.73,2.24,2.24,0,0,0,.05,2,8.77,8.77,0,0,0,0,3.6V5.33c0,2.22,0,2.88,0,3a2.63,2.63,0,0,0,.26,1,2.22,2.22,0,0,0,1.45,1.19,3.37,3.37,0,0,0,.78.1H8.15a3.75,3.75,0,0,0,.8-.11,2.32,2.32,0,0,0,.86-.43,2.3,2.3,0,0,0,.59-.76,2.67,2.67,0,0,0,.26-1c0-.09,0-1.56,0-3s0-2.93,0-3a2.68,2.68,0,0,0-.26-1A2,2,0,0,0,9.94.67,2.24,2.24,0,0,0,8.64.05,8.51,8.51,0,0,0,7.07,0Z"/><path style="fill:#fff;" d="M5.33,1.39c-1.07,0-1.2,0-1.62,0a2.87,2.87,0,0,0-1,.18,1.82,1.82,0,0,0-.69.46,1.82,1.82,0,0,0-.46.69,2.87,2.87,0,0,0-.18,1c0,.42,0,.55,0,1.62s0,1.21,0,1.63a2.86,2.86,0,0,0,.18,1,1.93,1.93,0,0,0,.46.7,1.79,1.79,0,0,0,.69.45,2.85,2.85,0,0,0,1,.19c.42,0,.55,0,1.62,0s1.21,0,1.63,0a2.84,2.84,0,0,0,1-.19A2,2,0,0,0,9.06,7.91a2.84,2.84,0,0,0,.19-1c0-.42,0-.56,0-1.63s0-1.2,0-1.62a2.85,2.85,0,0,0-.19-1,1.79,1.79,0,0,0-.45-.69,1.93,1.93,0,0,0-.7-.46,2.87,2.87,0,0,0-1-.18c-.42,0-.55,0-1.62,0ZM5,2.1h.35c1,0,1.18,0,1.59,0a2,2,0,0,1,.73.13,1.19,1.19,0,0,1,.46.3A1.13,1.13,0,0,1,8.4,3a2.08,2.08,0,0,1,.14.73c0,.42,0,.54,0,1.59s0,1.18,0,1.59a2,2,0,0,1-.14.73,1.16,1.16,0,0,1-.29.46,1.29,1.29,0,0,1-.46.29,2.22,2.22,0,0,1-.73.14c-.41,0-.54,0-1.59,0s-1.17,0-1.59,0A2.35,2.35,0,0,1,3,8.4a1.34,1.34,0,0,1-.45-.29,1.19,1.19,0,0,1-.3-.46,2.09,2.09,0,0,1-.13-.73c0-.41,0-.54,0-1.59s0-1.18,0-1.59A2.15,2.15,0,0,1,2.26,3a1.08,1.08,0,0,1,.3-.45A1.23,1.23,0,0,1,3,2.26a2.15,2.15,0,0,1,.73-.13c.36,0,.51,0,1.24,0Zm2.45.66a.5.5,0,0,0-.26.08A.39.39,0,0,0,7,3.05a.42.42,0,0,0,0,.27.44.44,0,0,0,.13.24.41.41,0,0,0,.24.13.54.54,0,0,0,.28,0,.52.52,0,0,0,.21-.18.47.47,0,0,0-.4-.73Zm-2.1.55a2,2,0,1,0,2,2,2,2,0,0,0-2-2Zm0,.71A1.31,1.31,0,1,1,4,5.33,1.32,1.32,0,0,1,5.33,4Z"/></svg>
