<svg viewBox="0 0 17 18" fill="none" xmlns="http://www.w3.org/2000/svg">
<path d="M8.13082 2.2118C10.3018 2.2118 10.5588 2.22036 11.4164 2.25998C12.2091 2.29674 12.6395 2.43165 12.9261 2.54514C13.3055 2.69539 13.5763 2.87491 13.8608 3.16435C14.1452 3.45415 14.3215 3.73004 14.4689 4.11655C14.5803 4.4085 14.7127 4.84676 14.7487 5.65406C14.788 6.52703 14.7962 6.789 14.7962 8.99997C14.7962 11.2109 14.788 11.4725 14.7487 12.3459C14.7127 13.1532 14.5803 13.5914 14.4689 13.8834C14.3215 14.2699 14.1452 14.5458 13.8608 14.8356C13.5763 15.1254 13.3055 15.3049 12.9261 15.4548C12.6395 15.5683 12.2091 15.7032 11.4164 15.74C10.5591 15.7799 10.3022 15.7881 8.13082 15.7881C5.95946 15.7881 5.70249 15.7796 4.84523 15.74C4.05256 15.7032 3.62214 15.5683 3.33556 15.4548C2.95617 15.3045 2.68529 15.125 2.40084 14.8356C2.1164 14.5458 1.94009 14.2699 1.79269 13.8834C1.68134 13.5914 1.54893 13.1532 1.51288 12.3459C1.47363 11.4729 1.46542 11.2109 1.46542 8.99997C1.46542 6.789 1.47363 6.52739 1.51288 5.65406C1.54893 4.84676 1.68134 4.4085 1.79269 4.11655C1.94009 3.73004 2.1164 3.45415 2.40084 3.16435C2.68529 2.87455 2.95617 2.69504 3.33556 2.54514C3.62214 2.43165 4.05256 2.29674 4.84523 2.25998C5.70285 2.22036 5.95982 2.2118 8.13082 2.2118ZM8.13082 0.719971C5.9227 0.719971 5.64575 0.729607 4.77849 0.769936C3.91301 0.810265 3.32199 0.950169 2.80485 1.15467C2.27022 1.36631 1.8166 1.64933 1.36477 2.10973C0.912584 2.57012 0.634919 3.03195 0.426848 3.57621C0.225916 4.10299 0.0885104 4.70472 0.0488949 5.58625C0.00927934 6.46957 0 6.75152 0 8.99997C0 11.2488 0.00927934 11.5307 0.0488949 12.4137C0.0885104 13.2949 0.225916 13.8969 0.426848 14.4237C0.634562 14.9684 0.912584 15.4298 1.36477 15.8902C1.81696 16.3506 2.27022 16.6336 2.80485 16.8453C3.32199 17.0501 3.91301 17.19 4.77849 17.23C5.64575 17.2703 5.9227 17.28 8.13082 17.28C10.3389 17.28 10.6159 17.2703 11.4831 17.23C12.3486 17.1897 12.9396 17.0498 13.4568 16.8453C13.9914 16.6336 14.445 16.3506 14.8969 15.8902C15.349 15.4298 15.6267 14.968 15.8348 14.4237C16.0357 13.8969 16.1731 13.2952 16.2127 12.4137C16.2524 11.5304 16.2616 11.2484 16.2616 8.99997C16.2616 6.75152 16.2524 6.46922 16.2127 5.58625C16.1731 4.70508 16.0357 4.10299 15.8348 3.57621C15.6271 3.03159 15.349 2.57012 14.8969 2.10973C14.4447 1.64933 13.9914 1.36631 13.4568 1.15467C12.9396 0.949812 12.3486 0.809908 11.4831 0.769936C10.6159 0.729607 10.3389 0.719971 8.13082 0.719971Z" fill="white"/>
<path d="M8.1309 4.74829C5.82499 4.74829 3.95557 6.65198 3.95557 9.00036C3.95557 11.3487 5.82499 13.2524 8.1309 13.2524C10.4368 13.2524 12.3062 11.3487 12.3062 9.00036C12.3062 6.65198 10.4368 4.74829 8.1309 4.74829ZM8.1309 11.7602C6.63407 11.7602 5.42063 10.5247 5.42063 9.00036C5.42063 7.47605 6.63407 6.24048 8.1309 6.24048C9.62772 6.24048 10.8412 7.47605 10.8412 9.00036C10.8412 10.5247 9.62772 11.7602 8.1309 11.7602Z" fill="white"/>
<path d="M12.4714 5.57375C13.0103 5.57375 13.4471 5.1289 13.4471 4.58015C13.4471 4.0314 13.0103 3.58655 12.4714 3.58655C11.9325 3.58655 11.4956 4.0314 11.4956 4.58015C11.4956 5.1289 11.9325 5.57375 12.4714 5.57375Z" fill="white"/>
</svg>
