<svg width="61" height="27" viewBox="0 0 61 27" fill="none" xmlns="http://www.w3.org/2000/svg">
<g filter="url(#filter0_d)">
<path d="M13.525 16.8028H8.61105V8.87882H9.49305V15.7108C9.49305 15.8718 9.62605 16.0048 9.78705 16.0048C9.94805 16.0048 10.081 15.8718 10.081 15.7108V8.58482C10.081 8.42382 9.94805 8.29082 9.78705 8.29082H8.31705C8.15605 8.29082 8.02305 8.42382 8.02305 8.58482V17.0968C8.02305 17.2578 8.15605 17.3908 8.31705 17.3908H13.231V18.1888H8.31705C8.15605 18.1888 8.02305 18.3218 8.02305 18.4828C8.02305 18.6438 8.15605 18.7768 8.31705 18.7768H13.525C13.686 18.7768 13.819 18.6438 13.819 18.4828V17.0968C13.819 16.9358 13.686 16.8028 13.525 16.8028ZM17.6867 10.2648C17.8477 10.2648 17.9807 10.1318 17.9807 9.97082V8.58482C17.9807 8.42382 17.8477 8.29082 17.6867 8.29082H16.2167C16.0557 8.29082 15.9227 8.42382 15.9227 8.58482C15.9227 8.74582 16.0557 8.87882 16.2167 8.87882H17.3927V9.67682H16.2167C16.0557 9.67682 15.9227 9.80982 15.9227 9.97082V18.4828C15.9227 18.6438 16.0557 18.7768 16.2167 18.7768H17.6867C17.8477 18.7768 17.9807 18.6438 17.9807 18.4828V11.3568C17.9807 11.1958 17.8477 11.0628 17.6867 11.0628C17.5257 11.0628 17.3927 11.1958 17.3927 11.3568V18.1888H16.5107V10.2648H17.6867ZM27.0326 8.58482L25.0866 14.0728C25.0726 14.1078 25.0656 14.1428 25.0656 14.1778C25.0726 14.3318 25.1916 14.4648 25.3666 14.4648C25.4786 14.4648 25.5906 14.4018 25.6396 14.2688L27.5506 8.87882H28.4746L25.3596 17.5658L22.1746 8.58482C22.1116 8.40982 21.9436 8.29082 21.7616 8.29082H20.2356C20.0746 8.29082 19.9556 8.45182 20.0116 8.61282L23.5956 18.5808C23.6376 18.6998 23.7496 18.7768 23.8686 18.7768C24.0366 18.7768 24.1626 18.6368 24.1626 18.4828C24.1626 18.4478 24.1626 18.4198 24.1486 18.3848L20.7326 8.87882H21.6566L25.1006 18.5948C25.1356 18.7068 25.2406 18.7768 25.3596 18.7768C25.4716 18.7768 25.5766 18.7068 25.6116 18.5948L29.1956 8.60582C29.2516 8.45182 29.1326 8.29082 28.9716 8.29082H27.4456C27.2636 8.29082 27.0956 8.40982 27.0326 8.58482ZM33.1045 16.8028V12.8758H36.6885V13.6738H34.2805C34.1195 13.6738 33.9865 13.8068 33.9865 13.9678C33.9865 14.1288 34.1195 14.2618 34.2805 14.2618H36.9825C37.1505 14.2618 37.2765 14.1288 37.2765 13.9678V12.5818C37.2765 12.4208 37.1505 12.2878 36.9825 12.2878H32.8105C32.6495 12.2878 32.5165 12.4208 32.5165 12.5818V17.0968C32.5165 17.2578 32.6495 17.3908 32.8105 17.3908H36.9475V18.1888H31.6345V8.87882H36.8495V9.67682H32.8105C32.6495 9.67682 32.5165 9.80982 32.5165 9.97082V11.1958C32.5165 11.3568 32.6495 11.4898 32.8105 11.4898C32.9785 11.4898 33.1045 11.3568 33.1045 11.1958V10.2648H37.1435C37.3115 10.2648 37.4375 10.1318 37.4375 9.97082V8.58482C37.4375 8.42382 37.3115 8.29082 37.1435 8.29082H31.3405C31.1795 8.29082 31.0465 8.42382 31.0465 8.58482V18.4828C31.0465 18.6438 31.1795 18.7768 31.3405 18.7768H37.2415C37.4095 18.7768 37.5355 18.6438 37.5355 18.4828V17.0968C37.5355 16.9358 37.4095 16.8028 37.2415 16.8028H33.1045Z" fill="#FF2F2F"/>
</g>
<g filter="url(#filter1_d)">
<path d="M49.7372 12.3507V10.6217C49.7372 10.2798 49.4885 10 49.1845 10H42.5527C42.2487 10 42 10.2798 42 10.6217V16.8391C42 17.1811 42.2487 17.4609 42.5527 17.4609H49.1845C49.4885 17.4609 49.7372 17.1811 49.7372 16.8391V15.1102L51.9478 17.15V10.3109L49.7372 12.3507Z" stroke="#FF2F2F" stroke-width="0.8" stroke-miterlimit="10" stroke-linecap="round" stroke-linejoin="round"/>
</g>
<defs>
<filter id="filter0_d" x="0.0234375" y="0.290825" width="45.5124" height="26.486" filterUnits="userSpaceOnUse" color-interpolation-filters="sRGB">
<feFlood flood-opacity="0" result="BackgroundImageFix"/>
<feColorMatrix in="SourceAlpha" type="matrix" values="0 0 0 0 0 0 0 0 0 0 0 0 0 0 0 0 0 0 127 0"/>
<feOffset/>
<feGaussianBlur stdDeviation="4"/>
<feColorMatrix type="matrix" values="0 0 0 0 1 0 0 0 0 0 0 0 0 0 0 0 0 0 1 0"/>
<feBlend mode="normal" in2="BackgroundImageFix" result="effect1_dropShadow"/>
<feBlend mode="normal" in="SourceGraphic" in2="effect1_dropShadow" result="shape"/>
</filter>
<filter id="filter1_d" x="33.5996" y="1.6" width="26.7478" height="24.2609" filterUnits="userSpaceOnUse" color-interpolation-filters="sRGB">
<feFlood flood-opacity="0" result="BackgroundImageFix"/>
<feColorMatrix in="SourceAlpha" type="matrix" values="0 0 0 0 0 0 0 0 0 0 0 0 0 0 0 0 0 0 127 0"/>
<feOffset/>
<feGaussianBlur stdDeviation="4"/>
<feColorMatrix type="matrix" values="0 0 0 0 1 0 0 0 0 0 0 0 0 0 0 0 0 0 1 0"/>
<feBlend mode="normal" in2="BackgroundImageFix" result="effect1_dropShadow"/>
<feBlend mode="normal" in="SourceGraphic" in2="effect1_dropShadow" result="shape"/>
</filter>
</defs>
</svg>
