<svg xmlns="http://www.w3.org/2000/svg" viewBox="0 0 61.74 24.97"><defs><style>.a{fill:#ff2f2f;}.b{fill:#fff;}.c{fill:none;stroke:#fff;stroke-linecap:round;stroke-linejoin:round;stroke-width:0.8px;}</style></defs><rect fill="#ff2f2f" width="61.74" height="24.97" rx="3.14"/><path fill="#fff" d="M13.92,17H9V9.1h.88v6.83a.3.3,0,0,0,.29.3.31.31,0,0,0,.3-.3V8.81a.31.31,0,0,0-.3-.3H8.71a.3.3,0,0,0-.29.3v8.51a.29.29,0,0,0,.29.29h4.92v.8H8.71a.3.3,0,0,0,0,.59h5.21a.29.29,0,0,0,.29-.29V17.32A.29.29,0,0,0,13.92,17Zm4.16-6.54a.31.31,0,0,0,.3-.3V8.81a.31.31,0,0,0-.3-.3H16.61a.3.3,0,0,0-.29.3.29.29,0,0,0,.29.29h1.18v.8H16.61a.29.29,0,0,0-.29.29v8.52a.29.29,0,0,0,.29.29h1.47a.3.3,0,0,0,.3-.29V11.58a.3.3,0,0,0-.3-.29.29.29,0,0,0-.29.29v6.83h-.88V10.49Zm9.35-1.68L25.48,14.3a.36.36,0,0,0,0,.1.31.31,0,0,0,.3.29.28.28,0,0,0,.27-.2L28,9.1h.92l-3.12,8.69-3.18-9a.44.44,0,0,0-.41-.3H20.63a.24.24,0,0,0-.22.33L24,18.8a.29.29,0,0,0,.27.2.3.3,0,0,0,.3-.29.16.16,0,0,0,0-.1L21.13,9.1h.92l3.45,9.72a.26.26,0,0,0,.25.18.27.27,0,0,0,.26-.18l3.58-10a.24.24,0,0,0-.22-.32H27.84A.44.44,0,0,0,27.43,8.81ZM33.5,17V13.1h3.58v.8H34.67a.29.29,0,0,0,0,.58h2.71a.29.29,0,0,0,.29-.29V12.8a.29.29,0,0,0-.29-.29H33.21a.29.29,0,0,0-.3.29v4.52a.29.29,0,0,0,.3.29h4.13v.8H32V9.1h5.21v.8h-4a.29.29,0,0,0-.3.29v1.23a.3.3,0,0,0,.59,0v-.93h4a.29.29,0,0,0,.29-.3V8.81a.29.29,0,0,0-.29-.3h-5.8a.3.3,0,0,0-.3.3v9.9a.29.29,0,0,0,.3.29h5.9a.29.29,0,0,0,.29-.29V17.32a.29.29,0,0,0-.29-.29Z" transform="translate(-1.18 -0.87)"/><path fill="none" stroke="#fff" stroke-linecap="round"  stroke-linejoin="round" stroke-width="0.8px" d="M52.33,11.84V9.75A.72.72,0,0,0,51.67,9h-8a.72.72,0,0,0-.67.75v7.5a.72.72,0,0,0,.67.75h8a.72.72,0,0,0,.66-.75V15.16L55,17.62V9.37Z" transform="translate(-1.18 -0.87)"/></svg>
