<svg viewBox="0 0 64 27" fill="none" xmlns="http://www.w3.org/2000/svg">
<g filter="url(#filter0_live)">
<path d="M13.9196 17.026H9.00558V9.102H9.88758V15.934C9.88758 16.095 10.0206 16.228 10.1816 16.228C10.3426 16.228 10.4756 16.095 10.4756 15.934V8.808C10.4756 8.647 10.3426 8.514 10.1816 8.514H8.71158C8.55058 8.514 8.41758 8.647 8.41758 8.808V17.32C8.41758 17.481 8.55058 17.614 8.71158 17.614H13.6256V18.412H8.71158C8.55058 18.412 8.41758 18.545 8.41758 18.706C8.41758 18.867 8.55058 19 8.71158 19H13.9196C14.0806 19 14.2136 18.867 14.2136 18.706V17.32C14.2136 17.159 14.0806 17.026 13.9196 17.026ZM18.0812 10.488C18.2422 10.488 18.3752 10.355 18.3752 10.194V8.808C18.3752 8.647 18.2422 8.514 18.0812 8.514H16.6112C16.4502 8.514 16.3172 8.647 16.3172 8.808C16.3172 8.969 16.4502 9.102 16.6112 9.102H17.7872V9.9H16.6112C16.4502 9.9 16.3172 10.033 16.3172 10.194V18.706C16.3172 18.867 16.4502 19 16.6112 19H18.0812C18.2422 19 18.3752 18.867 18.3752 18.706V11.58C18.3752 11.419 18.2422 11.286 18.0812 11.286C17.9202 11.286 17.7872 11.419 17.7872 11.58V18.412H16.9052V10.488H18.0812ZM27.4272 8.808L25.4812 14.296C25.4672 14.331 25.4602 14.366 25.4602 14.401C25.4672 14.555 25.5862 14.688 25.7612 14.688C25.8732 14.688 25.9852 14.625 26.0342 14.492L27.9452 9.102H28.8692L25.7542 17.789L22.5692 8.808C22.5062 8.633 22.3382 8.514 22.1562 8.514H20.6302C20.4692 8.514 20.3502 8.675 20.4062 8.836L23.9902 18.804C24.0322 18.923 24.1442 19 24.2632 19C24.4312 19 24.5572 18.86 24.5572 18.706C24.5572 18.671 24.5572 18.643 24.5432 18.608L21.1272 9.102H22.0512L25.4952 18.818C25.5302 18.93 25.6352 19 25.7542 19C25.8662 19 25.9712 18.93 26.0062 18.818L29.5902 8.829C29.6462 8.675 29.5272 8.514 29.3662 8.514H27.8402C27.6582 8.514 27.4902 8.633 27.4272 8.808ZM33.499 17.026V13.099H37.083V13.897H34.675C34.514 13.897 34.381 14.03 34.381 14.191C34.381 14.352 34.514 14.485 34.675 14.485H37.377C37.545 14.485 37.671 14.352 37.671 14.191V12.805C37.671 12.644 37.545 12.511 37.377 12.511H33.205C33.044 12.511 32.911 12.644 32.911 12.805V17.32C32.911 17.481 33.044 17.614 33.205 17.614H37.342V18.412H32.029V9.102H37.244V9.9H33.205C33.044 9.9 32.911 10.033 32.911 10.194V11.419C32.911 11.58 33.044 11.713 33.205 11.713C33.373 11.713 33.499 11.58 33.499 11.419V10.488H37.538C37.706 10.488 37.832 10.355 37.832 10.194V8.808C37.832 8.647 37.706 8.514 37.538 8.514H31.735C31.574 8.514 31.441 8.647 31.441 8.808V18.706C31.441 18.867 31.574 19 31.735 19H37.636C37.804 19 37.93 18.867 37.93 18.706V17.32C37.93 17.159 37.804 17.026 37.636 17.026H33.499Z" fill="#FF2F2F"/>
</g>
<g filter="url(#filter1_live)">
<path d="M52.3333 11.8356V9.75C52.3333 9.3375 52.0333 9 51.6667 9H43.6667C43.3 9 43 9.3375 43 9.75V17.25C43 17.6625 43.3 18 43.6667 18H51.6667C52.0333 18 52.3333 17.6625 52.3333 17.25V15.1644L55 17.625V9.375L52.3333 11.8356Z" stroke="#FF2F2F" stroke-width="0.8" stroke-miterlimit="10" stroke-linecap="round" stroke-linejoin="round"/>
</g>
<defs>
<filter id="filter0_live" x="0.417969" y="0.513977" width="45.5124" height="26.486" filterUnits="userSpaceOnUse" color-interpolation-filters="sRGB">
<feFlood flood-opacity="0" result="BackgroundImageFix"/>
<feColorMatrix in="SourceAlpha" type="matrix" values="0 0 0 0 0 0 0 0 0 0 0 0 0 0 0 0 0 0 127 0"/>
<feOffset/>
<feGaussianBlur stdDeviation="4"/>
<feColorMatrix type="matrix" values="0 0 0 0 1 0 0 0 0 0 0 0 0 0 0 0 0 0 1 0"/>
<feBlend mode="normal" in2="BackgroundImageFix" result="effect1_dropShadow"/>
<feBlend mode="normal" in="SourceGraphic" in2="effect1_dropShadow" result="shape"/>
</filter>
<filter id="filter1_live" x="34.5996" y="0.599976" width="28.8" height="25.8" filterUnits="userSpaceOnUse" color-interpolation-filters="sRGB">
<feFlood flood-opacity="0" result="BackgroundImageFix"/>
<feColorMatrix in="SourceAlpha" type="matrix" values="0 0 0 0 0 0 0 0 0 0 0 0 0 0 0 0 0 0 127 0"/>
<feOffset/>
<feGaussianBlur stdDeviation="4"/>
<feColorMatrix type="matrix" values="0 0 0 0 1 0 0 0 0 0 0 0 0 0 0 0 0 0 1 0"/>
<feBlend mode="normal" in2="BackgroundImageFix" result="effect1_dropShadow"/>
<feBlend mode="normal" in="SourceGraphic" in2="effect1_dropShadow" result="shape"/>
</filter>
</defs>
</svg>
