<svg viewBox="0 0 1040 144" fill="none" xmlns="http://www.w3.org/2000/svg">
<g clip-path="url(#clip0)" filter="url(#filter0_d)">
<path d="M76.2261 136H54.314C52.9418 136 51.8304 134.892 51.8304 133.539V12.929H12.9735V29.722H43.3611C44.7333 29.722 45.8447 30.8297 45.8447 32.1835C45.8447 33.5372 44.7271 34.6449 43.3611 34.6449H10.4837C9.11765 34.6449 8 33.5372 8 32.1835V10.4614C8 9.10764 9.11765 8 10.4837 8H54.314C55.6862 8 56.7977 9.10764 56.7977 10.4614V131.071H73.7424V10.4614C73.7424 9.10149 74.8601 8 76.2261 8H120.056C121.429 8 122.54 9.10764 122.54 10.4614V32.1835C122.54 33.5434 121.422 34.6449 120.056 34.6449H87.1852C85.813 34.6449 84.7016 33.5372 84.7016 32.1835C84.7016 30.8297 85.8192 29.722 87.1852 29.722H117.573V12.929H78.716V133.539C78.716 134.892 77.5983 136 76.2261 136Z" fill="white"/>
<path d="M331.899 136H251.546C250.174 136 249.062 134.892 249.062 133.538V10.4674C249.062 9.10746 250.18 8.00597 251.546 8.00597H331.899C333.271 8.00597 334.382 9.11361 334.382 10.4674V32.1833C334.382 33.5432 333.265 34.6447 331.899 34.6447H275.942V50.2747C275.942 51.6346 274.824 52.7361 273.458 52.7361C272.092 52.7361 270.975 51.6285 270.975 50.2747V32.1833C270.975 30.8233 272.092 29.7218 273.458 29.7218H329.415V12.9288H254.03V131.071H329.415V114.278H273.458C272.086 114.278 270.975 113.17 270.975 111.816V61.1419C270.975 59.7819 272.092 58.6805 273.458 58.6805H331.899C333.271 58.6805 334.382 59.7881 334.382 61.1419V82.8577C334.382 84.2177 333.265 85.3192 331.899 85.3192H284.417C283.045 85.3192 281.934 84.2115 281.934 82.8577C281.934 81.504 283.051 80.3963 284.417 80.3963H329.415V63.6033H275.948V109.349H331.905C333.277 109.349 334.389 110.456 334.389 111.81V133.532C334.382 134.892 333.271 136 331.899 136Z" fill="white"/>
<path d="M492.603 136H470.691C469.635 136 468.704 135.342 468.35 134.351L458.62 107.041H395.101L386.538 131.071H403.191L409.053 114.616C409.506 113.33 410.928 112.653 412.219 113.115C413.517 113.564 414.194 114.973 413.734 116.253L407.289 134.351C406.935 135.335 406.004 136 404.948 136H383.03C382.223 136 381.465 135.612 381.006 134.96C380.54 134.308 380.422 133.471 380.689 132.72L391.003 103.762C391.357 102.777 392.288 102.112 393.344 102.112H460.378C461.433 102.112 462.364 102.771 462.718 103.762L472.448 131.071H489.095L447.015 12.929H428.618L404.588 80.3965H449.133L437.82 48.6319L427.91 76.4398C427.457 77.7259 426.035 78.4028 424.743 77.9413C423.445 77.492 422.769 76.0829 423.228 74.8029L435.479 40.4169C436.18 38.4478 439.459 38.4478 440.16 40.4169L454.988 82.0457C455.255 82.7964 455.137 83.6333 454.671 84.2856C454.212 84.9317 453.454 85.3255 452.647 85.3255H401.08C400.273 85.3255 399.515 84.9378 399.056 84.2856C398.59 83.6333 398.472 82.7964 398.739 82.0457L424.52 9.64915C424.874 8.65843 425.805 8 426.861 8H448.773C449.828 8 450.76 8.65843 451.113 9.64915L494.944 132.72C495.211 133.471 495.093 134.308 494.627 134.96C494.168 135.606 493.41 136 492.603 136Z" fill="white"/>
<path d="M525.478 136C524.453 136 523.497 135.366 523.137 134.351L479.306 11.2798C479.039 10.5291 479.157 9.69223 479.623 9.03995C480.083 8.38767 480.84 8 481.647 8H503.559C504.615 8 505.546 8.65843 505.9 9.64915L547.39 126.142L587.706 12.9351H571.059L544.571 87.3008C544.118 88.5869 542.702 89.2515 541.404 88.8023C540.106 88.3531 539.43 86.9439 539.889 85.664L566.955 9.64915C567.315 8.65843 568.246 8 569.302 8H591.214C592.021 8 592.779 8.38767 593.238 9.03995C593.704 9.69223 593.822 10.5291 593.555 11.2798L549.724 134.351C549.023 136.32 545.744 136.32 545.043 134.351L501.802 12.929H485.156L527.812 132.72C528.272 134 527.595 135.409 526.297 135.858C526.03 135.951 525.751 136 525.478 136Z" fill="white"/>
<path d="M879.758 135.994C878.385 135.994 877.274 134.886 877.274 133.532V114.173C862.968 112.924 851.711 100.974 851.711 86.4824V12.929H834.766V86.4762C834.766 107.257 848.998 125.102 869.376 129.877C870.711 130.191 871.543 131.52 871.226 132.837C870.903 134.166 869.544 134.979 868.24 134.671C845.601 129.373 829.799 109.552 829.799 86.4762V10.4614C829.799 9.10149 830.917 8 832.283 8H854.201C855.573 8 856.684 9.10764 856.684 10.4614V86.4762C856.684 99.091 867.035 109.349 879.764 109.349C881.136 109.349 882.248 110.457 882.248 111.81V130.997C905.911 129.717 924.755 110.235 924.755 86.4762V12.929H907.817V86.4762C907.817 97.1465 901.521 107.011 891.785 111.601C890.537 112.192 889.059 111.657 888.475 110.438C887.885 109.214 888.413 107.743 889.649 107.158C897.665 103.386 902.843 95.2635 902.843 86.4824V10.4614C902.843 9.10149 903.961 8 905.327 8H927.233C928.605 8 929.716 9.10764 929.716 10.4614V86.4762C929.723 113.773 907.308 135.994 879.758 135.994Z" fill="white"/>
<path d="M868.797 123.514C868.549 123.514 868.294 123.471 868.04 123.391C850.449 117.822 840.75 103.989 840.75 84.4394V17.9257C840.75 16.5658 841.868 15.4643 843.234 15.4643C844.6 15.4643 845.717 16.5719 845.717 17.9257V84.4394C845.717 106.525 858.676 115.263 869.548 118.702C870.852 119.115 871.573 120.499 871.157 121.798C870.828 122.844 869.853 123.514 868.797 123.514Z" fill="white"/>
<path d="M890.719 123.514C889.663 123.514 888.689 122.85 888.353 121.804C887.937 120.505 888.657 119.121 889.961 118.709C900.84 115.263 913.805 106.531 913.805 84.4456V17.9257C913.805 16.5658 914.922 15.4643 916.288 15.4643C917.654 15.4643 918.772 16.5719 918.772 17.9257V84.4394C918.772 103.989 909.073 117.822 891.476 123.391C891.222 123.471 890.967 123.514 890.719 123.514Z" fill="white"/>
<path d="M229.627 136H207.715C206.343 136 205.231 134.892 205.231 133.539V85.3255H137.154V131.071H154.099V93.719C154.099 92.359 155.217 91.2575 156.583 91.2575C157.949 91.2575 159.066 92.3652 159.066 93.719V133.532C159.066 134.892 157.949 135.994 156.583 135.994H134.664C133.292 135.994 132.181 134.886 132.181 133.532V82.8579C132.181 81.498 133.298 80.3965 134.664 80.3965H207.715C209.087 80.3965 210.199 81.5042 210.199 82.8579V131.071H227.143V12.929H210.199V61.1421C210.199 62.502 209.081 63.6035 207.715 63.6035H134.664C133.292 63.6035 132.181 62.4958 132.181 61.1421V10.4614C132.181 9.10764 133.298 8 134.664 8H156.576C157.949 8 159.06 9.10764 159.06 10.4614V50.2749C159.06 51.6348 157.942 52.7363 156.576 52.7363C155.21 52.7363 154.093 51.6287 154.093 50.2749V12.929H137.148V58.6806H205.225V10.4614C205.225 9.10149 206.343 8 207.709 8H229.621C230.993 8 232.104 9.10764 232.104 10.4614V133.532C232.117 134.892 230.999 136 229.627 136Z" fill="white"/>
<path d="M810.363 136H788.457C787.575 136 786.768 135.539 786.315 134.788L717.884 19.5011V131.071H734.829V65.8435C734.829 64.4836 735.947 63.3821 737.313 63.3821C738.679 63.3821 739.796 64.4897 739.796 65.8435V133.533C739.796 134.892 738.679 135.994 737.313 135.994H715.401C714.028 135.994 712.917 134.886 712.917 133.533V10.4616C712.917 9.34778 713.668 8.37552 714.749 8.0863C715.835 7.78478 716.972 8.25245 717.543 9.2124L789.873 131.071H807.873V12.9291H790.935V96.6174C790.935 97.7312 790.183 98.7035 789.103 98.9927C788.035 99.3065 786.88 98.8265 786.309 97.8666L735.17 11.7169C734.475 10.5477 734.866 9.03395 736.052 8.34475C737.238 7.66786 738.759 8.04323 739.455 9.21855L785.967 87.5779V10.4616C785.967 9.10164 787.085 8.00015 788.451 8.00015H810.357C811.729 8.00015 812.84 9.10779 812.84 10.4616V133.533C812.847 134.892 811.729 136 810.363 136Z" fill="white"/>
<path d="M43.3537 23.7839H21.4417C20.0694 23.7839 18.958 22.6763 18.958 21.3225C18.958 19.9687 20.0757 18.8611 21.4417 18.8611H43.3537C44.726 18.8611 45.8374 19.9687 45.8374 21.3225C45.8374 22.6763 44.726 23.7839 43.3537 23.7839Z" fill="white"/>
<path d="M109.097 23.7839H87.1848C85.8126 23.7839 84.7012 22.6763 84.7012 21.3225C84.7012 19.9687 85.8188 18.8611 87.1848 18.8611H109.097C110.469 18.8611 111.581 19.9687 111.581 21.3225C111.581 22.6763 110.469 23.7839 109.097 23.7839Z" fill="white"/>
<path d="M320.943 74.4644H284.414C283.042 74.4644 281.931 73.3568 281.931 72.003C281.931 70.6492 283.048 69.5416 284.414 69.5416H320.943C322.315 69.5416 323.426 70.6492 323.426 72.003C323.426 73.3568 322.315 74.4644 320.943 74.4644Z" fill="white"/>
<path d="M65.2747 125.139C63.9025 125.139 62.791 124.031 62.791 122.678V10.4614C62.791 9.10149 63.9087 8 65.2747 8C66.6407 8 67.7583 9.10764 67.7583 10.4614V122.671C67.7583 124.031 66.6407 125.139 65.2747 125.139Z" fill="white"/>
<path d="M218.674 125.139C217.302 125.139 216.19 124.031 216.19 122.678V74.4645H134.664C133.292 74.4645 132.181 73.3569 132.181 72.0031C132.181 70.6493 133.298 69.5417 134.664 69.5417H216.184V21.3225C216.184 19.9625 217.302 18.8611 218.668 18.8611C220.034 18.8611 221.151 19.9687 221.151 21.3225V122.678C221.158 124.031 220.04 125.139 218.674 125.139Z" fill="white"/>
<path d="M320.939 125.139H262.498C261.126 125.139 260.015 124.031 260.015 122.678V21.3225C260.015 19.9625 261.132 18.8611 262.498 18.8611H320.939C322.311 18.8611 323.422 19.9687 323.422 21.3225C323.422 22.6763 322.305 23.7839 320.939 23.7839H264.982V120.21H320.939C322.311 120.21 323.422 121.318 323.422 122.671C323.422 124.025 322.311 125.139 320.939 125.139Z" fill="white"/>
<path d="M693.483 136H613.13C611.758 136 610.646 134.892 610.646 133.538V10.4674C610.646 9.10746 611.764 8.00597 613.13 8.00597H693.483C694.855 8.00597 695.966 9.11361 695.966 10.4674V32.1833C695.966 33.5432 694.849 34.6447 693.483 34.6447H637.532V50.2747C637.532 51.6346 636.414 52.7361 635.048 52.7361C633.682 52.7361 632.565 51.6285 632.565 50.2747V32.1833C632.565 30.8233 633.682 29.7218 635.048 29.7218H690.999V12.9288H615.614V131.071H690.999V114.278H635.048C633.676 114.278 632.565 113.17 632.565 111.816V61.1419C632.565 59.7819 633.682 58.6805 635.048 58.6805H693.483C694.855 58.6805 695.966 59.7881 695.966 61.1419V82.8577C695.966 84.2177 694.849 85.3192 693.483 85.3192H646.001C644.629 85.3192 643.518 84.2115 643.518 82.8577C643.518 81.504 644.635 80.3963 646.001 80.3963H690.999V63.6033H637.538V109.349H693.489C694.861 109.349 695.973 110.456 695.973 111.81V133.532C695.973 134.892 694.855 136 693.483 136Z" fill="white"/>
<path d="M682.533 74.4644H646.011C644.639 74.4644 643.527 73.3568 643.527 72.003C643.527 70.6492 644.645 69.5416 646.011 69.5416H682.533C683.905 69.5416 685.017 70.6492 685.017 72.003C685.017 73.3568 683.899 74.4644 682.533 74.4644Z" fill="white"/>
<path d="M682.534 125.139H624.094C622.722 125.139 621.61 124.031 621.61 122.678V21.3225C621.61 19.9625 622.728 18.8611 624.094 18.8611H682.534C683.907 18.8611 685.018 19.9687 685.018 21.3225C685.018 22.6763 683.9 23.7839 682.534 23.7839H626.578V120.21H682.534C683.907 120.21 685.018 121.318 685.018 122.671C685.018 124.025 683.9 125.139 682.534 125.139Z" fill="white"/>
<path d="M1029.52 136H949.164C947.792 136 946.681 134.892 946.681 133.538V10.4674C946.681 9.10746 947.798 8.00597 949.164 8.00597H1029.52C1030.89 8.00597 1032 9.11361 1032 10.4674V32.1833C1032 33.5432 1030.88 34.6447 1029.52 34.6447H973.56V50.2747C973.56 51.6346 972.443 52.7361 971.076 52.7361C969.71 52.7361 968.593 51.6285 968.593 50.2747V32.1833C968.593 30.8233 969.71 29.7218 971.076 29.7218H1027.03V12.9288H951.648V131.071H1027.03V114.278H971.076C969.704 114.278 968.593 113.17 968.593 111.816V61.1419C968.593 59.7819 969.71 58.6805 971.076 58.6805H1029.52C1030.89 58.6805 1032 59.7881 1032 61.1419V82.8577C1032 84.2177 1030.88 85.3192 1029.52 85.3192H982.036C980.663 85.3192 979.552 84.2115 979.552 82.8577C979.552 81.504 980.67 80.3963 982.036 80.3963H1027.03V63.6033H973.566V109.349H1029.52C1030.9 109.349 1032.01 110.456 1032.01 111.81V133.532C1032 134.892 1030.88 136 1029.52 136Z" fill="white"/>
<path d="M1018.55 74.4644H982.031C980.659 74.4644 979.548 73.3568 979.548 72.003C979.548 70.6492 980.665 69.5416 982.031 69.5416H1018.55C1019.93 69.5416 1021.04 70.6492 1021.04 72.003C1021.04 73.3568 1019.93 74.4644 1018.55 74.4644Z" fill="white"/>
<path d="M1018.55 125.139H960.109C958.736 125.139 957.625 124.031 957.625 122.678V21.3225C957.625 19.9625 958.743 18.8611 960.109 18.8611H1018.55C1019.92 18.8611 1021.03 19.9687 1021.03 21.3225C1021.03 22.6763 1019.92 23.7839 1018.55 23.7839H962.592V120.21H1018.55C1019.92 120.21 1021.03 121.318 1021.03 122.671C1021.03 124.025 1019.92 125.139 1018.55 125.139Z" fill="white"/>
<path d="M145.629 52.7425C144.257 52.7425 143.146 51.6349 143.146 50.2811V21.3225C143.146 19.9625 144.263 18.8611 145.629 18.8611C146.995 18.8611 148.113 19.9687 148.113 21.3225V50.2749C148.113 51.6349 147.001 52.7425 145.629 52.7425Z" fill="white"/>
<path d="M145.629 125.139C144.257 125.139 143.146 124.031 143.146 122.678V93.7191C143.146 92.3592 144.263 91.2577 145.629 91.2577C146.995 91.2577 148.113 92.3653 148.113 93.7191V122.678C148.113 124.031 147.001 125.139 145.629 125.139Z" fill="white"/>
<path d="M478.706 128.745C477.682 128.745 476.726 128.111 476.366 127.096L439.57 23.784H435.82L417.062 76.4338C416.609 77.7199 415.193 78.3968 413.895 77.9353C412.598 77.4861 411.921 76.0769 412.38 74.797L431.716 20.5042C432.069 19.5196 433.001 18.855 434.056 18.855H441.321C442.377 18.855 443.308 19.5135 443.662 20.5042L481.041 125.465C481.5 126.745 480.824 128.154 479.526 128.604C479.253 128.696 478.98 128.745 478.706 128.745Z" fill="white"/>
<path d="M397.187 127.317C396.914 127.317 396.634 127.268 396.361 127.176C395.063 126.726 394.387 125.317 394.846 124.037L399.49 110.998C399.944 109.712 401.353 109.041 402.657 109.497C403.955 109.946 404.632 111.355 404.172 112.635L399.528 125.674C399.168 126.683 398.211 127.317 397.187 127.317Z" fill="white"/>
<path d="M467.106 96.1805H397.644C396.272 96.1805 395.16 95.0729 395.16 93.7191C395.16 92.3653 396.278 91.2577 397.644 91.2577H467.106C468.478 91.2577 469.589 92.3653 469.589 93.7191C469.589 95.0729 468.478 96.1805 467.106 96.1805Z" fill="white"/>
<path d="M536.433 136C535.409 136 534.453 135.366 534.092 134.351L492.845 18.5165C492.386 17.2365 493.062 15.8274 494.36 15.3781C495.645 14.9105 497.074 15.5935 497.527 16.8796L538.78 132.714C539.24 133.994 538.563 135.403 537.265 135.852C536.986 135.951 536.707 136 536.433 136Z" fill="white"/>
<path d="M547.686 104.408C547.413 104.408 547.133 104.359 546.86 104.267C545.562 103.817 544.886 102.408 545.345 101.128L575.341 16.8862C575.788 15.6001 577.198 14.9233 578.508 15.3848C579.806 15.834 580.483 17.2431 580.023 18.5231L550.027 102.765C549.667 103.774 548.71 104.408 547.686 104.408Z" fill="white"/>
<path d="M726.359 125.133C724.986 125.133 723.875 124.025 723.875 122.672V47.3767C723.875 46.0167 724.993 44.9153 726.359 44.9153C727.725 44.9153 728.842 46.0229 728.842 47.3767V122.665C728.849 124.025 727.731 125.133 726.359 125.133Z" fill="white"/>
<path d="M799.406 125.139H792.961C792.079 125.139 791.272 124.677 790.819 123.927L724.226 11.7166C723.53 10.5474 723.922 9.03364 725.108 8.34444C726.287 7.66755 727.821 8.04292 728.51 9.21825L794.383 120.216H796.922V21.3223C796.922 19.9623 798.04 18.8609 799.406 18.8609C800.772 18.8609 801.889 19.9685 801.889 21.3223V122.677C801.889 124.031 800.778 125.139 799.406 125.139Z" fill="white"/>
</g>
<defs>
<filter id="filter0_d" x="0" y="0" width="1040" height="144" filterUnits="userSpaceOnUse" color-interpolation-filters="sRGB">
<feFlood flood-opacity="0" result="BackgroundImageFix"/>
<feColorMatrix in="SourceAlpha" type="matrix" values="0 0 0 0 0 0 0 0 0 0 0 0 0 0 0 0 0 0 127 0"/>
<feOffset/>
<feGaussianBlur stdDeviation="4"/>
<feColorMatrix type="matrix" values="0 0 0 0 1 0 0 0 0 1 0 0 0 0 1 0 0 0 1 0"/>
<feBlend mode="normal" in2="BackgroundImageFix" result="effect1_dropShadow"/>
<feBlend mode="normal" in="SourceGraphic" in2="effect1_dropShadow" result="shape"/>
</filter>
<clipPath id="clip0">
<rect width="1024" height="128" fill="white" transform="translate(8 8)"/>
</clipPath>
</defs>
</svg>
