<svg width="102" height="107" viewBox="0 0 102 107" fill="none" xmlns="http://www.w3.org/2000/svg">
<path d="M84.0509 77.211V82.2914H77.8644L58.9323 67.4397L83.661 42.732C85.9416 40.4708 87.7497 37.7794 88.9805 34.8141C90.2113 31.8488 90.8401 28.6688 90.8305 25.4586C90.8216 18.9759 88.2401 12.7612 83.6522 8.17715C79.0643 3.59314 72.8443 1.0139 66.356 1.00494C63.1431 0.99536 59.9603 1.62368 56.9925 2.85339C54.0247 4.08311 51.331 5.88972 49.0679 8.16831L48.4577 8.77796L47.8475 8.16831C44.427 4.74636 40.0671 2.41546 35.3199 1.47075C30.5727 0.526046 25.6517 1.01001 21.18 2.86137C16.7083 4.71273 12.8869 7.84823 10.1998 11.8709C7.51263 15.8935 6.08056 20.6223 6.08489 25.4586C6.07531 28.6688 6.70416 31.8488 7.93493 34.8141C9.16569 37.7794 10.9738 40.4708 13.2544 42.732L41.7798 71.2331C41.7291 71.5585 41.6952 71.8864 41.6781 72.2153C41.6581 73.5157 41.9383 74.8031 42.4967 75.9779C43.0552 77.1526 43.877 78.183 44.8984 78.9892L46.7628 80.4794L42.8814 82.2914L37.9323 82.9011L29.4577 71.6226C28.5272 70.4043 27.2388 69.5071 25.7727 69.0565C24.3066 68.6059 22.7362 68.6245 21.2812 69.1097C19.8263 69.5949 18.5595 70.5224 17.6582 71.7625C16.7568 73.0025 16.266 74.4931 16.2544 76.0256L13.9832 74.0273C12.5735 72.8017 10.7671 72.1279 8.89845 72.1306H8.69506C7.68535 72.1284 6.68512 72.3252 5.75163 72.7097C4.81814 73.0942 3.96972 73.659 3.25496 74.3715C2.5402 75.0841 1.97313 75.9306 1.58622 76.8624C1.19931 77.7942 1.00015 78.7932 1.00015 79.802C0.993703 80.8126 1.18984 81.8142 1.577 82.7479C1.96416 83.6815 2.5345 84.5282 3.25439 85.2381L13.1696 95.1449C15.7286 97.7119 18.9399 99.5328 22.4577 100.412L35.695 103.714C37.2811 104.105 38.9087 104.304 40.5425 104.307H77.4407L84.0509 102.986V106H101V77.211H84.0509ZM43.017 67.6768L15.6442 40.3442C11.8068 36.3704 9.68442 31.05 9.73387 25.5282C9.78332 20.0065 12.0006 14.7249 15.9086 10.8203C19.8165 6.91565 25.1026 4.70021 30.6291 4.6508C36.1555 4.6014 41.4805 6.72198 45.4577 10.5561L48.4577 13.5535L51.4577 10.5561C55.435 6.72198 60.7599 4.6014 66.2863 4.6508C71.8128 4.70021 77.0989 6.91565 81.0068 10.8203C84.9148 14.7249 87.1321 20.0065 87.1816 25.5282C87.231 31.05 85.1086 36.3704 81.2712 40.3442L56.2374 65.3568C54.7648 64.2682 52.9843 63.6752 51.1526 63.6633H50.2204C48.777 63.664 47.3577 64.033 46.0971 64.7354C44.8365 65.4378 43.7763 66.4503 43.017 67.6768ZM19.6442 78.9045V76.0764C19.6487 75.0313 20.0662 74.0303 20.8058 73.2912C21.5454 72.5522 22.5473 72.1351 23.5933 72.1306C24.2072 72.1326 24.8123 72.2756 25.3619 72.5487C25.9116 72.8218 26.3909 73.2177 26.7628 73.7056L34.0679 83.443L30.3221 83.9849C28.9342 84.156 27.5257 84.0334 26.1883 83.6249C24.8508 83.2164 23.6144 82.5313 22.5594 81.6141L19.6442 78.9045ZM77.1017 100.92H40.5425C39.2114 100.91 37.886 100.745 36.5933 100.428L23.3561 97.0415C20.4347 96.3246 17.7669 94.819 15.6442 92.6893L5.64421 82.8503C5.04525 82.2478 4.63817 81.4816 4.47429 80.6484C4.31041 79.8151 4.39706 78.952 4.72331 78.1678C5.04956 77.3837 5.60082 76.7136 6.30762 76.2419C7.01442 75.7703 7.84513 75.5183 8.69506 75.5176H8.9154C9.95815 75.5131 10.9659 75.893 11.7459 76.5844L20.3222 84.0865C21.7446 85.3089 23.4055 86.2229 25.1997 86.771C26.994 87.319 28.8825 87.489 30.7459 87.2702L43.8814 85.5768L49.6272 82.6979C50.4581 83.5701 51 84.6769 51.1789 85.8678C51.3578 87.0586 51.1652 88.2756 50.6272 89.3532L50.3391 89.9459L53.373 91.47L53.6611 90.8773C54.2078 89.7919 54.5341 88.6092 54.6214 87.3972C54.7087 86.1852 54.5551 84.968 54.1696 83.8156C53.5902 82.1494 52.55 80.6814 51.1696 79.5819L47.017 76.195C46.202 75.5214 45.6133 74.6143 45.3305 73.5961C45.0476 72.5778 45.0842 71.4973 45.4352 70.5004C45.7863 69.5036 46.4349 68.6383 47.2936 68.0213C48.1523 67.4044 49.1798 67.0654 50.2374 67.0502H51.1696C52.3261 67.0444 53.4501 67.4327 54.356 68.151L76.678 85.6784H84.0509V99.531L77.1017 100.92ZM97.6102 102.613H87.4407V80.598H97.6102V102.613Z" fill="white" stroke="white" stroke-miterlimit="10"/>
</svg>
