<svg width="12" height="12" viewBox="0 0 12 12" fill="none" xmlns="http://www.w3.org/2000/svg">
<path d="M8.45826 5.6848L8.81182 5.33125L8.45826 5.6848C8.48505 5.7116 8.5001 5.74793 8.5001 5.78582C8.5001 5.82371 8.48505 5.86004 8.45826 5.88683C8.43147 5.91363 8.39513 5.92868 8.35725 5.92868H6.42868H5.92868V6.42868V8.35725C5.92868 8.39513 5.91363 8.43147 5.88683 8.45826C5.86004 8.48505 5.82371 8.5001 5.78582 8.5001C5.74793 8.5001 5.7116 8.48505 5.6848 8.45826L5.33125 8.81182L5.6848 8.45826C5.65801 8.43147 5.64296 8.39514 5.64296 8.35725V6.42868V5.92868H5.14296H3.21439C3.1765 5.92868 3.14017 5.91363 3.11338 5.88683C3.08658 5.86004 3.07153 5.82371 3.07153 5.78582C3.07153 5.74793 3.08658 5.71159 3.11338 5.6848C3.14017 5.65801 3.1765 5.64296 3.21439 5.64296H5.14296H5.64296V5.14296V3.21439C5.64296 3.1765 5.65801 3.14017 5.6848 3.11338C5.71159 3.08658 5.74793 3.07153 5.78582 3.07153C5.82371 3.07153 5.86004 3.08658 5.88683 3.11338C5.91363 3.14017 5.92868 3.1765 5.92868 3.21439V5.14296V5.64296H6.42868H8.35725C8.39514 5.64296 8.43147 5.65801 8.45826 5.6848Z" fill="#3FED3F" stroke="#3FED3F"/>
<rect x="0.5" y="0.5" width="11" height="11" stroke="#3FED3F"/>
</svg>
