<svg id="Capa_1" data-name="Capa 1" xmlns="http://www.w3.org/2000/svg" viewBox="0 0 87.16 58.63"><defs><style>.cls-1{fill:none;stroke:#fff;stroke-miterlimit:10;stroke-width:0.5px;}</style></defs><path class="cls-1" d="M24.74,28.78H4A1.53,1.53,0,0,0,2.4,30.27a.13.13,0,0,0,0,.06V59.54H26.27V30.33A1.53,1.53,0,0,0,24.74,28.78Z" transform="translate(-1.64 -1.17)"/><path class="cls-1" d="M25.28,9.77l-6.47-1L16,2.42a1.78,1.78,0,0,0-1.59-1,1.58,1.58,0,0,0-1.46,1l-3,6.24-6.54.85A1.72,1.72,0,0,0,1.9,11.4a1.79,1.79,0,0,0,.49,1L7,17,5.94,23.42a1.71,1.71,0,0,0,1.34,2,1.64,1.64,0,0,0,1.11-.16l5.82-3,.14.06,5.62,3a1.69,1.69,0,0,0,2.29-.64,1.65,1.65,0,0,0,.19-1.09l-1-6.47,4.73-4.53a1.67,1.67,0,0,0-.9-2.82Z" transform="translate(-1.64 -1.17)"/><path class="cls-1" d="M48.76,26.78a1,1,0,0,0-.58-.36l-4.1-.65-1.8-4a1.15,1.15,0,0,0-1-.63,1,1,0,0,0-.91.61l-1.88,4-4.08.46a1.08,1.08,0,0,0-.93,1.21,1.07,1.07,0,0,0,.3.62L36.72,31l-.81,4.08a1.09,1.09,0,0,0,.87,1.27h0a1.07,1.07,0,0,0,.68-.1l3.69-1.88h.09l3.56,1.92a1.06,1.06,0,0,0,1.46-.35h0a1,1,0,0,0,.14-.67l-.65-4.1,3-2.87a1.07,1.07,0,0,0,0-1.5Z" transform="translate(-1.64 -1.17)"/><path class="cls-1" d="M47.16,39H35.55A1.56,1.56,0,0,0,34,40.55v19H48.71v-19A1.55,1.55,0,0,0,47.16,39Z" transform="translate(-1.64 -1.17)"/><path class="cls-1" d="M59.63,35.54,59,39.05a1,1,0,0,0,.74,1.09.89.89,0,0,0,.6-.09l3.18-1.61h.07l3.06,1.69a.92.92,0,0,0,1.35-1l-.55-3.53L70,33.13a.92.92,0,0,0,0-1.29,1,1,0,0,0-.45-.2L66,31.08l-1.55-3.46a1,1,0,0,0-.89-.53.88.88,0,0,0-.78.52L61.21,31l-3.53.46a.92.92,0,0,0-.8,1,1,1,0,0,0,.26.54Z" transform="translate(-1.64 -1.17)"/><path class="cls-1" d="M69.41,42.39h0v0H57.8a1.53,1.53,0,0,0-1.55,1.5V59.54H71V43.92A1.53,1.53,0,0,0,69.41,42.39Z" transform="translate(-1.64 -1.17)"/><path class="cls-1" d="M80,42.78l-.52,2.8a.74.74,0,0,0,.58.87.75.75,0,0,0,.49-.07l2.54-1.29h.06l2.49,1.33a.75.75,0,0,0,1-.29.71.71,0,0,0,.08-.47l-.47-2.74,2.06-2a.72.72,0,0,0,0-1,.67.67,0,0,0-.35-.27l-2.82-.44-1.23-2.79a.81.81,0,0,0-.71-.43.72.72,0,0,0-.63.42l-1.32,2.74-2.82.37a.75.75,0,0,0-.63.85.72.72,0,0,0,.2.41Z" transform="translate(-1.64 -1.17)"/><path class="cls-1" d="M87.43,47.84H78.92a1.1,1.1,0,0,0-1.14,1.06V59.54H88.55V48.92A1.1,1.1,0,0,0,87.43,47.84Z" transform="translate(-1.64 -1.17)"/></svg>