<svg width="136" height="115" viewBox="0 0 136 115" fill="none" xmlns="http://www.w3.org/2000/svg">
<path d="M47.2099 112.139C47.2099 113.437 46.1605 114.496 44.8437 114.496C43.5462 114.496 42.4965 113.437 42.4965 112.139V92.303H4.71336V112.139C4.71336 113.437 3.65426 114.496 2.35668 114.496C1.04963 114.496 0 113.437 0 112.139V89.9463C0 88.7061 0.954184 87.6851 2.17551 87.5897H2.23282L2.34721 87.5802H21.2388V67.7536C21.2388 66.456 22.2884 65.3969 23.5955 65.3969L23.8721 65.4159L24.1011 65.4064H65.6432V45.5703C65.6432 44.2728 66.6928 43.2231 67.9904 43.2231C69.3069 43.2231 70.3566 44.2728 70.3566 45.5703V65.4064H111.899L112.109 65.4159L112.395 65.3969C113.692 65.3969 114.742 66.456 114.742 67.7536V87.5802H133.634L133.71 87.5897H133.748H133.767H133.805H133.825L133.844 87.5991C135.065 87.7138 136 88.7155 136 89.9463V112.139C136 113.437 134.95 114.496 133.634 114.496C132.336 114.496 131.287 113.437 131.287 112.139V92.303H93.5035V112.139C93.5035 113.437 92.4541 114.496 91.1373 114.496C89.8397 114.496 88.7901 113.437 88.7901 112.139V89.9463C88.7901 88.7061 89.7443 87.6851 90.9656 87.5897H91.0229L91.1373 87.5802H110.029V70.1198H68.1813L67.9904 70.1292L67.8185 70.1198H25.9522V87.5802H44.8437L44.92 87.5897H44.9581H44.9771H45.0152H45.0344L45.0725 87.5991C46.2747 87.7138 47.2096 88.7155 47.2096 89.9463V112.139H47.2099ZM70.3184 1.69075L74.5546 14.8288L88.3702 14.8004C89.7059 14.8004 90.7937 15.8881 90.7937 17.2333C90.7937 18.0445 90.4122 18.7599 89.8016 19.199V19.2085L78.6193 27.2993L82.9127 40.4186C83.3135 41.7067 82.6264 43.0806 81.348 43.4908C80.5082 43.7579 79.6497 43.567 79.02 43.0517L67.9904 34.999L56.8367 43.1471C55.7587 43.9296 54.2318 43.7006 53.4401 42.6128C52.9632 41.9547 52.8582 41.1435 53.0965 40.4281L53.087 40.4186L57.3805 27.2993L46.1981 19.2085C45.1104 18.4165 44.8624 16.8899 45.6544 15.8024C46.1603 15.1059 46.9614 14.753 47.7726 14.8006L61.4452 14.8291L65.6813 1.69099C66.082 0.412348 67.4561 -0.293637 68.7345 0.116791C69.517 0.364505 70.0894 0.965576 70.3184 1.69075ZM70.4712 18.0061L67.9907 10.3636L65.5291 18.0061C65.2143 18.9889 64.2888 19.6949 63.2105 19.6949L55.1673 19.6757L61.6458 24.3702L61.6744 24.3891C62.514 24.9999 62.8958 26.0874 62.5713 27.1178L60.0716 34.7698L67.9525 30.0567L75.9289 34.7698L73.4484 27.1752C73.1047 26.1828 73.4292 25.038 74.3071 24.3891L80.8142 19.6757L72.876 19.6949H72.7805C71.7496 19.6949 70.7956 19.0365 70.4712 18.0061Z" fill="white"/>
</svg>
