<svg xmlns="http://www.w3.org/2000/svg" viewBox="0 0 78.18 60.13"><defs><style>.cls-1{fill:none;stroke:#fff;stroke-miterlimit:10;stroke-width:2px;}</style></defs><path fill="none" stroke="#fff" stroke-miterlimit="10" stroke-width="2px" d="M42.76,28.36H22a1.54,1.54,0,0,0-1.59,1.49h0V59.12H44.32V29.91a1.54,1.54,0,0,0-1.53-1.55h0Z" transform="translate(-0.09 0)"/><path fill="none" stroke="#fff" stroke-miterlimit="10" stroke-width="2px" d="M43.33,9.35l-6.47-1L34,2a1.76,1.76,0,0,0-1.59-1A1.56,1.56,0,0,0,31,2L28,8.24l-6.54.85A1.71,1.71,0,0,0,20,11a1.73,1.73,0,0,0,.49,1l4.63,4.63L24,23a1.7,1.7,0,0,0,2.45,1.84l5.82-3,.14.06,5.62,3a1.7,1.7,0,0,0,2.29-.64,1.72,1.72,0,0,0,.19-1.09l-1-6.47,4.73-4.53a1.67,1.67,0,0,0-.9-2.82Z" transform="translate(-0.09 0)"/><path fill="none" stroke="#fff" stroke-miterlimit="10" stroke-width="2px" d="M15.81,25.2l-4.1-.65-1.8-4a1.16,1.16,0,0,0-1-.63,1,1,0,0,0-.91.61l-1.9,4L2,25A1.07,1.07,0,0,0,1.1,26.2a1,1,0,0,0,.3.62l2.94,2.94-.81,4.08a1.09,1.09,0,0,0,.87,1.27h0a1.07,1.07,0,0,0,.68-.1l3.69-1.88h.09l3.56,1.92a1,1,0,0,0,1.45-.35h0A1,1,0,0,0,14,34l-.65-4.1,3-2.87a1.07,1.07,0,0,0,0-1.5h0A1,1,0,0,0,15.81,25.2Z" transform="translate(-0.09 0)"/><path fill="none" stroke="#fff" stroke-miterlimit="10" stroke-width="2px" d="M61.87,29.66l-3.52-.56L56.8,25.64a1,1,0,0,0-.89-.53.88.88,0,0,0-.78.52L53.52,29,50,29.49a.92.92,0,0,0-.8,1,.84.84,0,0,0,.26.54L52,33.56l-.65,3.51a1,1,0,0,0,.7,1.09.89.89,0,0,0,.6-.09l3.21-1.63h.07l3.06,1.69a.92.92,0,0,0,1.35-1l-.55-3.53,2.58-2.47a.92.92,0,0,0,0-1.29A1.18,1.18,0,0,0,61.87,29.66Z" transform="translate(-0.09 0)"/><path fill="none" stroke="#fff" stroke-miterlimit="10" stroke-width="2px" d="M14.69,38.57H3.08a1.56,1.56,0,0,0-1.56,1.56h0v19H16.24v-19A1.56,1.56,0,0,0,14.69,38.57Z" transform="translate(-0.09 0)"/><path fill="none" stroke="#fff" stroke-miterlimit="10" stroke-width="2px" d="M61.72,42H50.11a1.53,1.53,0,0,0-1.55,1.5V59.12H63.27V43.5A1.53,1.53,0,0,0,61.72,42Z" transform="translate(-0.09 0)"/><path fill="none" stroke="#fff" stroke-miterlimit="10" stroke-width="2px" d="M76.7,37l-2.82-.44-1.23-2.79a.82.82,0,0,0-.71-.43.71.71,0,0,0-.63.42L70,36.47l-2.82.37a.75.75,0,0,0-.63.85.69.69,0,0,0,.2.41l2,2-.52,2.8a.74.74,0,0,0,.58.87.76.76,0,0,0,.49-.07l2.54-1.29h.06l2.49,1.33a.75.75,0,0,0,1-.29.84.84,0,0,0,.08-.47L75,40.24l2.06-2a.74.74,0,0,0,0-1A.71.71,0,0,0,76.7,37Z" transform="translate(-0.09 0)"/><path fill="none" stroke="#fff" stroke-miterlimit="10" stroke-width="2px" d="M76.14,47.42h-8.5a1.1,1.1,0,0,0-1.14,1.06h0V59.12H77.27V48.5a1.1,1.1,0,0,0-1.12-1.08h0Z" transform="translate(-0.09 0)"/></svg>
