 <svg xmlns="http://www.w3.org/2000/svg" viewBox="0 0 62 62"><defs><style>.cls-1{fill:#fff;}</style></defs><path fill="#fff"  d="M59,56H58V2a2,2,0,0,0-2-2H54a2,2,0,0,0-2,2V4H10V2A2,2,0,0,0,8,0H6A2,2,0,0,0,4,2V56H3a3,3,0,0,0-3,3v3H14V59a3,3,0,0,0-3-3H10V40H52V56H51a3,3,0,0,0-3,3v3H62V59A3,3,0,0,0,59,56ZM12,59v1H2V59a1,1,0,0,1,1-1h8A1,1,0,0,1,12,59ZM6,56V2H8V56Zm4-18V6H52V38ZM54,2h2V56H54Zm6,58H50V59a1,1,0,0,1,1-1h8a1,1,0,0,1,1,1Z"/><path fill="#fff"  d="M12,8V36H50V8Zm36,4H44V10h4ZM30,14V34H20V14Zm2,11h4v3H32Zm0-2V20h4v3Zm6-3h4v3H38Zm0-2V14h4v4Zm0-6V10h4v2Zm-2,0H32V10h4Zm0,2v4H32V14ZM32,30h4v4H32Zm6,0h4v4H38Zm0-2V25h4v3Zm6-3h4v3H44Zm0-2V20h4v3Zm0-5V14h4v4ZM30,10v2H14V10ZM14,14h4V34H14ZM44,34V30h4v4Z"/></svg>
