<svg width="20" height="20" viewBox="0 0 20 20" fill="none" xmlns="http://www.w3.org/2000/svg">
<path fill-rule="evenodd" clip-rule="evenodd" d="M16.2504 10C16.2504 10.2833 16.2254 10.55 16.192 10.8167L17.9504 12.1917C18.1087 12.3167 18.1504 12.5417 18.0504 12.725L16.3837 15.6083C16.2837 15.7917 16.067 15.8667 15.8754 15.7917L13.8004 14.9583C13.367 15.2833 12.9004 15.5667 12.392 15.775L12.0754 17.9833C12.0504 18.1833 11.8754 18.3333 11.667 18.3333H8.33369C8.12535 18.3333 7.95035 18.1833 7.92535 17.9833L7.60869 15.775C7.10035 15.5667 6.63369 15.2917 6.20035 14.9583L4.12535 15.7917C3.94202 15.8583 3.71702 15.7917 3.61702 15.6083L1.95035 12.725C1.85035 12.5417 1.89202 12.3167 2.05035 12.1917L3.80869 10.8167C3.77535 10.55 3.75035 10.275 3.75035 10C3.75035 9.72501 3.77535 9.45001 3.80869 9.18334L2.05035 7.80834C1.89202 7.68334 1.84202 7.45834 1.95035 7.27501L3.61702 4.39167C3.71702 4.20834 3.93369 4.13334 4.12535 4.20834L6.20035 5.04167C6.63369 4.71667 7.10035 4.43334 7.60869 4.22501L7.92535 2.01667C7.95035 1.81667 8.12535 1.66667 8.33369 1.66667H11.667C11.8754 1.66667 12.0504 1.81667 12.0754 2.01667L12.392 4.22501C12.9004 4.43334 13.367 4.70834 13.8004 5.04167L15.8754 4.20834C16.0587 4.14167 16.2837 4.20834 16.3837 4.39167L18.0504 7.27501C18.1504 7.45834 18.1087 7.68334 17.9504 7.80834L16.192 9.18334C16.2254 9.45001 16.2504 9.71667 16.2504 10ZM7.08369 10C7.08369 11.6083 8.39202 12.9167 10.0004 12.9167C11.6087 12.9167 12.917 11.6083 12.917 10C12.917 8.39167 11.6087 7.08334 10.0004 7.08334C8.39202 7.08334 7.08369 8.39167 7.08369 10Z" fill="#EEEEEE"/>
</svg>
