<svg viewBox="0 0 19 18" fill="none" xmlns="http://www.w3.org/2000/svg">
<path d="M9.26172 0C4.29122 0 0.261719 4.0295 0.261719 8.99975C0.261719 13.9708 4.29122 18 9.26172 18C14.2325 18 18.2617 13.9708 18.2617 8.99975C18.2617 4.0295 14.2325 0 9.26172 0ZM13.3892 12.9812C13.2275 13.2465 12.8822 13.3295 12.618 13.168C10.5045 11.8763 7.84447 11.5845 4.71172 12.3003C4.40972 12.3695 4.10897 12.1803 4.03997 11.8785C3.97072 11.5767 4.15922 11.2758 4.46197 11.207C7.89022 10.4233 10.831 10.7605 13.2032 12.2102C13.4677 12.3713 13.551 12.7168 13.3892 12.9812ZM14.4905 10.5305C14.287 10.8608 13.8552 10.9643 13.5252 10.7615C11.1067 9.27475 7.41847 8.844 4.55697 9.71275C4.18597 9.825 3.79397 9.61575 3.68122 9.24525C3.56947 8.87425 3.77872 8.483 4.14922 8.37025C7.41797 7.37825 11.4815 7.85875 14.2595 9.566C14.5895 9.769 14.6932 10.201 14.4905 10.5305ZM14.5855 7.97875C11.6845 6.256 6.89922 6.0975 4.12972 6.938C3.68497 7.073 3.21472 6.82175 3.07997 6.37725C2.94522 5.93225 3.19597 5.46225 3.64097 5.327C6.81997 4.362 12.105 4.5485 15.4447 6.531C15.8447 6.7685 15.976 7.285 15.739 7.6845C15.5015 8.08425 14.9845 8.21625 14.5855 7.97875Z" fill="white"/>
</svg>
