<svg width="155" height="96" viewBox="0 0 155 96" fill="none" xmlns="http://www.w3.org/2000/svg">
<path d="M57.1224 65.6364C57.6412 66.0218 58.2635 66.2237 58.8892 66.2237C59.3363 66.2237 59.7801 66.1219 60.1972 65.92C65.5094 63.3123 71.1819 60.3409 77.5001 56.8573C83.8334 60.3509 89.5059 63.3207 94.8014 65.92C95.8008 66.4089 96.9854 66.3004 97.8763 65.6331C98.7672 64.9724 99.211 63.8662 99.0308 62.7718C97.9614 56.3418 96.8502 49.5981 95.7207 42.716C100.976 37.292 105.421 32.824 109.64 28.7381C110.439 27.9607 110.735 26.8028 110.409 25.7384C110.081 24.6689 109.18 23.8814 108.08 23.6912C101.775 22.6001 95.2702 21.4789 88.8369 20.3995C87.5589 17.6466 86.2859 14.8904 85.0113 12.1359C83.4046 8.66398 81.7979 5.19038 80.1863 1.71678C79.7008 0.669026 78.6497 0 77.5001 0C76.3456 0 75.2979 0.669026 74.8124 1.71678C73.1757 5.23876 71.544 8.77076 69.9106 12.2961C68.6593 14.9972 67.408 17.6984 66.1584 20.3995C59.8769 21.4522 53.527 22.5484 47.3706 23.6112L46.9151 23.6912C45.8173 23.8798 44.9197 24.6689 44.5894 25.735C44.2607 26.8028 44.5543 27.9607 45.3585 28.7381C49.5762 32.8307 54.0241 37.2953 59.2746 42.716C58.1734 49.4379 57.0623 56.1783 55.9678 62.7718C55.7843 63.8712 56.2314 64.9757 57.1224 65.6364ZM53.6254 28.5463C58.6089 27.687 63.6708 26.8228 68.676 25.9919C69.6403 25.8284 70.4662 25.2028 70.8783 24.3152C72.3498 21.1386 73.8197 17.9636 75.2912 14.787C76.0253 13.197 76.7611 11.6037 77.5001 10.0137C78.2109 11.5503 78.9233 13.0902 79.634 14.6285C81.1289 17.8585 82.6221 21.0885 84.1187 24.3169C84.5308 25.2045 85.3516 25.8301 86.321 25.9936C91.3211 26.8245 96.3797 27.6904 101.372 28.5479C98.0348 31.8614 94.4644 35.4835 90.4219 39.6695C89.7729 40.3418 89.4809 41.2828 89.6294 42.2071C90.5103 47.5777 91.3795 52.8665 92.2321 58.0001C88.1028 55.8863 83.7133 53.5322 78.935 50.8794C78.4878 50.6308 77.994 50.5074 77.4985 50.5074C77.0013 50.5074 76.5058 50.6292 76.057 50.8794C71.2904 53.5288 66.8992 55.8796 62.7632 58.0001C63.6291 52.7697 64.5 47.4759 65.3626 42.2071C65.5161 41.2811 65.2224 40.3418 64.5701 39.6695C60.5326 35.4851 56.9622 31.8597 53.6254 28.5463Z" fill="white"/>
<path d="M2.1286 71.8078C7.08207 73.2543 12.3492 74.8927 18.604 76.9314C20.4893 82.5523 22.3696 88.1814 24.2432 93.8073C24.5952 94.8617 25.5078 95.6308 26.6006 95.7993C26.7541 95.8244 26.9043 95.836 27.0561 95.836C27.9954 95.836 28.8897 95.3856 29.4519 94.6148C32.5001 90.4204 35.6801 85.8023 39.1403 80.5335C41.8248 80.5802 44.3274 80.6036 46.7499 80.6036C50.09 80.6036 53.1932 80.5602 56.2364 80.4701C57.3442 80.4367 58.3419 79.7861 58.8207 78.7834C59.2995 77.7807 59.1777 76.5961 58.5054 75.7118C54.9133 70.9919 51.3263 66.267 47.7442 61.5405C49.5928 55.1989 51.2095 49.9251 52.7961 45.045C53.1432 43.9839 52.8629 42.8194 52.0737 42.0303C51.2846 41.2444 50.1217 40.9658 49.0623 41.3078C43.7668 43.0346 38.3044 44.8148 32.8338 46.6267C30.765 45.05 28.6961 43.4684 26.6223 41.8918C23.9162 39.8296 21.2084 37.7625 18.5006 35.7037C17.583 35.0013 16.3417 34.9029 15.3239 35.4418C14.3029 35.9806 13.6889 37.0618 13.7473 38.213C13.9242 41.6265 14.1043 45.0367 14.2829 48.4502C14.4197 51.0346 14.5565 53.6239 14.6916 56.2083C10.202 59.6385 5.67728 63.1271 1.28772 66.5073L1.15258 66.6141C0.271671 67.2948 -0.155439 68.4126 0.0514426 69.5071C0.254987 70.6115 1.06249 71.4958 2.1286 71.8078ZM19.525 59.9789C20.3041 59.3882 20.7396 58.4456 20.6895 57.4663C20.5293 54.3597 20.3642 51.2481 20.2007 48.1416C20.1339 46.8603 20.0672 45.5806 19.9971 44.2976C21.0082 45.0667 22.0209 45.8392 23.0269 46.6083C25.5128 48.5036 28.0004 50.3989 30.4863 52.2926C31.2655 52.8848 32.2865 53.055 33.2192 52.7447C37.2934 51.3899 41.376 50.0502 45.4018 48.7355C44.2206 52.5245 42.991 56.6371 41.6329 61.3186C41.3726 62.2162 41.5528 63.1872 42.1184 63.933C44.8295 67.51 47.5407 71.0854 50.2585 74.6624C49.114 74.6724 47.9461 74.6791 46.7482 74.6791C43.8802 74.6791 40.8955 74.6457 37.6187 74.5757C36.5977 74.5623 35.6333 75.0645 35.0744 75.9204C32.5902 79.7327 30.2561 83.1996 28.0204 86.4063C26.599 82.1468 25.1758 77.8908 23.7477 73.6347C23.449 72.7471 22.75 72.0547 21.8624 71.7611C17.2393 70.2478 13.1517 68.9465 9.34608 67.7819C12.7212 65.1859 16.1398 62.5582 19.525 59.9789Z" fill="white"/>
<path d="M102.923 42.0336C102.134 42.8227 101.854 43.9873 102.201 45.0484C103.787 49.9284 105.404 55.2022 107.253 61.5438C103.671 66.2704 100.083 70.9953 96.4947 75.7152C95.819 76.5994 95.6989 77.784 96.1761 78.7867C96.6549 79.7894 97.6526 80.4401 98.7637 80.4734C101.805 80.5635 104.907 80.6069 108.25 80.6069C110.668 80.6069 113.17 80.5836 115.86 80.5368C119.312 85.799 122.49 90.4171 125.545 94.6181C126.107 95.3906 127.001 95.8394 127.944 95.8394C128.094 95.8394 128.244 95.826 128.396 95.8027C129.492 95.6325 130.402 94.8634 130.754 93.8139C132.627 88.1848 134.507 82.5589 136.393 76.9348C142.648 74.8943 147.915 73.2576 152.868 71.8111C153.939 71.4975 154.742 70.6132 154.947 69.5154C155.157 68.4209 154.73 67.3031 153.846 66.6224L153.602 66.4355C149.251 63.0787 144.763 59.6185 140.305 56.2166C140.444 53.5739 140.584 50.9295 140.721 48.2884C140.899 44.9299 141.076 41.5781 141.249 38.2213C141.308 37.0701 140.694 35.989 139.673 35.4501C138.655 34.9112 137.414 35.0096 136.496 35.712C133.833 37.7391 131.177 39.7646 128.515 41.795C126.397 43.4083 124.284 45.0233 122.163 46.635C116.734 44.8315 111.252 43.0496 105.935 41.3162C104.875 40.9691 103.712 41.2444 102.923 42.0336ZM121.779 52.7464C122.709 53.0567 123.73 52.8865 124.509 52.2942C127.045 50.3656 129.576 48.4352 132.107 46.5015C133.073 45.7675 134.034 45.035 134.998 44.2993C134.935 45.5239 134.868 46.7485 134.804 47.9731C134.638 51.1364 134.472 54.303 134.306 57.4662C134.256 58.4456 134.691 59.3866 135.47 59.9789C138.855 62.5599 142.277 65.1859 145.651 67.7836C141.842 68.9482 137.754 70.2495 133.131 71.7627C132.243 72.0564 131.544 72.7521 131.246 73.6364C129.819 77.8924 128.394 82.1502 126.973 86.4079C124.734 83.1963 122.402 79.731 119.919 75.922C119.37 75.0828 118.437 74.5773 117.438 74.5773C117.416 74.5773 117.395 74.5773 117.375 74.5773C114.101 74.6474 111.113 74.6808 108.249 74.6808C107.047 74.6808 105.879 74.6741 104.738 74.6641C107.453 71.0904 110.167 67.515 112.878 63.9346C113.441 63.1888 113.621 62.2178 113.361 61.3202C112.004 56.6387 110.773 52.5261 109.592 48.7372C113.636 50.0569 117.727 51.3983 121.779 52.7464Z" fill="white"/>
</svg>
