<svg xmlns="http://www.w3.org/2000/svg" viewBox="0 0 110.56 71.34"><defs></defs><path stroke="#fff" fill="none" stroke-miterlimit="10" stroke-width="3.2px" d="M72.65,15.48,61.94,13.82,57.25,3.31a2.92,2.92,0,0,0-2.63-1.65,2.57,2.57,0,0,0-2.41,1.65l-5,10.33L36.41,15.05a2.81,2.81,0,0,0-1.65,4.78l7.66,7.66L40.64,38.07a2.8,2.8,0,0,0,2.21,3.31,2.86,2.86,0,0,0,1.84-.26l9.63-5,.24.1,9.3,5A2.77,2.77,0,0,0,68,38.35L66.31,27.64l7.83-7.5a2.76,2.76,0,0,0,0-3.9A2.72,2.72,0,0,0,72.65,15.48Z"/><path stroke="#fff" fill="none" stroke-miterlimit="10" stroke-width="3.2px" d="M108,48.74l-8.21-7.08,1.59-11.39a2.94,2.94,0,0,0-1.36-2.8,2.59,2.59,0,0,0-2.92.12L87.4,33.73l-9.93-4.54a2.81,2.81,0,0,0-3.94,3.19L76,42.93l-7.12,8a2.81,2.81,0,0,0,.13,4,2.76,2.76,0,0,0,1.7.75l10.8.89.14.21,5.27,9.13A2.81,2.81,0,0,0,90.68,67a2.93,2.93,0,0,0,1.22-1.36l4.26-10,10.61-2.21a2.78,2.78,0,0,0,2.06-3.33A2.74,2.74,0,0,0,108,48.74Z"/><path stroke="#fff" fill="none" stroke-miterlimit="10" stroke-width="3.2px" d="M31.17,30.57l-9.43,5.34L11.55,30.57a3,3,0,0,0-3.09.33,2.59,2.59,0,0,0-.87,2.8l2.5,11.18L2.47,52.7a2.82,2.82,0,0,0,0,4,2.89,2.89,0,0,0,1.66.8L14.9,58.74l5.16,9.41A2.81,2.81,0,0,0,25.13,68l4.48-9.87.24-.06,10.38-1.87a2.77,2.77,0,0,0,1.45-4.79l-7.94-7.38,1.49-10.74a2.76,2.76,0,0,0-2.44-3.05A2.68,2.68,0,0,0,31.17,30.57Z"/></svg>
