<svg viewBox="0 0 1426 275" fill="none" xmlns="http://www.w3.org/2000/svg">
<g filter="url(#filter0_d)">
<path d="M266.857 200.598H285.743" stroke="#FF2F2F" stroke-width="3" stroke-miterlimit="10" stroke-linecap="round" stroke-linejoin="round"/>
<path d="M266.857 210.042H285.743" stroke="#FF2F2F" stroke-width="3" stroke-miterlimit="10" stroke-linecap="round" stroke-linejoin="round"/>
<path d="M266.857 219.485H285.743" stroke="#FF2F2F" stroke-width="3" stroke-miterlimit="10" stroke-linecap="round" stroke-linejoin="round"/>
<path d="M271.577 228.93H281.021" stroke="#FF2F2F" stroke-width="3" stroke-miterlimit="10" stroke-linecap="round" stroke-linejoin="round"/>
<path d="M271.577 238.374H281.021" stroke="#FF2F2F" stroke-width="3" stroke-miterlimit="10" stroke-linecap="round" stroke-linejoin="round"/>
<path d="M271.577 247.817H281.021" stroke="#FF2F2F" stroke-width="3" stroke-miterlimit="10" stroke-linecap="round" stroke-linejoin="round"/>
<path d="M257.411 219.485V191.155H295.186V228.93" stroke="#FF2F2F" stroke-width="3" stroke-miterlimit="10" stroke-linecap="round" stroke-linejoin="round"/>
<path d="M1012.92 210.042H1027.08" stroke="#FF2F2F" stroke-width="3" stroke-miterlimit="10" stroke-linecap="round" stroke-linejoin="round"/>
<path d="M1012.92 219.485H1027.08" stroke="#FF2F2F" stroke-width="3" stroke-miterlimit="10" stroke-linecap="round" stroke-linejoin="round"/>
<path d="M1012.92 228.93H1027.08" stroke="#FF2F2F" stroke-width="3" stroke-miterlimit="10" stroke-linecap="round" stroke-linejoin="round"/>
<path d="M1017.64 238.374H1027.08" stroke="#FF2F2F" stroke-width="3" stroke-miterlimit="10" stroke-linecap="round" stroke-linejoin="round"/>
<path d="M1017.64 247.817H1027.08" stroke="#FF2F2F" stroke-width="3" stroke-miterlimit="10" stroke-linecap="round" stroke-linejoin="round"/>
<path d="M1003.47 228.93V200.598H1036.53V219.485" stroke="#FF2F2F" stroke-width="3" stroke-miterlimit="10" stroke-linecap="round" stroke-linejoin="round"/>
<path d="M625.719 219.485H606.832" stroke="#FF2F2F" stroke-width="3" stroke-miterlimit="10" stroke-linecap="round" stroke-linejoin="round"/>
<path d="M625.721 228.93H611.556" stroke="#FF2F2F" stroke-width="3" stroke-miterlimit="10" stroke-linecap="round" stroke-linejoin="round"/>
<path d="M625.721 238.374H611.556" stroke="#FF2F2F" stroke-width="3" stroke-miterlimit="10" stroke-linecap="round" stroke-linejoin="round"/>
<path d="M625.721 247.817H611.556" stroke="#FF2F2F" stroke-width="3" stroke-miterlimit="10" stroke-linecap="round" stroke-linejoin="round"/>
<path d="M635.165 252.54V210.042H597.39V219.485" stroke="#FF2F2F" stroke-width="3" stroke-miterlimit="10" stroke-linecap="round" stroke-linejoin="round"/>
<path d="M1357.62 238.375H1371.78" stroke="#FF2F2F" stroke-width="3" stroke-miterlimit="10" stroke-linecap="round" stroke-linejoin="round"/>
<path d="M1357.62 247.818H1371.78" stroke="#FF2F2F" stroke-width="3" stroke-miterlimit="10" stroke-linecap="round" stroke-linejoin="round"/>
<path d="M1381.22 252.54V228.93H1348.17V252.54" stroke="#FF2F2F" stroke-width="3" stroke-miterlimit="10" stroke-linecap="round" stroke-linejoin="round"/>
</g>
<g filter="url(#filter1_d)">
<path d="M1419 7H7.151V261.983H1419V7Z" stroke="#0066FF" stroke-width="3" stroke-miterlimit="10" stroke-linecap="round" stroke-linejoin="round"/>
<path d="M23.3164 47.8211C24.868 42.9421 28.2842 38.6486 33.1963 36.1067C43.022 31.0246 55.0975 34.8652 60.1796 44.6924" stroke="#0066FF" stroke-width="3" stroke-miterlimit="10" stroke-linecap="round" stroke-linejoin="round"/>
<path d="M140.327 47.2267C140.229 39.8044 142.961 32.3355 148.556 26.5896C159.747 15.0995 178.115 14.8572 189.605 26.0464" stroke="#0066FF" stroke-width="3" stroke-miterlimit="10" stroke-linecap="round" stroke-linejoin="round"/>
<path d="M287.342 54.7603C287.245 47.338 289.976 39.8691 295.571 34.1232C306.762 22.6331 325.13 22.3908 336.62 33.58" stroke="#0066FF" stroke-width="3" stroke-miterlimit="10" stroke-linecap="round" stroke-linejoin="round"/>
<path d="M568.566 50.4622C570.378 44.4922 574.47 39.2039 580.414 36.027C592.305 29.6732 607.081 34.1579 613.434 46.0498" stroke="#0066FF" stroke-width="3" stroke-miterlimit="10" stroke-linecap="round" stroke-linejoin="round"/>
<path d="M738.709 71.8729C740.288 69.0015 742.964 66.7275 746.365 65.7388C753.166 63.7628 760.273 67.6711 762.249 74.4704" stroke="#0066FF" stroke-width="3" stroke-miterlimit="10" stroke-linecap="round" stroke-linejoin="round"/>
<path d="M713.304 89.2715C714.459 85.0502 717.223 81.2638 721.33 78.9206C729.542 74.2343 739.99 77.0906 744.675 85.3045" stroke="#0066FF" stroke-width="3" stroke-miterlimit="10" stroke-linecap="round" stroke-linejoin="round"/>
<path d="M1102.78 34.9857C1104.71 27.9351 1109.33 21.6099 1116.19 17.6955C1129.9 9.86842 1147.35 14.639 1155.18 28.358" stroke="#0066FF" stroke-width="3" stroke-miterlimit="10" stroke-linecap="round" stroke-linejoin="round"/>
<path d="M635.809 67.0194C634.763 59.0659 636.748 50.703 642.024 43.827C652.578 30.0765 672.261 27.4865 686.013 38.0406" stroke="#0066FF" stroke-width="3" stroke-miterlimit="10" stroke-linecap="round" stroke-linejoin="round"/>
<path d="M703.755 66.5227C705.257 59.9491 709.268 53.94 715.437 50.0663C727.774 42.3189 744.041 46.0361 751.788 58.375" stroke="#0066FF" stroke-width="3" stroke-miterlimit="10" stroke-linecap="round" stroke-linejoin="round"/>
<path d="M834.868 34.3671C836.597 29.2443 840.281 24.7732 845.517 22.1802C855.986 16.9942 868.664 21.2742 873.85 31.7425" stroke="#0066FF" stroke-width="3" stroke-miterlimit="10" stroke-linecap="round" stroke-linejoin="round"/>
<path d="M965.371 46.5885C966.894 42.0737 970.141 38.1338 974.754 35.8494C983.979 31.2804 995.152 35.0502 999.722 44.277" stroke="#0066FF" stroke-width="3" stroke-miterlimit="10" stroke-linecap="round" stroke-linejoin="round"/>
<path d="M999.209 55.5173C1000.94 50.3945 1004.62 45.9234 1009.86 43.3304C1020.33 38.1444 1033.01 42.4244 1038.19 52.8927" stroke="#0066FF" stroke-width="3" stroke-miterlimit="10" stroke-linecap="round" stroke-linejoin="round"/>
<path d="M1154.83 66.4821C1156.25 62.2878 1159.27 58.6278 1163.55 56.5059C1172.12 52.2605 1182.5 55.764 1186.75 64.3345" stroke="#0066FF" stroke-width="3" stroke-miterlimit="10" stroke-linecap="round" stroke-linejoin="round"/>
<path d="M1361.15 34.5942C1362.27 31.2849 1364.65 28.3954 1368.03 26.7205C1374.8 23.3705 1382.99 26.135 1386.34 32.8997" stroke="#0066FF" stroke-width="3" stroke-miterlimit="10" stroke-linecap="round" stroke-linejoin="round"/>
<path d="M1330.1 43.7788C1332.1 39.8268 1335.6 36.6274 1340.14 35.1315C1349.22 32.1367 1359.01 37.0683 1362 46.1505" stroke="#0066FF" stroke-width="3" stroke-miterlimit="10" stroke-linecap="round" stroke-linejoin="round"/>
<path d="M1168.44 48.402C1170.52 41.9278 1175.08 36.2377 1181.62 32.8847C1194.7 26.1773 1210.72 31.3362 1217.43 44.414" stroke="#0066FF" stroke-width="3" stroke-miterlimit="10" stroke-linecap="round" stroke-linejoin="round"/>
<path d="M1297.66 40.5026C1298.59 34.2436 1301.91 28.3292 1307.4 24.2584C1318.39 16.1153 1333.88 18.4163 1342.02 29.4008" stroke="#0066FF" stroke-width="3" stroke-miterlimit="10" stroke-linecap="round" stroke-linejoin="round"/>
<path d="M866.112 47.2658C867.426 43.3756 870.223 39.979 874.199 38.0105C882.151 34.0721 891.78 37.3228 895.718 45.2733" stroke="#0066FF" stroke-width="3" stroke-miterlimit="10" stroke-linecap="round" stroke-linejoin="round"/>
<path d="M754.095 47.7218C758.178 40.0737 765.184 33.9712 774.145 31.2488C792.069 25.801 810.998 35.9066 816.444 53.8318" stroke="#0066FF" stroke-width="3" stroke-miterlimit="10" stroke-linecap="round" stroke-linejoin="round"/>
<path d="M1001.74 31.6838C1005.82 24.0358 1012.83 17.9333 1021.79 15.2109C1039.71 9.76306 1058.64 19.8686 1064.09 37.7938" stroke="#0066FF" stroke-width="3" stroke-miterlimit="10" stroke-linecap="round" stroke-linejoin="round"/>
<path d="M894.643 31.7544C900.964 25.8205 909.556 22.2885 918.918 22.5834C937.642 23.1733 952.329 38.8171 951.737 57.5414" stroke="#0066FF" stroke-width="3" stroke-miterlimit="10" stroke-linecap="round" stroke-linejoin="round"/>
<path d="M1072.11 39.9322C1075.73 36.5341 1080.65 34.5099 1086.02 34.6785C1096.74 35.0171 1105.15 43.9759 1104.81 54.7016" stroke="#0066FF" stroke-width="3" stroke-miterlimit="10" stroke-linecap="round" stroke-linejoin="round"/>
<path d="M165.844 45.368C167.752 42.1279 170.899 39.6117 174.833 38.5958C182.699 36.5627 190.717 41.2866 192.75 49.1529" stroke="#0066FF" stroke-width="3" stroke-miterlimit="10" stroke-linecap="round" stroke-linejoin="round"/>
<path d="M273.884 72.1679C275.793 68.9278 278.939 66.4116 282.873 65.3958C290.739 63.3626 298.758 68.0866 300.791 75.9528" stroke="#0066FF" stroke-width="3" stroke-miterlimit="10" stroke-linecap="round" stroke-linejoin="round"/>
<path d="M328.385 46.6863C330.294 43.4462 333.44 40.93 337.374 39.9141C345.24 37.881 353.259 42.6049 355.292 50.4712" stroke="#0066FF" stroke-width="3" stroke-miterlimit="10" stroke-linecap="round" stroke-linejoin="round"/>
<path d="M522.527 95.2398C524.22 89.95 527.934 85.2997 533.267 82.5532C543.937 77.0603 557.027 81.2515 562.52 91.9214" stroke="#0066FF" stroke-width="3" stroke-miterlimit="10" stroke-linecap="round" stroke-linejoin="round"/>
<path d="M464.523 103.961C466.431 100.721 469.578 98.2048 473.512 97.189C481.378 95.1559 489.396 99.8798 491.429 107.746" stroke="#0066FF" stroke-width="3" stroke-miterlimit="10" stroke-linecap="round" stroke-linejoin="round"/>
<path d="M385.864 45.1512C387.164 37.8192 391.26 30.9717 397.855 26.3637C411.044 17.146 429.191 20.362 438.407 33.5512" stroke="#0066FF" stroke-width="3" stroke-miterlimit="10" stroke-linecap="round" stroke-linejoin="round"/>
<path d="M477.975 89.256C479.276 81.924 483.372 75.0765 489.966 70.4685C503.156 61.2508 521.302 64.4668 530.518 77.656" stroke="#0066FF" stroke-width="3" stroke-miterlimit="10" stroke-linecap="round" stroke-linejoin="round"/>
<path d="M14.2901 24.5053C21.0939 20.3848 29.9504 22.5594 34.0709 29.3632" stroke="#0066FF" stroke-width="3" stroke-miterlimit="10" stroke-linecap="round" stroke-linejoin="round"/>
<path d="M112.998 48.5449C115.131 36.8712 126.324 29.1374 137.998 31.2699" stroke="#0066FF" stroke-width="3" stroke-miterlimit="10" stroke-linecap="round" stroke-linejoin="round"/>
<path d="M186.808 33.8448C198.961 27.8266 213.695 32.8004 219.713 44.9557" stroke="#0066FF" stroke-width="3" stroke-miterlimit="10" stroke-linecap="round" stroke-linejoin="round"/>
<path d="M355.292 35.3316C361.861 23.4652 376.804 19.1702 388.671 25.7392" stroke="#0066FF" stroke-width="3" stroke-miterlimit="10" stroke-linecap="round" stroke-linejoin="round"/>
<path d="M557.963 76.666C560.049 64.0262 571.986 55.4691 584.626 57.555" stroke="#0066FF" stroke-width="3" stroke-miterlimit="10" stroke-linecap="round" stroke-linejoin="round"/>
<path d="M235.243 47.5109C250.163 40.1232 268.246 46.2302 275.634 61.1485" stroke="#0066FF" stroke-width="3" stroke-miterlimit="10" stroke-linecap="round" stroke-linejoin="round"/>
<path d="M612.406 34.1219C620.796 29.9683 630.965 33.401 635.119 41.791" stroke="#0066FF" stroke-width="3" stroke-miterlimit="10" stroke-linecap="round" stroke-linejoin="round"/>
<path d="M814.83 36.3504C823.824 33.7499 833.222 38.9313 835.824 47.9248" stroke="#0066FF" stroke-width="3" stroke-miterlimit="10" stroke-linecap="round" stroke-linejoin="round"/>
<path d="M682.275 47.6118C689.58 40.0164 701.66 39.7832 709.255 47.0881" stroke="#0066FF" stroke-width="3" stroke-miterlimit="10" stroke-linecap="round" stroke-linejoin="round"/>
<path d="M1214.02 29.9711C1224.31 27.6851 1234.5 34.1714 1236.79 44.4591" stroke="#0066FF" stroke-width="3" stroke-miterlimit="10" stroke-linecap="round" stroke-linejoin="round"/>
<path d="M1241.67 38.9841C1253.68 40.173 1262.46 50.876 1261.27 62.8899" stroke="#0066FF" stroke-width="3" stroke-miterlimit="10" stroke-linecap="round" stroke-linejoin="round"/>
<path d="M1270.55 47.3094C1273.03 37.0669 1283.34 30.7763 1293.58 33.2564" stroke="#0066FF" stroke-width="3" stroke-miterlimit="10" stroke-linecap="round" stroke-linejoin="round"/>
<path d="M947.486 28.6904C954.791 21.095 966.871 20.8617 974.466 28.1667" stroke="#0066FF" stroke-width="3" stroke-miterlimit="10" stroke-linecap="round" stroke-linejoin="round"/>
<path d="M1044.18 47.6118C1051.49 40.0164 1063.57 39.7832 1071.16 47.0881" stroke="#0066FF" stroke-width="3" stroke-miterlimit="10" stroke-linecap="round" stroke-linejoin="round"/>
<path d="M1145.06 46.0303C1148.68 35.4416 1160.2 29.7906 1170.79 33.41" stroke="#0066FF" stroke-width="3" stroke-miterlimit="10" stroke-linecap="round" stroke-linejoin="round"/>
<path d="M1376.5 51.5338C1383.53 38.4214 1399.86 33.4882 1412.97 40.5162" stroke="#0066FF" stroke-width="3" stroke-miterlimit="10" stroke-linecap="round" stroke-linejoin="round"/>
<path d="M634.426 74.5396C646.601 68.5109 661.357 73.4937 667.384 85.6686" stroke="#0066FF" stroke-width="3" stroke-miterlimit="10" stroke-linecap="round" stroke-linejoin="round"/>
<path d="M250.396 78.1711C260.937 72.952 273.708 77.2591 278.922 87.7891" stroke="#0066FF" stroke-width="3" stroke-miterlimit="10" stroke-linecap="round" stroke-linejoin="round"/>
<path d="M427.652 45.1484C436.483 37.0489 450.209 37.6418 458.309 46.4742" stroke="#0066FF" stroke-width="3" stroke-miterlimit="10" stroke-linecap="round" stroke-linejoin="round"/>
<path d="M499.863 105.154C508.694 97.0549 522.421 97.6478 530.52 106.48" stroke="#0066FF" stroke-width="3" stroke-miterlimit="10" stroke-linecap="round" stroke-linejoin="round"/>
<path d="M458.454 38.2319C473.428 37.3861 486.253 48.8401 487.099 63.8141" stroke="#0066FF" stroke-width="3" stroke-miterlimit="10" stroke-linecap="round" stroke-linejoin="round"/>
<path d="M61.7059 37.0684C69.4864 35.41 77.1375 40.3732 78.7944 48.1537" stroke="#0066FF" stroke-width="3" stroke-miterlimit="10" stroke-linecap="round" stroke-linejoin="round"/>
</g>
<g filter="url(#filter2_d)">
<path d="M299.908 247.817H328.24" stroke="#8E46FF" stroke-width="3" stroke-miterlimit="10" stroke-linecap="round" stroke-linejoin="round"/>
<path d="M290.465 252.539V238.373H328.241" stroke="#8E46FF" stroke-width="3" stroke-miterlimit="10" stroke-linecap="round" stroke-linejoin="round"/>
<path d="M781.542 200.598H809.874" stroke="#8E46FF" stroke-width="3" stroke-miterlimit="10" stroke-linecap="round" stroke-linejoin="round"/>
<path d="M781.542 210.042H809.874" stroke="#8E46FF" stroke-width="3" stroke-miterlimit="10" stroke-linecap="round" stroke-linejoin="round"/>
<path d="M781.542 219.485H809.874" stroke="#8E46FF" stroke-width="3" stroke-miterlimit="10" stroke-linecap="round" stroke-linejoin="round"/>
<path d="M781.542 228.93H805.152" stroke="#8E46FF" stroke-width="3" stroke-miterlimit="10" stroke-linecap="round" stroke-linejoin="round"/>
<path d="M786.265 238.373H805.152" stroke="#8E46FF" stroke-width="3" stroke-miterlimit="10" stroke-linecap="round" stroke-linejoin="round"/>
<path d="M786.265 247.817H805.152" stroke="#8E46FF" stroke-width="3" stroke-miterlimit="10" stroke-linecap="round" stroke-linejoin="round"/>
<path d="M772.101 228.93V191.155H819.319V219.485" stroke="#8E46FF" stroke-width="3" stroke-miterlimit="10" stroke-linecap="round" stroke-linejoin="round"/>
<path d="M592.667 238.373H573.78" stroke="#8E46FF" stroke-width="3" stroke-miterlimit="10" stroke-linecap="round" stroke-linejoin="round"/>
<path d="M592.667 247.817H573.78" stroke="#8E46FF" stroke-width="3" stroke-miterlimit="10" stroke-linecap="round" stroke-linejoin="round"/>
<path d="M602.109 252.539V228.93H564.334V252.539" stroke="#8E46FF" stroke-width="3" stroke-miterlimit="10" stroke-linecap="round" stroke-linejoin="round"/>
<path d="M1296.23 238.375H1277.34" stroke="#8E46FF" stroke-width="3" stroke-miterlimit="10" stroke-linecap="round" stroke-linejoin="round"/>
<path d="M1296.23 247.818H1277.34" stroke="#8E46FF" stroke-width="3" stroke-miterlimit="10" stroke-linecap="round" stroke-linejoin="round"/>
<path d="M1305.67 228.93H1267.9V252.539" stroke="#8E46FF" stroke-width="3" stroke-miterlimit="10" stroke-linecap="round" stroke-linejoin="round"/>
<path d="M998.751 247.815H989.308" stroke="#8E46FF" stroke-width="3" stroke-miterlimit="10" stroke-linecap="round" stroke-linejoin="round"/>
<path d="M1008.19 252.538V238.372H989.308" stroke="#8E46FF" stroke-width="3" stroke-miterlimit="10" stroke-linecap="round" stroke-linejoin="round"/>
<g filter="url(#filter3_d)">
<path d="M29.7196 59.6285C33.9797 59.4215 38.0222 57.678 41.0956 54.7195C41.3026 58.9796 43.0462 63.0222 46.0046 66.0956C41.7445 66.3025 37.7019 68.0461 34.6286 71.0046C34.5017 68.3899 33.796 65.8561 32.5848 63.5799" stroke="#8E46FF" stroke-width="3" stroke-miterlimit="10" stroke-linecap="round" stroke-linejoin="round"/>
</g>
<g filter="url(#filter4_d)">
<path d="M84 189.623C87.3394 186.97 89.6059 183.196 90.3764 179C93.0296 182.339 96.8039 184.606 101 185.376C97.6602 188.03 95.3938 191.804 94.6233 196C92.9949 193.95 90.9437 192.304 88.6322 191.161" stroke="#8E46FF" stroke-width="3" stroke-miterlimit="10" stroke-linecap="round" stroke-linejoin="round"/>
</g>
<g filter="url(#filter5_d)">
<path d="M283.997 106.023C286.411 102.507 287.471 98.2338 286.977 93.9966C290.493 96.411 294.766 97.4707 299.003 96.9768C296.589 100.493 295.529 104.766 296.023 109.003C293.865 107.521 291.421 106.549 288.876 106.135" stroke="#8E46FF" stroke-width="3" stroke-miterlimit="10" stroke-linecap="round" stroke-linejoin="round"/>
</g>
<g filter="url(#filter6_d)">
<path d="M407 102.623C410.339 99.9701 412.606 96.1957 413.376 92C416.03 95.3394 419.804 97.6058 424 98.3763C420.66 101.03 418.394 104.804 417.623 109C415.995 106.95 413.944 105.304 411.632 104.161" stroke="#8E46FF" stroke-width="3" stroke-miterlimit="10" stroke-linecap="round" stroke-linejoin="round"/>
</g>
<g filter="url(#filter7_d)">
<path d="M613 195.623C616.339 192.97 618.606 189.196 619.376 185C622.03 188.339 625.804 190.606 630 191.376C626.66 194.03 624.394 197.804 623.623 202C621.995 199.95 619.944 198.304 617.632 197.161" stroke="#8E46FF" stroke-width="3" stroke-miterlimit="10" stroke-linecap="round" stroke-linejoin="round"/>
</g>
<g filter="url(#filter8_d)">
<path d="M944.977 208.641C949.135 209.589 953.498 208.998 957.255 206.977C956.307 211.135 956.897 215.498 958.919 219.255C954.76 218.307 950.397 218.897 946.641 220.919C947.223 218.366 947.226 215.736 946.672 213.218" stroke="#8E46FF" stroke-width="3" stroke-miterlimit="10" stroke-linecap="round" stroke-linejoin="round"/>
</g>
<g filter="url(#filter9_d)">
<path d="M1355.98 94.6408C1360.14 95.5888 1364.5 94.9983 1368.25 92.9769C1367.31 97.1353 1367.9 101.498 1369.92 105.255C1365.76 104.307 1361.4 104.897 1357.64 106.919C1358.22 104.366 1358.23 101.736 1357.67 99.2178" stroke="#8E46FF" stroke-width="3" stroke-miterlimit="10" stroke-linecap="round" stroke-linejoin="round"/>
</g>
</g>
<g filter="url(#filter10_d)">
<path d="M73.257 219.485H92.1439" stroke="#FF5E39" stroke-width="3" stroke-miterlimit="10" stroke-linecap="round" stroke-linejoin="round"/>
<path d="M73.257 228.93H92.1439" stroke="#FF5E39" stroke-width="3" stroke-miterlimit="10" stroke-linecap="round" stroke-linejoin="round"/>
<path d="M73.257 238.374H92.1439" stroke="#FF5E39" stroke-width="3" stroke-miterlimit="10" stroke-linecap="round" stroke-linejoin="round"/>
<path d="M73.257 247.817H92.1439" stroke="#FF5E39" stroke-width="3" stroke-miterlimit="10" stroke-linecap="round" stroke-linejoin="round"/>
<path d="M63.8144 252.539V210.042H101.59V252.539" stroke="#FF5E39" stroke-width="3" stroke-miterlimit="10" stroke-linecap="round" stroke-linejoin="round"/>
<path d="M875.981 247.815H861.816" stroke="#FF5E39" stroke-width="3" stroke-miterlimit="10" stroke-linecap="round" stroke-linejoin="round"/>
<path d="M885.425 252.538V238.372H861.816" stroke="#FF5E39" stroke-width="3" stroke-miterlimit="10" stroke-linecap="round" stroke-linejoin="round"/>
<path d="M701.269 219.485H696.548" stroke="#FF5E39" stroke-width="3" stroke-miterlimit="10" stroke-linecap="round" stroke-linejoin="round"/>
<path d="M701.269 228.929H696.548" stroke="#FF5E39" stroke-width="3" stroke-miterlimit="10" stroke-linecap="round" stroke-linejoin="round"/>
<path d="M701.269 238.372H696.548" stroke="#FF5E39" stroke-width="3" stroke-miterlimit="10" stroke-linecap="round" stroke-linejoin="round"/>
<path d="M701.269 247.817H696.548" stroke="#FF5E39" stroke-width="3" stroke-miterlimit="10" stroke-linecap="round" stroke-linejoin="round"/>
<path d="M710.715 252.539V210.042H687.105V219.485" stroke="#FF5E39" stroke-width="3" stroke-miterlimit="10" stroke-linecap="round" stroke-linejoin="round"/>
<path d="M1249.01 238.377L1225.4 238.374" stroke="#FF5E39" stroke-width="3" stroke-miterlimit="10" stroke-linecap="round" stroke-linejoin="round"/>
<path d="M1249.01 228.93H1220.68" stroke="#FF5E39" stroke-width="3" stroke-miterlimit="10" stroke-linecap="round" stroke-linejoin="round"/>
<path d="M1249.01 247.82L1225.4 247.817" stroke="#FF5E39" stroke-width="3" stroke-miterlimit="10" stroke-linecap="round" stroke-linejoin="round"/>
<path d="M1258.46 252.54V219.484H1211.24V228.93" stroke="#FF5E39" stroke-width="3" stroke-miterlimit="10" stroke-linecap="round" stroke-linejoin="round"/>
<path d="M22.1429 98.2329C20.5913 95.1402 17.4219 97.0696 15.4158 93.068C17.7906 97.804 21.0081 104.218 21.8494 105.894C22.6907 107.572 21.2113 108.993 19.756 109.723C18.1774 110.515 16.3504 110.319 15.6325 108.889C14.9147 107.458 16.0976 106.001 17.5287 105.283C18.6635 104.715 20.9329 104.07 21.8494 105.894" stroke="#FF5E39" stroke-width="3" stroke-miterlimit="10" stroke-linecap="round" stroke-linejoin="round"/>
<path d="M100.592 141.73C101.644 138.434 98.0296 137.599 99.3901 133.336C97.7783 138.383 95.5976 145.218 95.0273 147.006C94.4569 148.794 92.4057 148.776 90.8541 148.281C89.1716 147.744 88.0008 146.328 88.4884 144.803C88.9745 143.279 90.8406 143.062 92.3651 143.549C93.575 143.935 95.6488 145.06 95.0273 147.006" stroke="#FF5E39" stroke-width="3" stroke-miterlimit="10" stroke-linecap="round" stroke-linejoin="round"/>
<path d="M353.126 22.8289C354.389 19.6068 350.834 18.5413 352.467 14.3742C350.533 19.3073 347.916 25.9877 347.232 27.7349C346.547 29.4821 344.502 29.3332 342.985 28.7387C341.34 28.0946 340.264 26.6062 340.848 25.1148C341.432 23.625 343.307 23.5302 344.797 24.1141C345.978 24.5776 347.975 25.8342 347.23 27.7349" stroke="#FF5E39" stroke-width="3" stroke-miterlimit="10" stroke-linecap="round" stroke-linejoin="round"/>
<path d="M810.86 17.5008C808.541 14.9333 806 17.6378 803 14.316C806.552 18.2488 811.36 23.5722 812.618 24.9655C813.876 26.3589 812.828 28.1216 811.621 29.2133C810.31 30.3969 808.497 30.6959 807.425 29.5084C806.352 28.3211 807.104 26.601 808.293 25.5275C809.234 24.6775 811.251 23.4515 812.62 24.9668" stroke="#FF5E39" stroke-width="3" stroke-miterlimit="10" stroke-linecap="round" stroke-linejoin="round"/>
<path d="M1406.56 23.9755C1408.12 20.8844 1404.68 19.4939 1406.69 15.4953C1404.31 20.2283 1401.09 26.6393 1400.24 28.3157C1399.4 29.9922 1397.38 29.6536 1395.92 28.9222C1394.34 28.1291 1393.41 26.5475 1394.13 25.1163C1394.85 23.6866 1396.72 23.7648 1398.15 24.4842C1399.29 25.0546 1401.16 26.4903 1400.24 28.3142" stroke="#FF5E39" stroke-width="3" stroke-miterlimit="10" stroke-linecap="round" stroke-linejoin="round"/>
<path d="M206.362 99.1828C206.256 95.7245 202.569 96.1413 202.432 91.6672C202.595 96.963 202.814 104.135 202.872 106.011C202.929 107.886 200.989 108.552 199.362 108.604C197.597 108.658 196.021 107.713 195.973 106.113C195.923 104.513 197.61 103.689 199.21 103.639C200.479 103.6 202.81 103.97 202.872 106.012" stroke="#FF5E39" stroke-width="3" stroke-miterlimit="10" stroke-linecap="round" stroke-linejoin="round"/>
<path d="M357.957 184.911C359.248 181.701 355.704 180.604 357.373 176.45C355.395 181.367 352.72 188.023 352.018 189.764C351.318 191.505 349.273 191.337 347.764 190.73C346.125 190.071 345.063 188.574 345.66 187.088C346.257 185.603 348.133 185.525 349.618 186.122C350.796 186.596 352.781 187.871 352.02 189.766" stroke="#FF5E39" stroke-width="3" stroke-miterlimit="10" stroke-linecap="round" stroke-linejoin="round"/>
<path d="M465.851 166.149C466.082 162.697 462.373 162.752 462.672 158.286C462.317 163.573 461.837 170.732 461.71 172.604C461.584 174.476 459.589 174.95 457.965 174.842C456.202 174.723 454.728 173.629 454.834 172.032C454.941 170.435 456.701 169.779 458.297 169.886C459.564 169.972 461.847 170.566 461.71 172.604" stroke="#FF5E39" stroke-width="3" stroke-miterlimit="10" stroke-linecap="round" stroke-linejoin="round"/>
<path d="M539.561 178.748C539.793 175.296 536.083 175.352 536.383 170.885C536.028 176.172 535.548 183.331 535.421 185.203C535.295 187.075 533.299 187.549 531.676 187.441C529.913 187.322 528.438 186.228 528.545 184.631C528.652 183.034 530.411 182.378 532.008 182.485C533.275 182.571 535.558 183.165 535.421 185.203" stroke="#FF5E39" stroke-width="3" stroke-miterlimit="10" stroke-linecap="round" stroke-linejoin="round"/>
<path d="M924.98 99.2656C924.165 95.9021 920.642 97.0685 919.589 92.7177C920.836 97.8676 922.525 104.841 922.966 106.665C923.407 108.489 921.646 109.54 920.063 109.924C918.346 110.339 916.611 109.737 916.234 108.182C915.858 106.626 917.339 105.473 918.895 105.096C920.129 104.796 922.486 104.68 922.966 106.665" stroke="#FF5E39" stroke-width="3" stroke-miterlimit="10" stroke-linecap="round" stroke-linejoin="round"/>
<path d="M1051.8 212.548C1050.99 209.184 1047.47 210.351 1046.41 206C1047.66 211.15 1049.35 218.124 1049.79 219.948C1050.23 221.772 1048.47 222.822 1046.89 223.206C1045.17 223.621 1043.44 223.019 1043.06 221.465C1042.68 219.909 1044.16 218.756 1045.72 218.378C1046.95 218.079 1049.31 217.963 1049.79 219.948" stroke="#FF5E39" stroke-width="3" stroke-miterlimit="10" stroke-linecap="round" stroke-linejoin="round"/>
<path d="M1161.8 85.5479C1160.99 82.1844 1157.47 83.3507 1156.41 79C1157.66 84.1499 1159.35 91.1237 1159.79 92.9477C1160.23 94.7716 1158.47 95.8221 1156.89 96.2058C1155.17 96.6212 1153.44 96.0192 1153.06 94.4646C1152.68 92.9085 1154.16 91.7558 1155.72 91.378C1156.95 91.0801 1159.31 90.9627 1159.79 92.9477" stroke="#FF5E39" stroke-width="3" stroke-miterlimit="10" stroke-linecap="round" stroke-linejoin="round"/>
<path d="M1253.42 108.893C1252.1 105.696 1248.8 107.392 1247.09 103.257C1249.11 108.152 1251.86 114.781 1252.58 116.515C1253.3 118.249 1251.72 119.559 1250.21 120.183C1248.58 120.858 1246.77 120.532 1246.16 119.054C1245.55 117.575 1246.83 116.207 1248.31 115.593C1249.49 115.107 1251.8 114.628 1252.58 116.515" stroke="#FF5E39" stroke-width="3" stroke-miterlimit="10" stroke-linecap="round" stroke-linejoin="round"/>
<path d="M1412.3 158.293C1411.49 154.93 1407.96 156.096 1406.91 151.745C1408.16 156.895 1409.85 163.869 1410.29 165.693C1410.73 167.517 1408.97 168.567 1407.38 168.951C1405.67 169.366 1403.93 168.764 1403.55 167.21C1403.18 165.654 1404.66 164.501 1406.22 164.123C1407.45 163.825 1409.81 163.708 1410.29 165.693" stroke="#FF5E39" stroke-width="3" stroke-miterlimit="10" stroke-linecap="round" stroke-linejoin="round"/>
<path d="M764.804 216.548C763.99 213.184 760.467 214.351 759.414 210C760.661 215.15 762.348 222.124 762.791 223.948C763.232 225.772 761.471 226.822 759.888 227.206C758.171 227.621 756.435 227.019 756.059 225.465C755.683 223.91 757.164 222.756 758.72 222.378C759.954 222.079 762.311 221.963 762.791 223.948" stroke="#FF5E39" stroke-width="3" stroke-miterlimit="10" stroke-linecap="round" stroke-linejoin="round"/>
</g>
<defs>
<filter id="filter0_d" x="250.911" y="184.655" width="1136.81" height="74.385" filterUnits="userSpaceOnUse" color-interpolation-filters="sRGB">
<feFlood flood-opacity="0" result="BackgroundImageFix"/>
<feColorMatrix in="SourceAlpha" type="matrix" values="0 0 0 0 0 0 0 0 0 0 0 0 0 0 0 0 0 0 127 0"/>
<feOffset/>
<feGaussianBlur stdDeviation="2.5"/>
<feColorMatrix type="matrix" values="0 0 0 0 1 0 0 0 0 0 0 0 0 0 0 0 0 0 1 0"/>
<feBlend mode="normal" in2="BackgroundImageFix" result="effect1_dropShadow"/>
<feBlend mode="normal" in="SourceGraphic" in2="effect1_dropShadow" result="shape"/>
</filter>
<filter id="filter1_d" x="0.651001" y="0.5" width="1424.85" height="267.983" filterUnits="userSpaceOnUse" color-interpolation-filters="sRGB">
<feFlood flood-opacity="0" result="BackgroundImageFix"/>
<feColorMatrix in="SourceAlpha" type="matrix" values="0 0 0 0 0 0 0 0 0 0 0 0 0 0 0 0 0 0 127 0"/>
<feOffset/>
<feGaussianBlur stdDeviation="2.5"/>
<feColorMatrix type="matrix" values="0 0 0 0 0 0 0 0 0 0.4 0 0 0 0 1 0 0 0 1 0"/>
<feBlend mode="normal" in2="BackgroundImageFix" result="effect1_dropShadow"/>
<feBlend mode="normal" in="SourceGraphic" in2="effect1_dropShadow" result="shape"/>
</filter>
<filter id="filter2_d" x="3.90659" y="28.9065" width="1393.1" height="245.133" filterUnits="userSpaceOnUse" color-interpolation-filters="sRGB">
<feFlood flood-opacity="0" result="BackgroundImageFix"/>
<feColorMatrix in="SourceAlpha" type="matrix" values="0 0 0 0 0 0 0 0 0 0 0 0 0 0 0 0 0 0 127 0"/>
<feOffset/>
<feGaussianBlur stdDeviation="10"/>
<feColorMatrix type="matrix" values="0 0 0 0 0.411765 0 0 0 0 0.0431373 0 0 0 0 1 0 0 0 1 0"/>
<feBlend mode="normal" in2="BackgroundImageFix" result="effect1_dropShadow"/>
<feBlend mode="normal" in="SourceGraphic" in2="effect1_dropShadow" result="shape"/>
</filter>
<filter id="filter3_d" x="15.9066" y="40.9065" width="43.911" height="43.911" filterUnits="userSpaceOnUse" color-interpolation-filters="sRGB">
<feFlood flood-opacity="0" result="BackgroundImageFix"/>
<feColorMatrix in="SourceAlpha" type="matrix" values="0 0 0 0 0 0 0 0 0 0 0 0 0 0 0 0 0 0 127 0"/>
<feOffset/>
<feGaussianBlur stdDeviation="4"/>
<feColorMatrix type="matrix" values="0 0 0 0 0.555506 0 0 0 0 0.275 0 0 0 0 1 0 0 0 1 0"/>
<feBlend mode="normal" in2="BackgroundImageFix" result="effect1_dropShadow"/>
<feBlend mode="normal" in="SourceGraphic" in2="effect1_dropShadow" result="shape"/>
</filter>
<filter id="filter4_d" x="74.4999" y="169.5" width="35.9998" height="35.9998" filterUnits="userSpaceOnUse" color-interpolation-filters="sRGB">
<feFlood flood-opacity="0" result="BackgroundImageFix"/>
<feColorMatrix in="SourceAlpha" type="matrix" values="0 0 0 0 0 0 0 0 0 0 0 0 0 0 0 0 0 0 127 0"/>
<feOffset/>
<feGaussianBlur stdDeviation="4"/>
<feColorMatrix type="matrix" values="0 0 0 0 0.555506 0 0 0 0 0.275 0 0 0 0 1 0 0 0 1 0"/>
<feBlend mode="normal" in2="BackgroundImageFix" result="effect1_dropShadow"/>
<feBlend mode="normal" in="SourceGraphic" in2="effect1_dropShadow" result="shape"/>
</filter>
<filter id="filter5_d" x="271.007" y="81.0068" width="40.9861" height="40.9861" filterUnits="userSpaceOnUse" color-interpolation-filters="sRGB">
<feFlood flood-opacity="0" result="BackgroundImageFix"/>
<feColorMatrix in="SourceAlpha" type="matrix" values="0 0 0 0 0 0 0 0 0 0 0 0 0 0 0 0 0 0 127 0"/>
<feOffset/>
<feGaussianBlur stdDeviation="4"/>
<feColorMatrix type="matrix" values="0 0 0 0 0.555506 0 0 0 0 0.275 0 0 0 0 1 0 0 0 1 0"/>
<feBlend mode="normal" in2="BackgroundImageFix" result="effect1_dropShadow"/>
<feBlend mode="normal" in="SourceGraphic" in2="effect1_dropShadow" result="shape"/>
</filter>
<filter id="filter6_d" x="397.5" y="82.4999" width="35.9998" height="35.9998" filterUnits="userSpaceOnUse" color-interpolation-filters="sRGB">
<feFlood flood-opacity="0" result="BackgroundImageFix"/>
<feColorMatrix in="SourceAlpha" type="matrix" values="0 0 0 0 0 0 0 0 0 0 0 0 0 0 0 0 0 0 127 0"/>
<feOffset/>
<feGaussianBlur stdDeviation="4"/>
<feColorMatrix type="matrix" values="0 0 0 0 0.555506 0 0 0 0 0.275 0 0 0 0 1 0 0 0 1 0"/>
<feBlend mode="normal" in2="BackgroundImageFix" result="effect1_dropShadow"/>
<feBlend mode="normal" in="SourceGraphic" in2="effect1_dropShadow" result="shape"/>
</filter>
<filter id="filter7_d" x="603.5" y="175.5" width="35.9998" height="35.9998" filterUnits="userSpaceOnUse" color-interpolation-filters="sRGB">
<feFlood flood-opacity="0" result="BackgroundImageFix"/>
<feColorMatrix in="SourceAlpha" type="matrix" values="0 0 0 0 0 0 0 0 0 0 0 0 0 0 0 0 0 0 127 0"/>
<feOffset/>
<feGaussianBlur stdDeviation="4"/>
<feColorMatrix type="matrix" values="0 0 0 0 0.555506 0 0 0 0 0.275 0 0 0 0 1 0 0 0 1 0"/>
<feBlend mode="normal" in2="BackgroundImageFix" result="effect1_dropShadow"/>
<feBlend mode="normal" in="SourceGraphic" in2="effect1_dropShadow" result="shape"/>
</filter>
<filter id="filter8_d" x="929.891" y="191.891" width="44.1127" height="44.1127" filterUnits="userSpaceOnUse" color-interpolation-filters="sRGB">
<feFlood flood-opacity="0" result="BackgroundImageFix"/>
<feColorMatrix in="SourceAlpha" type="matrix" values="0 0 0 0 0 0 0 0 0 0 0 0 0 0 0 0 0 0 127 0"/>
<feOffset/>
<feGaussianBlur stdDeviation="4"/>
<feColorMatrix type="matrix" values="0 0 0 0 0.555506 0 0 0 0 0.275 0 0 0 0 1 0 0 0 1 0"/>
<feBlend mode="normal" in2="BackgroundImageFix" result="effect1_dropShadow"/>
<feBlend mode="normal" in="SourceGraphic" in2="effect1_dropShadow" result="shape"/>
</filter>
<filter id="filter9_d" x="1340.89" y="77.8914" width="44.1127" height="44.1127" filterUnits="userSpaceOnUse" color-interpolation-filters="sRGB">
<feFlood flood-opacity="0" result="BackgroundImageFix"/>
<feColorMatrix in="SourceAlpha" type="matrix" values="0 0 0 0 0 0 0 0 0 0 0 0 0 0 0 0 0 0 127 0"/>
<feOffset/>
<feGaussianBlur stdDeviation="4"/>
<feColorMatrix type="matrix" values="0 0 0 0 0.555506 0 0 0 0 0.275 0 0 0 0 1 0 0 0 1 0"/>
<feBlend mode="normal" in2="BackgroundImageFix" result="effect1_dropShadow"/>
<feBlend mode="normal" in="SourceGraphic" in2="effect1_dropShadow" result="shape"/>
</filter>
<filter id="filter10_d" x="8.9155" y="6.27673" width="1409.88" height="252.763" filterUnits="userSpaceOnUse" color-interpolation-filters="sRGB">
<feFlood flood-opacity="0" result="BackgroundImageFix"/>
<feColorMatrix in="SourceAlpha" type="matrix" values="0 0 0 0 0 0 0 0 0 0 0 0 0 0 0 0 0 0 127 0"/>
<feOffset/>
<feGaussianBlur stdDeviation="2.5"/>
<feColorMatrix type="matrix" values="0 0 0 0 1 0 0 0 0 0.368627 0 0 0 0 0.223529 0 0 0 1 0"/>
<feBlend mode="normal" in2="BackgroundImageFix" result="effect1_dropShadow"/>
<feBlend mode="normal" in="SourceGraphic" in2="effect1_dropShadow" result="shape"/>
</filter>
</defs>
</svg>
