<svg width="1412" height="255" viewBox="0 0 1412 255" fill="none" xmlns="http://www.w3.org/2000/svg">
<g filter="url(#filter0_d)">
<path d="M146.531 75.5504H189.027V47.2186H132.365V207.764H104.033V47.2186H47.3699V75.5504H89.8675" stroke="white" stroke-width="3" stroke-miterlimit="10" stroke-linecap="round" stroke-linejoin="round"/>
<path d="M387.349 99.1597V75.5504H462.899V47.2186H359.017V207.764H462.899V179.432H387.349V113.326H462.899V141.657H401.513" stroke="white" stroke-width="3" stroke-miterlimit="10" stroke-linecap="round" stroke-linejoin="round"/>
<path d="M565.669 184.155L557.336 207.764H529.005L542.338 169.989H628.998L642.332 207.764H670.662L614 47.2186H585.668L581.843 58.0586L552.337 141.657H618.999L599.834 87.355L584.002 132.214" stroke="white" stroke-width="3" stroke-miterlimit="10" stroke-linecap="round" stroke-linejoin="round"/>
<path d="M734.824 146.38L769.823 47.2186H798.153L741.491 207.764L684.828 47.2186H656.496L713.16 207.764" stroke="white" stroke-width="3" stroke-miterlimit="10" stroke-linecap="round" stroke-linejoin="round"/>
<path d="M1185.35 176.251C1196.52 170.946 1204.24 159.564 1204.24 146.378V47.2186H1232.57V146.378C1232.57 180.28 1205.09 207.763 1171.18 207.763V179.432C1152.93 179.432 1138.13 164.635 1138.13 146.38V47.2201H1109.8V146.38C1109.8 175.405 1129.95 199.726 1157.02 206.122" stroke="white" stroke-width="3" stroke-miterlimit="10" stroke-linecap="round" stroke-linejoin="round"/>
<path d="M1123.97 56.9586V143.724C1123.97 169.988 1137.52 185.257 1157.02 191.48" stroke="white" stroke-width="3" stroke-miterlimit="10" stroke-linecap="round" stroke-linejoin="round"/>
<path d="M1218.4 56.9586V143.724C1218.4 169.988 1204.84 185.257 1185.35 191.48" stroke="white" stroke-width="3" stroke-miterlimit="10" stroke-linecap="round" stroke-linejoin="round"/>
<path d="M236.245 99.1597V47.2186H207.915V113.326H302.352V47.2186H330.684V207.764H302.352V141.657H207.915V207.764H236.245V155.823" stroke="white" stroke-width="3" stroke-miterlimit="10" stroke-linecap="round" stroke-linejoin="round"/>
<path d="M987.032 119.464V207.764H958.7V47.2186L1053.14 207.764H1081.47V47.2186H1053.14V159.601L987.032 47.2186" stroke="white" stroke-width="3" stroke-miterlimit="10" stroke-linecap="round" stroke-linejoin="round"/>
<path d="M61.5367 61.3846H89.8684" stroke="white" stroke-width="3" stroke-miterlimit="10" stroke-linecap="round" stroke-linejoin="round"/>
<path d="M146.531 61.3846H174.861" stroke="white" stroke-width="3" stroke-miterlimit="10" stroke-linecap="round" stroke-linejoin="round"/>
<path d="M401.513 127.492H448.734" stroke="white" stroke-width="3" stroke-miterlimit="10" stroke-linecap="round" stroke-linejoin="round"/>
<path d="M118.201 193.598V47.2201" stroke="white" stroke-width="3" stroke-miterlimit="10" stroke-linecap="round" stroke-linejoin="round"/>
<path d="M316.518 193.598V61.3846V127.492H207.915" stroke="white" stroke-width="3" stroke-miterlimit="10" stroke-linecap="round" stroke-linejoin="round"/>
<path d="M448.734 61.3846H373.184V193.598H448.734" stroke="white" stroke-width="3" stroke-miterlimit="10" stroke-linecap="round" stroke-linejoin="round"/>
<path d="M854.817 99.1597V75.5504H930.367V47.2186H826.485V207.764H930.367V179.432H854.817V113.326H930.367V141.657H868.983" stroke="white" stroke-width="3" stroke-miterlimit="10" stroke-linecap="round" stroke-linejoin="round"/>
<path d="M868.983 127.492H916.202" stroke="white" stroke-width="3" stroke-miterlimit="10" stroke-linecap="round" stroke-linejoin="round"/>
<path d="M916.201 61.3846H840.651V193.598H916.201" stroke="white" stroke-width="3" stroke-miterlimit="10" stroke-linecap="round" stroke-linejoin="round"/>
<path d="M1289.23 99.1597V75.5504H1364.78V47.2186H1260.9V207.764H1364.78V179.432H1289.23V113.326H1364.78V141.657H1303.4" stroke="white" stroke-width="3" stroke-miterlimit="10" stroke-linecap="round" stroke-linejoin="round"/>
<path d="M1303.4 127.492H1350.62" stroke="white" stroke-width="3" stroke-miterlimit="10" stroke-linecap="round" stroke-linejoin="round"/>
<path d="M1350.62 61.3846H1275.07V193.598H1350.62" stroke="white" stroke-width="3" stroke-miterlimit="10" stroke-linecap="round" stroke-linejoin="round"/>
<path d="M222.081 99.1598V61.3846" stroke="white" stroke-width="3" stroke-miterlimit="10" stroke-linecap="round" stroke-linejoin="round"/>
<path d="M222.081 193.599V155.823" stroke="white" stroke-width="3" stroke-miterlimit="10" stroke-linecap="round" stroke-linejoin="round"/>
<path d="M652.691 198.309L604.365 61.3846H594.974L569.976 132.214" stroke="white" stroke-width="3" stroke-miterlimit="10" stroke-linecap="round" stroke-linejoin="round"/>
<path d="M553.31 179.433L547.309 196.44" stroke="white" stroke-width="3" stroke-miterlimit="10" stroke-linecap="round" stroke-linejoin="round"/>
<path d="M547.893 155.823H637.696" stroke="white" stroke-width="3" stroke-miterlimit="10" stroke-linecap="round" stroke-linejoin="round"/>
<path d="M673.995 56.6634L727.325 207.764" stroke="white" stroke-width="3" stroke-miterlimit="10" stroke-linecap="round" stroke-linejoin="round"/>
<path d="M780.655 56.6634L741.87 166.553" stroke="white" stroke-width="3" stroke-miterlimit="10" stroke-linecap="round" stroke-linejoin="round"/>
<path d="M972.865 193.598V95.3821" stroke="white" stroke-width="3" stroke-miterlimit="10" stroke-linecap="round" stroke-linejoin="round"/>
<path d="M1067.3 61.3845V193.598H1058.97L972.865 47.2186" stroke="white" stroke-width="3" stroke-miterlimit="10" stroke-linecap="round" stroke-linejoin="round"/>
</g>
<g filter="url(#filter1_d)">
<path d="M146.531 75.5504H189.027V47.2186H132.365V207.764H104.033V47.2186H47.3699V75.5504H89.8675" stroke="white" stroke-width="3" stroke-miterlimit="10" stroke-linecap="round" stroke-linejoin="round"/>
<path d="M387.349 99.1597V75.5504H462.899V47.2186H359.017V207.764H462.899V179.432H387.349V113.326H462.899V141.657H401.513" stroke="white" stroke-width="3" stroke-miterlimit="10" stroke-linecap="round" stroke-linejoin="round"/>
<path d="M565.669 184.155L557.336 207.764H529.005L542.338 169.989H628.998L642.332 207.764H670.662L614 47.2186H585.668L581.843 58.0586L552.337 141.657H618.999L599.834 87.355L584.002 132.214" stroke="white" stroke-width="3" stroke-miterlimit="10" stroke-linecap="round" stroke-linejoin="round"/>
<path d="M734.824 146.38L769.823 47.2186H798.153L741.491 207.764L684.828 47.2186H656.496L713.16 207.764" stroke="white" stroke-width="3" stroke-miterlimit="10" stroke-linecap="round" stroke-linejoin="round"/>
<path d="M1185.35 176.251C1196.52 170.946 1204.24 159.564 1204.24 146.378V47.2186H1232.57V146.378C1232.57 180.28 1205.09 207.763 1171.18 207.763V179.432C1152.93 179.432 1138.13 164.635 1138.13 146.38V47.2201H1109.8V146.38C1109.8 175.405 1129.95 199.726 1157.02 206.122" stroke="white" stroke-width="3" stroke-miterlimit="10" stroke-linecap="round" stroke-linejoin="round"/>
<path d="M1123.97 56.9586V143.724C1123.97 169.988 1137.52 185.257 1157.02 191.48" stroke="white" stroke-width="3" stroke-miterlimit="10" stroke-linecap="round" stroke-linejoin="round"/>
<path d="M1218.4 56.9586V143.724C1218.4 169.988 1204.84 185.257 1185.35 191.48" stroke="white" stroke-width="3" stroke-miterlimit="10" stroke-linecap="round" stroke-linejoin="round"/>
<path d="M236.245 99.1597V47.2186H207.915V113.326H302.352V47.2186H330.684V207.764H302.352V141.657H207.915V207.764H236.245V155.823" stroke="white" stroke-width="3" stroke-miterlimit="10" stroke-linecap="round" stroke-linejoin="round"/>
<path d="M987.032 119.464V207.764H958.7V47.2186L1053.14 207.764H1081.47V47.2186H1053.14V159.601L987.032 47.2186" stroke="white" stroke-width="3" stroke-miterlimit="10" stroke-linecap="round" stroke-linejoin="round"/>
<path d="M61.5367 61.3846H89.8684" stroke="white" stroke-width="3" stroke-miterlimit="10" stroke-linecap="round" stroke-linejoin="round"/>
<path d="M146.531 61.3846H174.861" stroke="white" stroke-width="3" stroke-miterlimit="10" stroke-linecap="round" stroke-linejoin="round"/>
<path d="M401.513 127.492H448.734" stroke="white" stroke-width="3" stroke-miterlimit="10" stroke-linecap="round" stroke-linejoin="round"/>
<path d="M118.201 193.598V47.2201" stroke="white" stroke-width="3" stroke-miterlimit="10" stroke-linecap="round" stroke-linejoin="round"/>
<path d="M316.518 193.598V61.3846V127.492H207.915" stroke="white" stroke-width="3" stroke-miterlimit="10" stroke-linecap="round" stroke-linejoin="round"/>
<path d="M448.734 61.3846H373.184V193.598H448.734" stroke="white" stroke-width="3" stroke-miterlimit="10" stroke-linecap="round" stroke-linejoin="round"/>
<path d="M854.817 99.1597V75.5504H930.367V47.2186H826.485V207.764H930.367V179.432H854.817V113.326H930.367V141.657H868.983" stroke="white" stroke-width="3" stroke-miterlimit="10" stroke-linecap="round" stroke-linejoin="round"/>
<path d="M868.983 127.492H916.202" stroke="white" stroke-width="3" stroke-miterlimit="10" stroke-linecap="round" stroke-linejoin="round"/>
<path d="M916.201 61.3846H840.651V193.598H916.201" stroke="white" stroke-width="3" stroke-miterlimit="10" stroke-linecap="round" stroke-linejoin="round"/>
<path d="M1289.23 99.1597V75.5504H1364.78V47.2186H1260.9V207.764H1364.78V179.432H1289.23V113.326H1364.78V141.657H1303.4" stroke="white" stroke-width="3" stroke-miterlimit="10" stroke-linecap="round" stroke-linejoin="round"/>
<path d="M1303.4 127.492H1350.62" stroke="white" stroke-width="3" stroke-miterlimit="10" stroke-linecap="round" stroke-linejoin="round"/>
<path d="M1350.62 61.3846H1275.07V193.598H1350.62" stroke="white" stroke-width="3" stroke-miterlimit="10" stroke-linecap="round" stroke-linejoin="round"/>
<path d="M222.081 99.1598V61.3846" stroke="white" stroke-width="3" stroke-miterlimit="10" stroke-linecap="round" stroke-linejoin="round"/>
<path d="M222.081 193.599V155.823" stroke="white" stroke-width="3" stroke-miterlimit="10" stroke-linecap="round" stroke-linejoin="round"/>
<path d="M652.691 198.309L604.365 61.3846H594.974L569.976 132.214" stroke="white" stroke-width="3" stroke-miterlimit="10" stroke-linecap="round" stroke-linejoin="round"/>
<path d="M553.31 179.433L547.309 196.44" stroke="white" stroke-width="3" stroke-miterlimit="10" stroke-linecap="round" stroke-linejoin="round"/>
<path d="M547.893 155.823H637.696" stroke="white" stroke-width="3" stroke-miterlimit="10" stroke-linecap="round" stroke-linejoin="round"/>
<path d="M673.995 56.6634L727.325 207.764" stroke="white" stroke-width="3" stroke-miterlimit="10" stroke-linecap="round" stroke-linejoin="round"/>
<path d="M780.655 56.6634L741.87 166.553" stroke="white" stroke-width="3" stroke-miterlimit="10" stroke-linecap="round" stroke-linejoin="round"/>
<path d="M972.865 193.598V95.3821" stroke="white" stroke-width="3" stroke-miterlimit="10" stroke-linecap="round" stroke-linejoin="round"/>
<path d="M1067.3 61.3845V193.598H1058.97L972.865 47.2186" stroke="white" stroke-width="3" stroke-miterlimit="10" stroke-linecap="round" stroke-linejoin="round"/>
</g>
<defs>
<filter id="filter0_d" x="37.8699" y="37.7184" width="1336.41" height="179.546" filterUnits="userSpaceOnUse" color-interpolation-filters="sRGB">
<feFlood flood-opacity="0" result="BackgroundImageFix"/>
<feColorMatrix in="SourceAlpha" type="matrix" values="0 0 0 0 0 0 0 0 0 0 0 0 0 0 0 0 0 0 127 0"/>
<feOffset/>
<feGaussianBlur stdDeviation="4"/>
<feColorMatrix type="matrix" values="0 0 0 0 1 0 0 0 0 1 0 0 0 0 1 0 0 0 1 0"/>
<feBlend mode="normal" in2="BackgroundImageFix" result="effect1_dropShadow"/>
<feBlend mode="normal" in="SourceGraphic" in2="effect1_dropShadow" result="shape"/>
</filter>
<filter id="filter1_d" x="37.8699" y="37.7184" width="1336.41" height="179.546" filterUnits="userSpaceOnUse" color-interpolation-filters="sRGB">
<feFlood flood-opacity="0" result="BackgroundImageFix"/>
<feColorMatrix in="SourceAlpha" type="matrix" values="0 0 0 0 0 0 0 0 0 0 0 0 0 0 0 0 0 0 127 0"/>
<feOffset/>
<feGaussianBlur stdDeviation="4"/>
<feColorMatrix type="matrix" values="0 0 0 0 1 0 0 0 0 1 0 0 0 0 1 0 0 0 1 0"/>
<feBlend mode="normal" in2="BackgroundImageFix" result="effect1_dropShadow"/>
<feBlend mode="normal" in="SourceGraphic" in2="effect1_dropShadow" result="shape"/>
</filter>
</defs>
</svg>
