<svg xmlns="http://www.w3.org/2000/svg" viewBox="0 0 300 170"><defs></defs><rect fill="#26211e"/><path fill="#fff" d="M57.56,71.6H53a.51.51,0,0,1-.52-.51V46.16H44.39v3.48h6.33a.5.5,0,0,1,.51.5.51.51,0,0,1-.51.51H43.87a.51.51,0,0,1-.52-.51V45.65a.51.51,0,0,1,.52-.5H53a.51.51,0,0,1,.52.5V70.58H57V45.65a.51.51,0,0,1,.52-.5h9.13a.51.51,0,0,1,.52.5v4.49a.51.51,0,0,1-.52.51H59.85a.51.51,0,0,1-.52-.51.51.51,0,0,1,.52-.5h6.32V46.16H58.08V71.09A.51.51,0,0,1,57.56,71.6Z"/><path fill="#fff" d="M110.82,71.6H94.08a.52.52,0,0,1-.52-.51V45.65a.51.51,0,0,1,.52-.5h16.74a.52.52,0,0,1,.52.5v4.49a.52.52,0,0,1-.52.51H99.16v3.23a.52.52,0,0,1-1,0V50.14a.51.51,0,0,1,.52-.51H110.3V46.16H94.6V70.58h15.7V67.11H98.65a.51.51,0,0,1-.52-.51V56.13a.51.51,0,0,1,.52-.51h12.17a.52.52,0,0,1,.52.51v4.49a.52.52,0,0,1-.52.51h-9.89a.51.51,0,1,1,0-1h9.37V56.64H99.16v9.45h11.66a.51.51,0,0,1,.52.51v4.49A.52.52,0,0,1,110.82,71.6Z"/><path fill="#fff" d="M144.29,71.6h-4.56a.52.52,0,0,1-.49-.34l-2-5.64H124l-1.78,5h3.47l1.22-3.4a.51.51,0,0,1,.66-.31.5.5,0,0,1,.31.65l-1.34,3.74a.52.52,0,0,1-.49.34h-4.56a.51.51,0,0,1-.42-.21.53.53,0,0,1-.07-.47l2.15-6a.51.51,0,0,1,.49-.34h14a.52.52,0,0,1,.49.34l2,5.64h3.47L134.8,46.16H131l-5,14h9.28l-2.36-6.57-2.06,5.75a.52.52,0,0,1-1-.34l2.55-7.11a.55.55,0,0,1,1,0l3.09,8.61a.51.51,0,0,1-.07.46.5.5,0,0,1-.42.22H125.23a.5.5,0,0,1-.42-.22.51.51,0,0,1-.07-.46l5.37-15a.52.52,0,0,1,.49-.35h4.56a.52.52,0,0,1,.49.35l9.13,25.43a.5.5,0,0,1-.07.47A.51.51,0,0,1,144.29,71.6Z"/><path fill="#fff" d="M151.14,71.6a.53.53,0,0,1-.49-.34l-9.13-25.44a.51.51,0,0,1,.07-.46.5.5,0,0,1,.42-.22h4.56a.52.52,0,0,1,.49.35l8.64,24.07,8.4-23.4h-3.47l-5.51,15.37a.53.53,0,0,1-.66.32.52.52,0,0,1-.32-.65l5.64-15.71a.52.52,0,0,1,.49-.35h4.56a.5.5,0,0,1,.42.22.48.48,0,0,1,.07.46l-9.13,25.44a.54.54,0,0,1-1,0l-9-25.1h-3.47l8.89,24.76a.51.51,0,0,1-.32.65A.47.47,0,0,1,151.14,71.6Z"/><path fill="#fff" d="M224.94,71.6a.51.51,0,0,1-.52-.51v-4a5.8,5.8,0,0,1-5.33-5.72V46.16h-3.53v15.2a9.21,9.21,0,0,0,7.21,9,.51.51,0,0,1,.39.62.53.53,0,0,1-.62.38,10.24,10.24,0,0,1-8-10V45.65a.51.51,0,0,1,.52-.51h4.56a.51.51,0,0,1,.52.51V61.36a4.78,4.78,0,0,0,4.81,4.73.51.51,0,0,1,.51.51v4a9.3,9.3,0,0,0,8.86-9.21V46.16h-3.53v15.2a5.78,5.78,0,0,1-3.34,5.2.52.52,0,0,1-.69-.24.51.51,0,0,1,.25-.68,4.74,4.74,0,0,0,2.74-4.27V45.65a.52.52,0,0,1,.52-.51h4.56a.51.51,0,0,1,.52.51V61.36A10.33,10.33,0,0,1,224.94,71.6Z"/><path fill="#fff" d="M222.65,69l-.16,0c-3.66-1.15-5.68-4-5.68-8V47.2a.51.51,0,0,1,.52-.51.52.52,0,0,1,.52.51V60.94c0,4.57,2.7,6.37,5,7.09a.49.49,0,0,1,.33.63A.5.5,0,0,1,222.65,69Z"/><path fill="#fff" d="M227.22,69a.52.52,0,0,1-.49-.35.5.5,0,0,1,.33-.64c2.27-.72,5-2.52,5-7.09V47.2a.52.52,0,0,1,1,0V60.94c0,4-2,6.9-5.68,8Z"/><path fill="#fff" d="M89.52,71.6H85a.52.52,0,0,1-.52-.51v-10H70.25v9.45h3.53V62.86a.52.52,0,0,1,1,0v8.23a.52.52,0,0,1-.52.51H69.73a.51.51,0,0,1-.51-.51V60.62a.51.51,0,0,1,.51-.51H85a.51.51,0,0,1,.52.51v10H89V46.16H85.47v10a.51.51,0,0,1-.52.51H69.73a.51.51,0,0,1-.51-.51V45.65a.51.51,0,0,1,.51-.51H74.3a.52.52,0,0,1,.52.51v8.23a.52.52,0,0,1-.52.51.51.51,0,0,1-.52-.51V46.16H70.25v9.46H84.43v-10a.52.52,0,0,1,.52-.51h4.56a.51.51,0,0,1,.52.51V71.09A.51.51,0,0,1,89.52,71.6Z"/><path fill="#fff" d="M210.48,71.6h-4.56a.54.54,0,0,1-.45-.25L191.22,47.52V70.58h3.53V57.1a.52.52,0,0,1,1,0v14a.51.51,0,0,1-.52.51H190.7a.51.51,0,0,1-.52-.51V45.65a.51.51,0,0,1,.39-.49.52.52,0,0,1,.58.24l15.06,25.18H210V46.16h-3.53v17.3a.52.52,0,0,1-1,.26L194.82,45.91a.49.49,0,0,1,.18-.69.52.52,0,0,1,.71.18l9.69,16.19V45.65a.51.51,0,0,1,.52-.51h4.56a.51.51,0,0,1,.52.51V71.09A.51.51,0,0,1,210.48,71.6Z"/><path fill="#fff" d="M50.72,48.41H46.15a.51.51,0,1,1,0-1h4.57a.51.51,0,0,1,0,1Z"/><path fill="#fff" d="M64.41,48.41H59.85a.51.51,0,1,1,0-1h4.56a.51.51,0,1,1,0,1Z"/><path fill="#fff" d="M108.54,58.88h-7.61a.51.51,0,1,1,0-1h7.61a.51.51,0,0,1,0,1Z"/><path fill="#fff" d="M55.28,69.36a.52.52,0,0,1-.52-.51V45.65a.52.52,0,0,1,.52-.51.51.51,0,0,1,.52.51v23.2A.51.51,0,0,1,55.28,69.36Z"/><path fill="#fff" d="M87.23,69.36a.51.51,0,0,1-.51-.51v-10h-17a.51.51,0,1,1,0-1h17v-10a.52.52,0,0,1,1,0V68.85A.51.51,0,0,1,87.23,69.36Z"/><path fill="#fff" d="M108.54,69.36H96.36a.52.52,0,0,1-.52-.51V47.9a.52.52,0,0,1,.52-.51h12.18a.51.51,0,0,1,0,1H96.88V68.34h11.66a.51.51,0,1,1,0,1Z"/><path fill="#fff" d="M186.14,71.6H169.4a.51.51,0,0,1-.52-.51V45.65a.51.51,0,0,1,.52-.5h16.74a.51.51,0,0,1,.51.5v4.49a.51.51,0,0,1-.51.51H174.48v3.23a.52.52,0,0,1-1,0V50.14a.51.51,0,0,1,.51-.51h11.66V46.16h-15.7V70.58h15.7V67.11H174a.51.51,0,0,1-.51-.51V56.13a.51.51,0,0,1,.51-.51h12.18a.51.51,0,0,1,.51.51v4.49a.51.51,0,0,1-.51.51h-9.9a.51.51,0,1,1,0-1h9.38V56.64H174.48v9.45h11.66a.51.51,0,0,1,.51.51v4.49A.51.51,0,0,1,186.14,71.6Z"/><path fill="#fff" d="M183.85,58.88h-7.6a.51.51,0,1,1,0-1h7.6a.51.51,0,1,1,0,1Z"/><path fill="#fff" d="M183.86,69.36H171.68a.52.52,0,0,1-.52-.51V47.9a.52.52,0,0,1,.52-.51h12.18a.51.51,0,0,1,0,1H172.2V68.34h11.66a.51.51,0,1,1,0,1Z"/><path fill="#fff" d="M256.13,71.6H239.39a.51.51,0,0,1-.51-.51V45.65a.5.5,0,0,1,.51-.5h16.74a.51.51,0,0,1,.52.5v4.49a.52.52,0,0,1-.52.51H244.47v3.23a.52.52,0,0,1-1,0V50.14a.51.51,0,0,1,.52-.51h11.65V46.16h-15.7V70.58h15.7V67.11H244a.51.51,0,0,1-.52-.51V56.13a.51.51,0,0,1,.52-.51h12.17a.51.51,0,0,1,.52.51v4.49a.52.52,0,0,1-.52.51h-9.89a.51.51,0,0,1-.52-.51.52.52,0,0,1,.52-.51h9.37V56.64H244.48v9.45h11.65a.51.51,0,0,1,.52.51v4.49A.52.52,0,0,1,256.13,71.6Z"/><path fill="#fff" d="M253.85,58.88h-7.61a.51.51,0,0,1-.52-.51.52.52,0,0,1,.52-.51h7.61a.51.51,0,0,1,0,1Z"/><path fill="#fff" d="M253.85,69.36H241.67a.51.51,0,0,1-.51-.51V47.9a.51.51,0,0,1,.51-.51h12.18a.51.51,0,0,1,0,1H242.19V68.34h11.66a.51.51,0,0,1,0,1Z"/><path fill="#fff" d="M72,54.39a.51.51,0,0,1-.52-.51v-6a.51.51,0,0,1,.52-.51.52.52,0,0,1,.52.51v6A.52.52,0,0,1,72,54.39Z"/><path fill="#fff" d="M72,69.36a.51.51,0,0,1-.52-.51v-6a.51.51,0,0,1,.52-.51.52.52,0,0,1,.52.51v6A.52.52,0,0,1,72,69.36Z"/><path fill="#fff" d="M141.4,70.1a.52.52,0,0,1-.49-.34l-7.66-21.35h-.79l-3.9,10.88a.53.53,0,0,1-.66.31.51.51,0,0,1-.32-.65l4-11.22a.52.52,0,0,1,.49-.34h1.51a.52.52,0,0,1,.49.34l7.78,21.69a.5.5,0,0,1-.31.65Z"/><path fill="#fff" d="M124.42,69.81a.47.47,0,0,1-.17,0,.51.51,0,0,1-.32-.65l1-2.7a.52.52,0,0,1,.66-.31.5.5,0,0,1,.31.65l-1,2.7A.54.54,0,0,1,124.42,69.81Z"/><path fill="#fff" d="M139,63.37H124.51a.51.51,0,0,1,0-1H139a.51.51,0,1,1,0,1Z"/><path fill="#fff" d="M153.42,71.6a.53.53,0,0,1-.49-.34l-8.59-23.94a.52.52,0,0,1,1-.34l8.59,23.94a.5.5,0,0,1-.31.65A.57.57,0,0,1,153.42,71.6Z"/><path fill="#fff" d="M155.77,65.07a.57.57,0,0,1-.18,0,.5.5,0,0,1-.31-.65L161.53,47a.52.52,0,0,1,.66-.31.5.5,0,0,1,.31.65l-6.25,17.41A.5.5,0,0,1,155.77,65.07Z"/><path fill="#fff" d="M193,69.35a.5.5,0,0,1-.51-.5V53.28a.52.52,0,0,1,1,0V68.84A.51.51,0,0,1,193,69.35Z"/><path fill="#fff" d="M208.2,69.36h-1.34a.52.52,0,0,1-.45-.26L192.54,45.91a.5.5,0,0,1,.18-.69.52.52,0,0,1,.71.18l13.72,22.94h.53V47.9a.51.51,0,0,1,.52-.51.52.52,0,0,1,.52.51V68.85A.51.51,0,0,1,208.2,69.36Z"/></svg>
