<svg width="91" height="130" viewBox="0 0 91 130" fill="none" xmlns="http://www.w3.org/2000/svg">
<g filter="url(#filter_jar_0)">
<path d="M51.687 64.8631C60.2517 68.3355 65.4541 75.7102 65.4541 84.7277C65.4541 97.8067 53.4346 100.978 50.2835 100.978C50.2835 106.309 50.2835 111.3 50.2835 111.3H41.7759C41.7759 111.3 41.7759 104.834 41.7759 101.318C37.5163 101.318 28.3037 98.395 25.6948 96.8067C26.8291 93.9711 28.7314 89.2375 28.7314 89.2375C28.7314 89.2375 37.0196 93.5353 45.6042 93.4062C52.3245 93.3049 57.0889 90.415 57.0889 84.3021C57.0889 77.4365 51.2974 73.7858 45.6086 70.9884C40.8068 68.535 36.4848 65.3627 36.4848 59.2483C36.4848 53.4634 39.6923 50.3314 46.4127 50.2302C54.9965 50.1011 60.2488 53.291 60.2488 53.291C60.2488 53.291 62.1512 48.5574 63.2854 45.7218C60.6765 44.1335 54.5006 42.3191 50.2409 42.3191C50.2409 38.8027 50.2409 32.3369 50.2409 32.3369H41.7334C41.7334 32.3369 41.7334 37.328 41.7334 42.6595C38.5823 42.6595 27.7814 46.1789 27.7814 58.9938C27.7814 67.5182 31.8568 72.8255 38.7841 76.4622" stroke="#3FED3F" stroke-width="1.2" stroke-miterlimit="10" stroke-linecap="round" stroke-linejoin="round"/>
<path d="M82.0578 41.2957V110.604C82.0578 116.332 77.4372 121 71.6611 121H19.4875C13.7107 121 9.09082 116.332 9.09082 110.604V41.2957C9.09082 35.568 13.7606 30.899 19.4875 30.899C20.3056 30.899 20.9306 30.2739 20.9306 29.4551V22.332H70.2173V29.4551C70.2173 30.2739 70.8424 30.899 71.6604 30.899C77.3881 30.899 82.0578 35.568 82.0578 41.2957Z" stroke="#3FED3F" stroke-width="1.2" stroke-miterlimit="10" stroke-linecap="round" stroke-linejoin="round"/>
<path d="M77.9171 9H13.2295V22.3321H77.9171V9Z" stroke="#3FED3F" stroke-width="1.2" stroke-miterlimit="10" stroke-linecap="round" stroke-linejoin="round"/>
<path d="M14.8499 37.0985C16.3172 36.4602 17.5035 35.312 18.1895 33.866C18.8278 35.3333 19.9759 36.5196 21.422 37.2056C19.9547 37.8439 18.7683 38.9921 18.0824 40.4381C17.794 39.7749 17.4008 39.1689 16.9232 38.6406" stroke="#3FED3F" stroke-width="1.2" stroke-miterlimit="10" stroke-linecap="round" stroke-linejoin="round"/>
<path d="M18.0162 44.5547L17.9355 49.5304" stroke="#3FED3F" stroke-width="1.2" stroke-miterlimit="10" stroke-linecap="round" stroke-linejoin="round"/>
<path d="M28.3809 31.4001C29.207 30.0296 29.5085 28.406 29.2304 26.8308C30.6009 27.6569 32.2245 27.9584 33.7997 27.6804C32.9736 29.0509 32.672 30.6745 32.9501 32.2496C32.3302 31.8762 31.6589 31.6099 30.9641 31.4558" stroke="#3FED3F" stroke-width="1.2" stroke-miterlimit="10" stroke-linecap="round" stroke-linejoin="round"/>
<path d="M35.2812 35.6443L38.0978 39.7469" stroke="#3FED3F" stroke-width="1.2" stroke-miterlimit="10" stroke-linecap="round" stroke-linejoin="round"/>
<path d="M73.01 91.7673C74.5338 91.2787 75.8287 90.2538 76.6556 88.884C77.1442 90.4078 78.1691 91.7028 79.5389 92.5296C78.015 93.0182 76.7201 94.0431 75.8933 95.4129C75.6725 94.724 75.3416 94.082 74.919 93.5083" stroke="#3FED3F" stroke-width="1.2" stroke-miterlimit="10" stroke-linecap="round" stroke-linejoin="round"/>
<path d="M75.4168 99.5029L74.8247 104.575" stroke="#3FED3F" stroke-width="1.2" stroke-miterlimit="10" stroke-linecap="round" stroke-linejoin="round"/>
<path d="M65.6628 49.465C66.855 48.3975 67.621 46.9346 67.8176 45.3469C68.8851 46.5391 70.348 47.3051 71.9356 47.5017C70.7434 48.5692 69.9775 50.0321 69.7809 51.6197C69.2981 51.0805 68.7347 50.6286 68.1155 50.2771" stroke="#3FED3F" stroke-width="1.2" stroke-miterlimit="10" stroke-linecap="round" stroke-linejoin="round"/>
<path d="M71.0112 55.5493L76.378 72.6942" stroke="#3FED3F" stroke-width="1.2" stroke-miterlimit="10" stroke-linecap="round" stroke-linejoin="round"/>
<path d="M53.3176 105.87C54.9104 105.717 56.3939 104.992 57.4936 103.83C57.6462 105.423 58.3711 106.906 59.5332 108.006C57.9404 108.159 56.457 108.884 55.3572 110.046C55.2882 109.325 55.1019 108.627 54.8114 107.977" stroke="#3FED3F" stroke-width="1.2" stroke-miterlimit="10" stroke-linecap="round" stroke-linejoin="round"/>
<path d="M54.0189 113.94L52.6719 117.86" stroke="#3FED3F" stroke-width="1.2" stroke-miterlimit="10" stroke-linecap="round" stroke-linejoin="round"/>
<path d="M19.146 80.4981C20.4637 79.5906 21.4079 78.2355 21.8041 76.6853C22.7116 78.003 24.0659 78.9472 25.6169 79.3434C24.2992 80.2509 23.355 81.6052 22.9588 83.1562C22.5487 82.5605 22.0469 82.041 21.4768 81.614" stroke="#3FED3F" stroke-width="1.2" stroke-miterlimit="10" stroke-linecap="round" stroke-linejoin="round"/>
<path d="M23.6824 87.2097L24.5796 92.2375" stroke="#3FED3F" stroke-width="1.2" stroke-miterlimit="10" stroke-linecap="round" stroke-linejoin="round"/>
<path d="M11.4724 95.4019C12.5142 94.187 13.0799 92.636 13.0659 91.0359C14.2809 92.0777 15.8318 92.6433 17.4319 92.6294C16.3901 93.8443 15.8245 95.3953 15.8384 96.9954C15.2889 96.5244 14.6712 96.151 14.0109 95.8839" stroke="#3FED3F" stroke-width="1.2" stroke-miterlimit="10" stroke-linecap="round" stroke-linejoin="round"/>
<path d="M17.5752 100.729L19.7292 105.36" stroke="#3FED3F" stroke-width="1.2" stroke-miterlimit="10" stroke-linecap="round" stroke-linejoin="round"/>
<path d="M25.9561 99.9519L27.3647 107.848" stroke="#3FED3F" stroke-width="1.2" stroke-miterlimit="10" stroke-linecap="round" stroke-linejoin="round"/>
<path d="M26.1343 38.7405C28.2098 38.6121 30.1687 37.7354 31.6477 36.2739C31.7761 38.3495 32.6529 40.3083 34.1143 41.7874C32.0388 41.9158 30.0799 42.7925 28.6008 44.254C28.5216 42.9796 28.1614 41.75 27.5561 40.648" stroke="#3FED3F" stroke-width="1.2" stroke-miterlimit="10" stroke-linecap="round" stroke-linejoin="round"/>
<path d="M27.2801 47.7139L20.9963 64.1736" stroke="#3FED3F" stroke-width="1.2" stroke-miterlimit="10" stroke-linecap="round" stroke-linejoin="round"/>
<path d="M51.909 61.2128C52.5561 59.236 52.4653 57.0925 51.653 55.178C53.6298 55.8251 55.7734 55.7344 57.6878 54.9221C57.0407 56.8988 57.1315 59.0424 57.9437 60.9568C56.7307 60.5599 55.4542 60.4404 54.2065 60.5957" stroke="#3FED3F" stroke-width="1.2" stroke-miterlimit="10" stroke-linecap="round" stroke-linejoin="round"/>
<path d="M60.6716 63.4626L74.0509 75.08" stroke="#3FED3F" stroke-width="1.2" stroke-miterlimit="10" stroke-linecap="round" stroke-linejoin="round"/>
<path d="M41.9507 82.625C43.0226 80.843 43.4121 78.733 43.0475 76.6853C44.8296 77.7572 46.9396 78.1468 48.9872 77.7821C47.9154 79.5642 47.5258 81.6742 47.8904 83.7218C46.7965 83.0638 45.5786 82.6632 44.3285 82.5355" stroke="#3FED3F" stroke-width="1.2" stroke-miterlimit="10" stroke-linecap="round" stroke-linejoin="round"/>
<path d="M49.9907 86.7732L51.4434 88.8839" stroke="#3FED3F" stroke-width="1.2" stroke-miterlimit="10" stroke-linecap="round" stroke-linejoin="round"/>
<path d="M59.3506 100.375L65.6483 109.525" stroke="#3FED3F" stroke-width="1.2" stroke-miterlimit="10" stroke-linecap="round" stroke-linejoin="round"/>
<path d="M33.4729 81.9662C33.7576 80.3037 31.9557 80.1452 32.324 77.9949C31.8882 80.5407 31.2976 83.9889 31.1435 84.8906C30.9895 85.7922 29.9976 85.9228 29.2155 85.7886C28.3666 85.6433 27.7056 85.0388 27.8377 84.2699C27.9697 83.501 28.8552 83.2699 29.6241 83.402C30.2338 83.5061 31.3115 83.9089 31.1435 84.8906" stroke="#3FED3F" stroke-width="1.2" stroke-miterlimit="10" stroke-linecap="round" stroke-linejoin="round"/>
<path d="M49.1677 61.7643C48.9707 60.0889 47.1971 60.4472 46.9424 58.28C47.2447 60.8453 47.6534 64.3192 47.7605 65.2281C47.8676 66.137 46.9536 66.5423 46.1653 66.6352C45.3106 66.7358 44.5056 66.3433 44.4143 65.5685C44.3231 64.7936 45.1073 64.3219 45.8822 64.2307C46.4966 64.158 47.6444 64.2402 47.7609 65.229" stroke="#3FED3F" stroke-width="1.2" stroke-miterlimit="10" stroke-linecap="round" stroke-linejoin="round"/>
<path d="M70.4383 99.0356C70.2556 99.5653 69.6305 99.8932 69.0532 100.038C68.2182 100.247 67.3694 99.96 67.1801 99.2028C66.9908 98.4457 67.7084 97.8779 68.4655 97.6886C69.0656 97.5382 70.2145 97.4729 70.4559 98.4384" stroke="#3FED3F" stroke-width="1.2" stroke-miterlimit="10" stroke-linecap="round" stroke-linejoin="round"/>
<path d="M71.4076 94.8237C70.9982 93.1877 69.2851 93.7694 68.7554 91.6521C69.3827 94.1576 70.2322 97.5507 70.4545 98.4385C70.5103 98.66 70.4985 98.8589 70.4377 99.0357" stroke="#3FED3F" stroke-width="1.2" stroke-miterlimit="10" stroke-linecap="round" stroke-linejoin="round"/>
<path d="M70.9955 36.0238C69.9905 34.669 68.6307 35.8627 67.3308 34.1101C68.8702 36.1843 70.9543 38.9935 71.4997 39.7284C72.0451 40.4633 71.4542 41.2699 70.8169 41.7429C70.1257 42.2558 69.2322 42.3162 68.7673 41.6896C68.3024 41.063 68.7476 40.2635 69.3742 39.7986C69.8708 39.4296 70.9072 38.9295 71.5006 39.729" stroke="#3FED3F" stroke-width="1.2" stroke-miterlimit="10" stroke-linecap="round" stroke-linejoin="round"/>
<path d="M29.2578 112.17C31.3069 112.524 33.4155 112.123 35.1917 111.041C34.838 113.09 35.2394 115.199 36.3208 116.975C34.2717 116.621 32.1631 117.023 30.3869 118.104C30.6041 116.846 30.5366 115.566 30.202 114.354" stroke="#3FED3F" stroke-width="1.2" stroke-miterlimit="10" stroke-linecap="round" stroke-linejoin="round"/>
<path d="M58.9906 28.3819C60.8973 27.5522 62.4392 26.059 63.3298 24.1799C64.1595 26.0866 65.6527 27.6285 67.5318 28.5191C65.6251 29.3488 64.0832 30.842 63.1926 32.7211C62.6832 31.5503 61.9242 30.518 60.979 29.6888" stroke="#3FED3F" stroke-width="1.2" stroke-miterlimit="10" stroke-linecap="round" stroke-linejoin="round"/>
<path d="M23.0692 117.377L13.0129 111.3" stroke="#3FED3F" stroke-width="1.2" stroke-miterlimit="10" stroke-linecap="round" stroke-linejoin="round"/>
<path d="M26.8389 117.377L12.2427 65.9211" stroke="#3FED3F" stroke-width="1.2" stroke-miterlimit="10" stroke-linecap="round" stroke-linejoin="round"/>
<path d="M34.8323 107.142L36.1411 103.967" stroke="#3FED3F" stroke-width="1.2" stroke-miterlimit="10" stroke-linecap="round" stroke-linejoin="round"/>
<path d="M41.6362 90.6338L43.9032 85.1335" stroke="#3FED3F" stroke-width="1.2" stroke-miterlimit="10" stroke-linecap="round" stroke-linejoin="round"/>
<path d="M73.3592 117.071L63.03 99.0356" stroke="#3FED3F" stroke-width="1.2" stroke-miterlimit="10" stroke-linecap="round" stroke-linejoin="round"/>
<path d="M54.6864 84.4665L51.7356 79.3132" stroke="#3FED3F" stroke-width="1.2" stroke-miterlimit="10" stroke-linecap="round" stroke-linejoin="round"/>
<path d="M48.8507 56.0399L47.1707 52.6799" stroke="#3FED3F" stroke-width="1.2" stroke-miterlimit="10" stroke-linecap="round" stroke-linejoin="round"/>
<path d="M76.0977 115.39L78.9641 101.032" stroke="#3FED3F" stroke-width="1.2" stroke-miterlimit="10" stroke-linecap="round" stroke-linejoin="round"/>
<path d="M48.5942 116.251L49.9904 113.845" stroke="#3FED3F" stroke-width="1.2" stroke-miterlimit="10" stroke-linecap="round" stroke-linejoin="round"/>
<path d="M43.1341 116.592L42.4944 113.845" stroke="#3FED3F" stroke-width="1.2" stroke-miterlimit="10" stroke-linecap="round" stroke-linejoin="round"/>
<path d="M20.4421 69.6723L24.8441 64.5022" stroke="#3FED3F" stroke-width="1.2" stroke-miterlimit="10" stroke-linecap="round" stroke-linejoin="round"/>
<path d="M16.6205 57.5096L12.7812 40.2788" stroke="#3FED3F" stroke-width="1.2" stroke-miterlimit="10" stroke-linecap="round" stroke-linejoin="round"/>
<path d="M68.9508 117.071L57.6033 115.9" stroke="#3FED3F" stroke-width="1.2" stroke-miterlimit="10" stroke-linecap="round" stroke-linejoin="round"/>
<path d="M79.2799 85.8328L68.2112 88.4659" stroke="#3FED3F" stroke-width="1.2" stroke-miterlimit="10" stroke-linecap="round" stroke-linejoin="round"/>
<path d="M79.2807 81.2399L65.4541 73.0815" stroke="#3FED3F" stroke-width="1.2" stroke-miterlimit="10" stroke-linecap="round" stroke-linejoin="round"/>
<path d="M79.2806 76.9406L77.8052 43.3052" stroke="#3FED3F" stroke-width="1.2" stroke-miterlimit="10" stroke-linecap="round" stroke-linejoin="round"/>
<path d="M39.3308 34.1999L34.8508 24.6799" stroke="#3FED3F" stroke-width="1.2" stroke-miterlimit="10" stroke-linecap="round" stroke-linejoin="round"/>
<path d="M61.7658 40.7228L58.4893 33.5498" stroke="#3FED3F" stroke-width="1.2" stroke-miterlimit="10" stroke-linecap="round" stroke-linejoin="round"/>
<path d="M55.3506 30.9761L56.1356 25.0327" stroke="#3FED3F" stroke-width="1.2" stroke-miterlimit="10" stroke-linecap="round" stroke-linejoin="round"/>
<path d="M67.8911 66.1199L60.6111 57.1599" stroke="#3FED3F" stroke-width="1.2" stroke-miterlimit="10" stroke-linecap="round" stroke-linejoin="round"/>
<path d="M48.3039 30.0891L43.4419 25.0327" stroke="#3FED3F" stroke-width="1.2" stroke-miterlimit="10" stroke-linecap="round" stroke-linejoin="round"/>
<path d="M40.3777 117.616L37.5046 108.211" stroke="#3FED3F" stroke-width="1.2" stroke-miterlimit="10" stroke-linecap="round" stroke-linejoin="round"/>
<path d="M28.8029 79.7279L26.8389 73.2988" stroke="#3FED3F" stroke-width="1.2" stroke-miterlimit="10" stroke-linecap="round" stroke-linejoin="round"/>
<path d="M45.5747 116.933L45.9327 113.845" stroke="#3FED3F" stroke-width="1.2" stroke-miterlimit="10" stroke-linecap="round" stroke-linejoin="round"/>
<path d="M73.0104 110.313L70.3098 102.816" stroke="#3FED3F" stroke-width="1.2" stroke-miterlimit="10" stroke-linecap="round" stroke-linejoin="round"/>
<path d="M30.6099 109.525L32.1792 102.816" stroke="#3FED3F" stroke-width="1.2" stroke-miterlimit="10" stroke-linecap="round" stroke-linejoin="round"/>
<path d="M35.5928 88.2119L37.7035 79.4314" stroke="#3FED3F" stroke-width="1.2" stroke-miterlimit="10" stroke-linecap="round" stroke-linejoin="round"/>
<path d="M41.092 64.6893L43.7347 53.3865" stroke="#3FED3F" stroke-width="1.2" stroke-miterlimit="10" stroke-linecap="round" stroke-linejoin="round"/>
<path d="M21.7061 111.969L13.0129 104.427" stroke="#3FED3F" stroke-width="1.2" stroke-miterlimit="10" stroke-linecap="round" stroke-linejoin="round"/>
<path d="M14.8287 87.5363L12.4736 80.7793" stroke="#3FED3F" stroke-width="1.2" stroke-miterlimit="10" stroke-linecap="round" stroke-linejoin="round"/>
<path d="M14.7335 65.4685L12.2427 53.4636" stroke="#3FED3F" stroke-width="1.2" stroke-miterlimit="10" stroke-linecap="round" stroke-linejoin="round"/>
<path d="M16.8755 70.5467L26.4439 25.2827" stroke="#3FED3F" stroke-width="1.2" stroke-miterlimit="10" stroke-linecap="round" stroke-linejoin="round"/>
<path d="M18.2925 74.3714L27.2153 69.3899" stroke="#3FED3F" stroke-width="1.2" stroke-miterlimit="10" stroke-linecap="round" stroke-linejoin="round"/>
<path d="M68.1125 114.035L59.9233 111.792" stroke="#3FED3F" stroke-width="1.2" stroke-miterlimit="10" stroke-linecap="round" stroke-linejoin="round"/>
<path d="M72.1561 68.2673L63.4417 51.9712" stroke="#3FED3F" stroke-width="1.2" stroke-miterlimit="10" stroke-linecap="round" stroke-linejoin="round"/>
<path d="M57.426 40.7228L49.0352 25.0327" stroke="#3FED3F" stroke-width="1.2" stroke-miterlimit="10" stroke-linecap="round" stroke-linejoin="round"/>
<path d="M75.9441 83.3075L69.2781 81.6501" stroke="#3FED3F" stroke-width="1.2" stroke-miterlimit="10" stroke-linecap="round" stroke-linejoin="round"/>
<path d="M75.6886 57.5098L74.0159 35.2417" stroke="#3FED3F" stroke-width="1.2" stroke-miterlimit="10" stroke-linecap="round" stroke-linejoin="round"/>
<path d="M66.2107 43.1599L63.9707 35.8799" stroke="#3FED3F" stroke-width="1.2" stroke-miterlimit="10" stroke-linecap="round" stroke-linejoin="round"/>
<path d="M44.9309 30.28L40.4509 28.04" stroke="#3FED3F" stroke-width="1.2" stroke-miterlimit="10" stroke-linecap="round" stroke-linejoin="round"/>
</g>
<defs>
<filter id="filter_jar_0" x="0.490723" y="0.399902" width="90.167" height="129.2" filterUnits="userSpaceOnUse" color-interpolation-filters="sRGB">
<feFlood flood-opacity="0" result="BackgroundImageFix"/>
<feColorMatrix in="SourceAlpha" type="matrix" values="0 0 0 0 0 0 0 0 0 0 0 0 0 0 0 0 0 0 127 0"/>
<feOffset/>
<feGaussianBlur stdDeviation="4"/>
<feColorMatrix type="matrix" values="0 0 0 0 0.247778 0 0 0 0 0.929167 0 0 0 0 0.247778 0 0 0 1 0"/>
<feBlend mode="normal" in2="BackgroundImageFix" result="effect1_dropShadow"/>
<feBlend mode="normal" in="SourceGraphic" in2="effect1_dropShadow" result="shape"/>
</filter>
</defs>
</svg>
