<svg xmlns="http://www.w3.org/2000/svg" viewBox="0 0 11.33 9.21"><path style="fill:#1da1f2;" d="M3.56,9.21a6.57,6.57,0,0,0,6.62-6.62c0-.1,0-.2,0-.3a4.56,4.56,0,0,0,1.16-1.2A4.37,4.37,0,0,1,10,1.45,2.32,2.32,0,0,0,11,.17,4.66,4.66,0,0,1,9.54.73,2.31,2.31,0,0,0,8.22,0,2.28,2.28,0,0,0,6.75.28a2.3,2.3,0,0,0-1,1.09,2.36,2.36,0,0,0-.15,1.48,6.45,6.45,0,0,1-2.65-.7A6.54,6.54,0,0,1,.79.42a2.35,2.35,0,0,0-.26,1.7,2.37,2.37,0,0,0,1,1.41A2.34,2.34,0,0,1,.45,3.24v0A2.34,2.34,0,0,0,2.32,5.55a2.48,2.48,0,0,1-1,0A2.34,2.34,0,0,0,3.44,7.2a4.65,4.65,0,0,1-2.89,1,3.39,3.39,0,0,1-.55,0A6.53,6.53,0,0,0,3.56,9.21"/></svg>
