<svg viewBox="0 0 18 14" fill="none" xmlns="http://www.w3.org/2000/svg">
<path d="M5.69614 13.8399C12.2172 13.8399 15.7831 8.5773 15.7831 4.01425C15.7831 3.86463 15.7798 3.71581 15.7729 3.56778C16.4653 3.07991 17.067 2.47188 17.5417 1.77948C16.9065 2.05445 16.223 2.23949 15.5057 2.32305C16.2378 1.89568 16.7995 1.2192 17.0646 0.412597C16.3795 0.808138 15.6209 1.09584 14.8133 1.25103C14.1666 0.579727 13.2454 0.159912 12.2258 0.159912C10.2678 0.159912 8.6799 1.70666 8.6799 3.61314C8.6799 3.88413 8.71095 4.14756 8.77181 4.40064C5.82563 4.25619 3.2128 2.88175 1.46437 0.792221C1.15963 1.30276 0.984374 1.89568 0.984374 2.52799C0.984374 3.72615 1.61021 4.78385 2.56204 5.40263C1.98032 5.38512 1.43414 5.22953 0.956187 4.97087C0.95537 4.9852 0.95537 4.99992 0.95537 5.01504C0.95537 6.68754 2.17763 8.08387 3.79983 8.40062C3.50203 8.47941 3.1887 8.52199 2.86516 8.52199C2.6368 8.52199 2.41457 8.5001 2.19888 8.45952C2.65028 9.83157 3.95874 10.83 5.51067 10.8582C4.29699 11.7846 2.76834 12.3365 1.10734 12.3365C0.821378 12.3365 0.539097 12.3206 0.261719 12.2888C1.83081 13.2681 3.69362 13.8399 5.69614 13.8399Z" fill="black"/>
</svg>
